<?xml version="1.0" encoding="utf-8"?>
<!-- Generator: Adobe Illustrator 19.1.0, SVG Export Plug-In . SVG Version: 6.00 Build 0)  -->
<svg version="1.1" id="Layer_1" xmlns="http://www.w3.org/2000/svg" xmlns:xlink="http://www.w3.org/1999/xlink" x="0px" y="0px"
	 viewBox="20 -21 51.8 49.3" style="enable-background:new 20 -21 51.8 49.3;" xml:space="preserve">
<style type="text/css">
	.st0{fill:#314048;}
</style>
<g>
	<g>
		<g>
			<path class="st0" d="M44.8,20.4c-8.9,0-16.2-7.3-16.2-16.2c0-8.9,7.3-16.2,16.2-16.2C53.7-12.1,61-4.8,61,4.2
				C61,13.1,53.7,20.4,44.8,20.4z M44.8-10.7c-8.2,0-14.9,6.7-14.9,14.9S36.6,19,44.8,19c8.2,0,14.9-6.7,14.9-14.9
				C59.6-4,53-10.7,44.8-10.7z"/>
		</g>
	</g>
	<g>
		<g>
			<rect x="29.4" y="3.5" class="st0" width="30.6" height="1.4"/>
		</g>
	</g>
	<g>
		<g>
			<path class="st0" d="M45.1-2.2c-7.7,0-13.4-1.7-13.8-1.8l0.4-1.3c0.1,0,13.1,3.8,26,0l0.4,1.3C53.6-2.7,49.1-2.2,45.1-2.2z"/>
		</g>
	</g>
	<g>
		<g>
			<path class="st0" d="M31.8,13.3L31.4,12c13.3-4,26.2-0.2,26.8,0l-0.4,1.3C57.6,13.3,44.7,9.5,31.8,13.3z"/>
		</g>
	</g>
	<g>
		<g>
			<path class="st0" d="M39.5,19c-6.7-15.7-0.9-29.7-0.9-29.8l1.3,0.5c-0.1,0.1-5.6,13.6,0.9,28.7L39.5,19z"/>
		</g>
	</g>
	<g>
		<g>
			<path class="st0" d="M49.9,19l-1.3-0.5c6.5-15.2,0.9-28.6,0.9-28.7l1.3-0.5C50.8-10.7,56.6,3.2,49.9,19z"/>
		</g>
	</g>
	<g>
		<g>
			<rect x="44.1" y="-11.2" class="st0" width="1.4" height="31.2"/>
		</g>
	</g>
</g>
</svg>
