<?xml version="1.0" encoding="utf-8"?>
<!-- Generator: Adobe Illustrator 19.1.0, SVG Export Plug-In . SVG Version: 6.00 Build 0)  -->
<svg version="1.1" id="Layer_1" xmlns="http://www.w3.org/2000/svg" xmlns:xlink="http://www.w3.org/1999/xlink" x="0px" y="0px"
	 viewBox="0 0 54.4 47" style="enable-background:new 0 0 54.4 47;" xml:space="preserve">
<style type="text/css">
	.st0{fill:#314048;}
	.st1{fill:#FFFFFF;}
</style>
<g>
	<circle class="st0" cx="27.1" cy="23.4" r="16"/>
	<g>
		<path class="st1" d="M25.8,27.4c0-0.9,0.2-1.6,0.4-2.3c0.2-0.5,0.5-1.1,1-1.7c0.3-0.4,1-1,1.8-1.8c0.9-0.8,1.5-1.4,1.7-1.9
			c0.3-0.5,0.4-1,0.4-1.5c0-1-0.4-1.9-1.2-2.6c-0.8-0.8-1.7-1.1-2.8-1.1c-1.1,0-2,0.3-2.7,1c-0.7,0.7-1.2,1.7-1.4,3.2l-2.6-0.3
			c0.2-1.9,0.9-3.4,2.1-4.4c1.2-1,2.7-1.5,4.6-1.5c2,0,3.6,0.6,4.9,1.7c1.2,1.1,1.8,2.4,1.8,4c0,0.9-0.2,1.7-0.6,2.5
			c-0.4,0.8-1.3,1.7-2.5,2.8c-0.8,0.7-1.4,1.3-1.6,1.6c-0.3,0.3-0.4,0.8-0.6,1.2c-0.1,0.3-0.1,0.7-0.2,1.2L25.8,27.4z"/>
		<circle class="st1" cx="27.1" cy="32.4" r="2"/>
	</g>
</g>
</svg>
