<?xml version="1.0" encoding="utf-8"?>
<!-- Generator: Adobe Illustrator 19.1.0, SVG Export Plug-In . SVG Version: 6.00 Build 0)  -->
<svg version="1.1" id="Layer_1" xmlns="http://www.w3.org/2000/svg" xmlns:xlink="http://www.w3.org/1999/xlink" x="0px" y="0px"
	 viewBox="-265 388.9 64 64" style="enable-background:new -265 388.9 64 64;" xml:space="preserve">
<style type="text/css">
	.st0{fill:#314048;}
	.st1{fill:#1B97B2;}
</style>
<path class="st0" d="M-200.9,426.7v-12h-10.8c-0.5-1.7-1.1-3.2-1.9-4.7l7.7-7.7l-8.5-8.5l-7.7,7.7c-1.5-0.8-3.1-1.5-4.7-1.9v-10.8
	h-12v10.8c-1.7,0.5-3.2,1.1-4.7,1.9l-7.7-7.7l-8.5,8.5l7.7,7.7c-0.8,1.5-1.5,3.1-1.9,4.7h-10.8v12h10.8c0.5,1.7,1.1,3.2,1.9,4.7
	l-7.7,7.7l8.5,8.5l7.7-7.7c1.5,0.8,3.1,1.5,4.7,1.9v10.8h12v-10.8c1.7-0.5,3.2-1.1,4.7-1.9l7.7,7.7l8.5-8.5l-7.7-7.7
	c0.8-1.5,1.5-3.1,1.9-4.7H-200.9z M-232.9,436.5c-8.7,0-15.7-7-15.7-15.7s7-15.7,15.7-15.7s15.7,7,15.7,15.7
	S-224.3,436.5-232.9,436.5z"/>
<circle class="st1" cx="-232.9" cy="420.7" r="12"/>
</svg>
