<?xml version="1.0" encoding="utf-8"?>
<!-- Generator: Adobe Illustrator 19.1.0, SVG Export Plug-In . SVG Version: 6.00 Build 0)  -->
<svg version="1.1" id="Layer_1" xmlns="http://www.w3.org/2000/svg" xmlns:xlink="http://www.w3.org/1999/xlink" x="0px" y="0px"
	 viewBox="-265 388.9 64 64" style="enable-background:new -265 388.9 64 64;" xml:space="preserve">
<style type="text/css">
	.st0{fill:#314048;}
	.st1{fill:#FFFFFF;}
	.st2{fill:#0097B2;}
</style>
<g>
	<g>
		<path class="st0" d="M-213.5,428.2l-18.6-37.1c-0.6-1.1-1.7-1.8-3.1-1.8c-1.3,0-2.4,0.7-3.1,1.8l-25.9,51.7
			c-0.1,0.4-0.2,0.8-0.2,1.2c0,2,1.6,3.6,3.6,3.6c0,0,18.7,0,33.4,0C-227.2,438.7-221.5,431.1-213.5,428.2z"/>
	</g>
	<rect x="-238.8" y="403.9" class="st1" width="7.3" height="21.9"/>
	<circle class="st1" cx="-235.1" cy="434.9" r="3.6"/>
</g>
<path class="st1" d="M-201.7,437c0,8.6-6.9,15.5-15.5,15.5c-5.8,0-10.9-3.2-13.5-7.9c-1.3-2.2-2-4.8-2-7.6c0-8.6,6.9-15.5,15.5-15.5
	c0.7,0,1.3,0,2,0.1c0.5,0.1,0.9,0.1,1.3,0.2C-206.9,423.3-201.7,429.5-201.7,437z"/>
<circle class="st2" cx="-217.2" cy="437" r="14.3"/>
<path class="st1" d="M-206.4,439v-4h-3.6c-0.2-0.6-0.4-1.1-0.7-1.6l2.6-2.6l-2.8-2.8l-2.6,2.6c-0.5-0.3-1-0.5-1.6-0.7v-3.6h-4v3.6
	c-0.6,0.2-1.1,0.4-1.6,0.7l-2.6-2.6l-2.8,2.8l2.6,2.6c-0.3,0.5-0.5,1-0.7,1.6h-3.6v4h3.6c0.2,0.6,0.4,1.1,0.7,1.6l-2.6,2.6l2.8,2.8
	l2.6-2.6c0.5,0.3,1,0.5,1.6,0.7v3.6h4v-3.6c0.6-0.2,1.1-0.4,1.6-0.7l2.6,2.6l2.8-2.8l-2.6-2.6c0.3-0.5,0.5-1,0.7-1.6H-206.4z
	 M-217.2,441c-2.2,0-4-1.8-4-4c0-2.2,1.8-4,4-4s4,1.8,4,4C-213.2,439.2-215,441-217.2,441z"/>
</svg>
