<?xml version="1.0" encoding="utf-8"?>
<!-- Generator: Adobe Illustrator 18.0.0, SVG Export Plug-In . SVG Version: 6.00 Build 0)  -->
<!DOCTYPE svg PUBLIC "-//W3C//DTD SVG 1.1//EN" "http://www.w3.org/Graphics/SVG/1.1/DTD/svg11.dtd">
<svg version="1.1" id="Layer_1" xmlns="http://www.w3.org/2000/svg" xmlns:xlink="http://www.w3.org/1999/xlink" x="0px" y="0px"
	 viewBox="0 0 64 64" enable-background="new 0 0 64 64" xml:space="preserve">
<g>
	<rect x="37" y="43.1" fill="#FFFFFF" width="21" height="21"/>
	<path fill="none" stroke="#FFFFFF" stroke-width="3" stroke-miterlimit="10" d="M40.8,40.9c0-3.6,3-6.5,6.7-6.5s6.7,2.9,6.7,6.5"/>
	<line fill="none" stroke="#FFFFFF" stroke-width="3" stroke-miterlimit="10" x1="40.8" y1="40.6" x2="40.8" y2="45.5"/>
	<line fill="none" stroke="#FFFFFF" stroke-width="3" stroke-miterlimit="10" x1="54.2" y1="40.4" x2="54.2" y2="44.8"/>
</g>
<g>
	<rect x="37" y="43.1" fill="#FFFFFF" stroke="#FFFFFF" stroke-miterlimit="10" width="21" height="21"/>
	<path fill="none" stroke="#FFFFFF" stroke-width="3" stroke-miterlimit="10" d="M40.8,40.9c0-3.6,3-6.5,6.7-6.5s6.7,2.9,6.7,6.5"/>
	<line fill="none" stroke="#FFFFFF" stroke-width="3" stroke-miterlimit="10" x1="40.8" y1="40.6" x2="40.8" y2="44.8"/>
	<line fill="none" stroke="#FFFFFF" stroke-width="3" stroke-miterlimit="10" x1="54.2" y1="40.4" x2="54.2" y2="44.8"/>
</g>
<path fill="#FFFFFF" d="M0,17v28.5h35.5v-3.9c0.9,0,1.8,0.1,2.6,0c-0.2-5.2,4-10.2,9.4-10.2c4.4,0,9,3.8,9.3,8.3l0,0v1.9h2.6v3.9H64
	V17H0z M35,26.5H5v-5h30V26.5z M58.5,26.5h-5v-5h5V26.5z"/>
</svg>
