<?xml version="1.0" encoding="utf-8"?>
<!-- Generator: Adobe Illustrator 18.0.0, SVG Export Plug-In . SVG Version: 6.00 Build 0)  -->
<!DOCTYPE svg PUBLIC "-//W3C//DTD SVG 1.1//EN" "http://www.w3.org/Graphics/SVG/1.1/DTD/svg11.dtd">
<svg version="1.1" id="Layer_1" xmlns="http://www.w3.org/2000/svg" xmlns:xlink="http://www.w3.org/1999/xlink" x="0px" y="0px"
	 viewBox="0 0 64 64" enable-background="new 0 0 64 64" xml:space="preserve">
<g id="Icon">
	<g>
		<path fill="#ABABAB" d="M53.2,32.9C51.6,32.3,49.8,32,48,32c-8.8,0-16,7.2-16,16s7.2,16,16,16s16-7.2,16-16c0-1.8-0.3-3.4-0.8-5
			L48,48L53.2,32.9z"/>
		<path fill="#C7484E" d="M54.2,33.3l-4.5,12.9l13-4.3C61.4,37.9,58.2,34.7,54.2,33.3z"/>
	</g>
	<g>
		<g>
			<path fill="#FFFFFF" stroke="#FFFFFF" stroke-miterlimit="10" d="M30,48c0-9.9,8.1-18,18-18c2.8,0,5.5,0.7,7.9,1.9V14.3l-14-13.8
				H8.1v63h30.7C33.5,60.4,30,54.6,30,48z"/>
		</g>
		<line fill="none" stroke="#333333" stroke-width="3" stroke-miterlimit="10" x1="20.1" y1="15.3" x2="34" y2="15.3"/>
		<line fill="none" stroke="#333333" stroke-width="3" stroke-miterlimit="10" x1="20.1" y1="46.7" x2="30" y2="46.7"/>
		<line fill="none" stroke="#333333" stroke-width="3" stroke-miterlimit="10" x1="20.1" y1="25.8" x2="43.9" y2="25.8"/>
		<polygon fill="#333333" points="41.8,14.3 55.7,14.3 41.8,0.5 		"/>
		<path fill="#333333" d="M36.1,34.5h-16v3h13.3C34.2,36.4,35.1,35.4,36.1,34.5z"/>
	</g>
</g>
<g id="Guide" display="none">
</g>
</svg>
