<?xml version="1.0" encoding="utf-8"?>
<!-- Generator: Adobe Illustrator 19.1.0, SVG Export Plug-In . SVG Version: 6.00 Build 0)  -->
<svg version="1.1" id="Layer_1" xmlns="http://www.w3.org/2000/svg" xmlns:xlink="http://www.w3.org/1999/xlink" x="0px" y="0px"
	 viewBox="0 0 64 64" style="enable-background:new 0 0 64 64;" xml:space="preserve">
<style type="text/css">
	.st0{fill:none;stroke:#555555;stroke-width:3;stroke-miterlimit:10;}
	.st1{fill:#313541;}
	.st2{fill:#314048;}
	.st3{fill:#FFFFFF;}
	.st4{fill:#1B97B2;}
	.st5{fill:#F4F5F6;}
</style>
<path class="st0" d="M31.8,51.1"/>
<path class="st1" d="M60.5,52h-5.5v-5.5h5.5V52z"/>
<g id="XMLID_1_">
	<g>
		<path class="st2" d="M63.8,43.3V64H0.2V43.3H16c4,4.2,9.7,6.9,16,6.9s12-2.7,16-6.9H63.8z"/>
	</g>
	<g>
	</g>
</g>
<rect x="3.5" y="48.7" class="st3" width="12.9" height="2"/>
<path class="st4" d="M32,53.2c-11.9,0-21.5-9.6-21.5-21.5S20.2,10.2,32,10.2v3c-10.2,0-18.5,8.3-18.5,18.5
	c0,10.2,8.3,18.5,18.5,18.5s18.5-8.3,18.5-18.5c0-5-2-9.7-5.6-13.2l2.1-2.1c4.2,4.1,6.5,9.5,6.5,15.4C53.5,43.5,43.9,53.2,32,53.2z"
	/>
<polygon class="st4" points="31.4,5.9 41.4,11.7 31.4,17.4 "/>
<rect x="56" y="47.7" class="st5" width="4" height="4"/>
</svg>
