<?xml version="1.0" encoding="utf-8"?>
<!-- Generator: Adobe Illustrator 19.1.0, SVG Export Plug-In . SVG Version: 6.00 Build 0)  -->
<svg version="1.1" id="Layer_1" xmlns="http://www.w3.org/2000/svg" xmlns:xlink="http://www.w3.org/1999/xlink" x="0px" y="0px"
	 viewBox="-265 388.9 64 64" style="enable-background:new -265 388.9 64 64;" xml:space="preserve">
<style type="text/css">
	.st0{fill:#314048;}
	.st1{fill:#FFFFFF;}
	.st2{fill:#92A7B2;}
	.st3{fill:#0097B2;}
</style>
<g>
	<g>
		<path class="st0" d="M-237.2,436.1c0-9.6,7.8-17.3,17.3-17.3c2.8,0,5.4,0.7,7.7,1.8v-23l-8.2-7.7h-29.9l-8.1,7.7v53.9h30.6
			C-233.4,448.6-237.2,442.8-237.2,436.1z"/>
	</g>
</g>
<g>
	<rect x="-250.8" y="405.3" class="st1" width="30.8" height="3.9"/>
	<rect x="-250.8" y="413" class="st1" width="30.8" height="3.9"/>
	<path class="st1" d="M-237.2,436.1h-13.6v3.9h14C-237.1,438.7-237.2,437.4-237.2,436.1z"/>
</g>
<g>
	<g>
		<polygon class="st2" points="-220.4,389.9 -250.3,389.9 -258.4,397.6 -212.3,397.6 		"/>
	</g>
</g>
<circle class="st3" cx="-219.9" cy="436.1" r="15.4"/>
<path class="st1" d="M-208.4,438.3v-4.3h-3.9c-0.2-0.6-0.4-1.2-0.7-1.7l2.8-2.8l-3.1-3.1l-2.8,2.8c-0.5-0.3-1.1-0.5-1.7-0.7v-3.9
	h-4.3v3.9c-0.6,0.2-1.2,0.4-1.7,0.7l-2.8-2.8l-3.1,3.1l2.8,2.8c-0.3,0.5-0.5,1.1-0.7,1.7h-3.9v4.3h3.9c0.2,0.6,0.4,1.2,0.7,1.7
	l-2.8,2.8l3.1,3.1l2.8-2.8c0.5,0.3,1.1,0.5,1.7,0.7v3.9h4.3v-3.9c0.6-0.2,1.2-0.4,1.7-0.7l2.8,2.8l3.1-3.1l-2.8-2.8
	c0.3-0.5,0.5-1.1,0.7-1.7H-208.4z M-219.9,440.4c-2.4,0-4.3-1.9-4.3-4.3c0-2.4,1.9-4.3,4.3-4.3c2.4,0,4.3,1.9,4.3,4.3
	C-215.6,438.5-217.5,440.4-219.9,440.4z"/>
</svg>
