<?xml version="1.0" encoding="utf-8"?>
<!-- Generator: Adobe Illustrator 18.0.0, SVG Export Plug-In . SVG Version: 6.00 Build 0)  -->
<!DOCTYPE svg PUBLIC "-//W3C//DTD SVG 1.1//EN" "http://www.w3.org/Graphics/SVG/1.1/DTD/svg11.dtd">
<svg version="1.1" id="Layer_1" xmlns="http://www.w3.org/2000/svg" xmlns:xlink="http://www.w3.org/1999/xlink" x="0px" y="0px"
	 viewBox="0 0 64 64" enable-background="new 0 0 64 64" xml:space="preserve">
<g id="Icon">
	<g>
		<g>
			<path fill="#FFFFFF" d="M30,48c0,0.5,0,0.9,0.1,1.4C30,48.9,30,48.5,30,48z"/>
			<path fill="#FFFFFF" d="M30.5,52H16v-4h14c0-9.9,8.1-18,18-18c2.9,0,5.6,0.7,8,1.9V8l-8.5-8H16.4L8,8v56h31.8
				C35.1,61.6,31.7,57.2,30.5,52z M16,16h32v4H16V16z M16,24h32v4H16V24z"/>
		</g>
	</g>
	<g>
		<g>
			<polygon fill="#FFFFFF" points="47.5,0 16.4,0 8.1,8 55.9,8 			"/>
		</g>
	</g>
	<g>
		<path fill="#FFFFFF" d="M48,43.5c-2.5,0-4.5,2-4.5,4.5s2,4.5,4.5,4.5s4.5-2,4.5-4.5S50.5,43.5,48,43.5z"/>
		<path fill="#FFFFFF" d="M48,32c-8.8,0-16,7.2-16,16s7.2,16,16,16s16-7.2,16-16S56.8,32,48,32z M55.9,50.2
			c-0.1,0.7-0.4,1.2-0.7,1.8l3,2.9L55,58.1l-2.9-2.9c-0.6,0.3-1.2,0.5-1.8,0.7V60h-4.5v-4c-0.7-0.1-1.2-0.4-1.8-0.7l-2.9,2.9
			L37.9,55l2.9-2.9c-0.3-0.6-0.5-1.2-0.7-1.8H36v-4.5h4c0.1-0.7,0.4-1.2,0.7-1.8l-2.9-2.9l3.2-3.2l2.9,2.9c0.6-0.3,1.2-0.5,1.8-0.7
			V36h4.5v4.1c0.7,0.1,1.2,0.4,1.8,0.7l2.9-3l3.2,3.2l-2.9,2.9c0.3,0.6,0.5,1.2,0.7,1.8H60v4.5H55.9z"/>
	</g>
</g>
<g id="Guide" display="none">
</g>
</svg>
