<?xml version="1.0" encoding="utf-8"?>
<!-- Generator: Adobe Illustrator 19.1.0, SVG Export Plug-In . SVG Version: 6.00 Build 0)  -->
<svg version="1.1" id="Layer_1" xmlns="http://www.w3.org/2000/svg" xmlns:xlink="http://www.w3.org/1999/xlink" x="0px" y="0px"
	 viewBox="-265 388.9 64 64" style="enable-background:new -265 388.9 64 64;" xml:space="preserve">
<style type="text/css">
	.st0{fill:#F4F5F6;}
	.st1{fill:#314048;}
	.st2{fill:none;}
	.st3{fill:#FFFFFF;}
	.st4{fill:#0097B2;}
</style>
<g>
	<g>
		<g>
			<path class="st0" d="M-214.5,402.1c0-0.3-0.1-0.6-0.1-1.1c-0.1-1.4-1.2-2.6-2.7-2.6c-0.1,0-31.2,0-31.3,0c-1.8,0-3.3,1.5-3.3,3.3
				c0,0.1,0,34.1,0,34.1h-5.5c0,0,0,2.6,0,2.7c0,1.5,1.2,2.7,2.7,2.7c0.1,0,8.9,0,16.5,0c6.9,0,14.9,0,14.9,0c0.2,0,0.4,0,0.7,0
				c1.7-0.1,2.7-1.3,2.7-2.8c0-0.1,0-34.7,0-34.7h5.4l0,0v0C-214.5,403.7-214.5,402.3-214.5,402.1z"/>
			<path class="st1" d="M-223.3,441.7h-31.4c-1.8,0-3.2-1.4-3.2-3.2v-3.2h5.5v-33.6c0-2.1,1.7-3.8,3.8-3.8h31.3
				c1.7,0,3.1,1.3,3.2,3.1c0,0.2,0,0.4,0,0.6c0,0.2,0,0.4,0,0.5c0,0.7,0,1.2,0,1.4l0,0v0.7l-0.5,0h-4.9v34.2c0,1.9-1.3,3.2-3.2,3.3
				c-0.2,0-0.3,0-0.4,0C-223.1,441.7-223.2,441.7-223.3,441.7z M-256.9,436.3v2.2c0,1.2,1,2.2,2.2,2.2l31.7,0c0.1,0,0.3,0,0.4,0
				c1.3-0.1,2.2-1,2.2-2.3v-35.2h5.4c0-0.3,0-0.6,0-1.1c0-0.1,0-0.3,0-0.4c0-0.2,0-0.4,0-0.6c-0.1-1.2-1-2.1-2.2-2.1h-31.3
				c-1.5,0-2.8,1.3-2.8,2.8v34.6H-256.9z"/>
		</g>
		<path class="st1" d="M-222.6,441.2c-1.5,0-2.7-1.2-2.7-2.7c0-0.2,0-2.7,0-2.7h-32.1c0,0,0,2.6,0,2.7c0,1.5,1.2,2.7,2.7,2.7
			C-254.6,441.2-222.5,441.2-222.6,441.2z"/>
		<path class="st1" d="M-214.6,401.1c0-1.5-1.2-2.7-2.6-2.7c-2.6,0-3.2,1.2-3.2,2.7c0,0.2,0,2.7,0,2.7h5.8
			C-214.6,403.8-214.6,401.2-214.6,401.1z"/>
		<g>
			<line class="st2" x1="-247.2" y1="405.8" x2="-226.5" y2="405.8"/>
			<rect x="-247.2" y="405.3" class="st1" width="20.7" height="1"/>
		</g>
		<g>
			<line class="st2" x1="-247.2" y1="411.1" x2="-226.5" y2="411.1"/>
			<rect x="-247.2" y="410.6" class="st1" width="20.7" height="1"/>
		</g>
		<g>
			<line class="st2" x1="-247.2" y1="416.5" x2="-226.5" y2="416.5"/>
			<rect x="-247.2" y="416" class="st1" width="20.7" height="1"/>
		</g>
		<g>
			<line class="st2" x1="-247.2" y1="421.9" x2="-226.5" y2="421.9"/>
			<rect x="-247.2" y="421.4" class="st1" width="20.7" height="1"/>
		</g>
		<g>
			<line class="st2" x1="-247.2" y1="427.2" x2="-226.5" y2="427.2"/>
			<rect x="-247.2" y="426.7" class="st1" width="20.7" height="1"/>
		</g>
	</g>
	<g>
		<path class="st3" d="M-210,430.6c0,7.3-5.9,13.2-13.2,13.2c-4.9,0-9.2-2.7-11.5-6.7c-1.1-1.9-1.7-4.1-1.7-6.4
			c0-7.3,5.9-13.2,13.2-13.2c0.6,0,1.1,0,1.7,0.1c0.4,0,0.8,0.1,1.1,0.2C-214.4,419-210,424.3-210,430.6z"/>
		<circle class="st4" cx="-223.2" cy="430.6" r="12.2"/>
	</g>
	<polygon class="st3" points="-218.1,435.5 -227.3,435.5 -227.3,425 -218.1,425 -218.1,426.6 -225.7,426.6 -225.7,433.9 
		-218.1,433.9 	"/>
	<rect x="-232.3" y="429.2" class="st3" width="5.7" height="2.2"/>
	<polygon class="st3" points="-219.6,428.8 -220.3,428.1 -218,425.8 -220.3,423.6 -219.6,422.9 -216.6,425.8 	"/>
	<polygon class="st3" points="-219.6,437.7 -220.3,437 -218.1,434.7 -220.3,432.5 -219.6,431.8 -216.7,434.7 	"/>
</g>
</svg>
