<?xml version="1.0" encoding="utf-8"?>
<!-- Generator: Adobe Illustrator 19.1.0, SVG Export Plug-In . SVG Version: 6.00 Build 0)  -->
<svg version="1.1" id="Layer_1" xmlns="http://www.w3.org/2000/svg" xmlns:xlink="http://www.w3.org/1999/xlink" x="0px" y="0px"
	 viewBox="0 0 64 64" style="enable-background:new 0 0 64 64;" xml:space="preserve">
<style type="text/css">
	.st0{fill:#FFFFFF;}
	.st1{fill:#314048;}
	.st2{fill:#FFFFFF;stroke:#314048;stroke-miterlimit:10;}
	.st3{fill:#1B97B2;}
	.st4{fill:none;stroke:#314048;stroke-width:2;stroke-miterlimit:10;}
</style>
<g>
	<g>
		<polyline class="st0" points="55.4,62.5 55.4,15 42.2,1.7 10.2,1.7 10.2,62.3 55.9,62.3 		"/>
		<path class="st1" d="M55.9,62.8H9.7V1.2h32.7l13.5,13.5L55.9,62.8z M10.7,61.8H55V15.1L42,2.2H10.7V61.8z"/>
	</g>
	<path class="st2" d="M38.3,40.8"/>
	<polygon class="st1" points="42.1,15 55.3,15 42.1,1.7 	"/>
</g>
<polygon class="st3" points="31.4,20.1 35.3,15.8 35,21.6 40.8,21.3 36.5,25.2 40.8,29.1 35,28.8 35.3,34.5 31.4,30.2 27.5,34.5 
	27.8,28.8 22,29.1 26.3,25.2 22,21.3 27.8,21.6 27.5,15.8 "/>
<line class="st4" x1="16.6" y1="42.9" x2="49.6" y2="42.9"/>
<line class="st4" x1="21.3" y1="50.3" x2="44.8" y2="50.3"/>
</svg>
