<?xml version="1.0" encoding="utf-8"?>
<!-- Generator: Adobe Illustrator 19.1.0, SVG Export Plug-In . SVG Version: 6.00 Build 0)  -->
<svg version="1.1" xmlns="http://www.w3.org/2000/svg" xmlns:xlink="http://www.w3.org/1999/xlink" x="0px" y="0px"
	 viewBox="0 0 64 64" style="enable-background:new 0 0 64 64;" xml:space="preserve">
<style type="text/css">
	.st0{fill:#F4F5F6;}
	.st1{fill:#324149;}
	.st2{fill:#F4F5F6;stroke:#324149;stroke-miterlimit:10;}
	.st3{fill:#0797B1;}
	.st4{fill:none;stroke:#0797B1;stroke-width:2;stroke-miterlimit:10;}
	.st5{fill:#FFFFFF;}
	.st6{display:none;}
	.st7{display:inline;}
</style>
<g id="Icon">
	<g>
		<g>
			<path class="st0" d="M51.4,13.6c0-0.3,0-0.9-0.1-1.1c-0.1-1.4-1.2-2.6-2.7-2.6c-0.1,0-31.2,0-31.3,0c-1.8,0-3.3,1.5-3.3,3.3
				c0,0.1,0,34.1,0,34.1H8.6c0,0,0,2.6,0,2.7c0,1.5,1.2,2.7,2.7,2.7c0.1,0,8.9,0,16.5,0c6.9,0,14.9,0,14.9,0c0.2,0,0.5,0,0.7-0.1
				c1.5,0,2.7-1.2,2.7-2.7c0-0.1,0-34.7,0-34.7h5.4l0,0h0.1C51.4,15.3,51.4,13.8,51.4,13.6z"/>
			<path class="st1" d="M42.6,53.2c-0.1,0-8,0-14.9,0c-7.6,0-16.4,0-16.5,0c-1.8,0-3.2-1.4-3.2-3.2v-3.2h5.4V13.2
				c0-2.1,1.7-3.8,3.8-3.8c0.1,0,10.3,0,19.1,0l12.2,0c1.7,0,3.1,1.3,3.2,3.1c0.1,0.3,0.1,1.1,0.1,1.1c0,0.2,0,1.7,0,1.7l0,0.5h-5.4
				V50c0,1.7-1.4,3.1-3.1,3.2C43.1,53.2,42.9,53.2,42.6,53.2z M27.7,52.2c6.9,0,14.9,0,14.9,0c0.2,0,0.4,0,0.6-0.1l0.1,0
				c1.2,0,2.2-1,2.2-2.2V14.8h5.4c0-0.5,0-1.1,0-1.2c0-0.4,0-0.9-0.1-1c-0.1-1.3-1-2.2-2.2-2.2l-12.2,0c-8.8,0-19,0-19.1,0
				c-1.6,0-2.8,1.3-2.8,2.8v34.6H9.1V50c0,1.2,1,2.2,2.2,2.2C11.4,52.2,20.1,52.2,27.7,52.2z"/>
		</g>
		<path class="st1" d="M43.3,52.7c-1.5,0-2.7-1.2-2.7-2.7c0-0.2,0-2.7,0-2.7H8.6c0,0,0,2.6,0,2.7c0,1.5,1.2,2.7,2.7,2.7
			C11.3,52.7,43.4,52.7,43.3,52.7z"/>
		<path class="st1" d="M51.5,12.6c0-1.5-1.2-2.7-2.7-2.7c-2.6,0-3.3,1.2-3.3,2.7c0,0.2,0,2.7,0,2.7h6C51.5,15.3,51.5,12.8,51.5,12.6
			z"/>
		<g>
			<line class="st0" x1="27.7" y1="17.3" x2="39.4" y2="17.3"/>
			<rect x="27.7" y="16.8" class="st1" width="11.7" height="1"/>
		</g>
		<g>
			<line class="st0" x1="27.7" y1="22.7" x2="39.4" y2="22.7"/>
			<rect x="27.7" y="22.2" class="st1" width="11.7" height="1"/>
		</g>
		<g>
			<line class="st0" x1="27.7" y1="28" x2="39.4" y2="28"/>
			<rect x="27.7" y="27.5" class="st1" width="11.7" height="1"/>
		</g>
		<g>
			<line class="st0" x1="27.7" y1="33.4" x2="39.4" y2="33.4"/>
			<rect x="27.7" y="32.9" class="st1" width="11.7" height="1"/>
		</g>
		<g>
			<line class="st0" x1="27.7" y1="38.7" x2="39.4" y2="38.7"/>
			<rect x="27.7" y="38.2" class="st1" width="11.7" height="1"/>
		</g>
	</g>
	<rect x="18.8" y="17" class="st2" width="5.2" height="5.2"/>
	<rect x="18.8" y="25.9" class="st2" width="5.2" height="5.2"/>
	<rect x="18.8" y="34.8" class="st2" width="5.2" height="5.2"/>
	<g>
		<circle class="st3" cx="40.6" cy="42.6" r="11.2"/>
	</g>
	<polyline class="st4" points="20.1,27.1 22.2,29.5 26.6,25.5 	"/>
	<polyline class="st4" points="20,35.9 22.1,38.3 26.5,34.4 	"/>
	<polyline class="st4" points="20.1,18.2 22.2,20.5 26.6,16.5 	"/>
	<rect x="32.4" y="39.7" class="st5" width="16.2" height="5.2"/>
	<rect x="32.4" y="39.6" class="st1" width="8.4" height="5.3"/>
</g>
<g id="Guide" class="st6">
	<g class="st7">
		<g>
		</g>
	</g>
</g>
</svg>
