<?xml version="1.0" encoding="utf-8"?>
<!-- Generator: Adobe Illustrator 19.1.0, SVG Export Plug-In . SVG Version: 6.00 Build 0)  -->
<svg version="1.1" id="Layer_1" xmlns="http://www.w3.org/2000/svg" xmlns:xlink="http://www.w3.org/1999/xlink" x="0px" y="0px"
	 viewBox="-265 388.9 64 64" style="enable-background:new -265 388.9 64 64;" xml:space="preserve">
<style type="text/css">
	.st0{fill:#F4F5F6;stroke:#314048;stroke-miterlimit:10;}
	.st1{fill:#314048;}
	.st2{fill:none;}
	.st3{fill:#1B97B2;}
	.st4{fill:#FFFFFF;}
	.st5{fill:none;stroke:#FFFFFF;stroke-width:3;stroke-miterlimit:10;}
</style>
<g>
	<g>
		<path class="st0" d="M-212.5,405c0-0.3,0-2.8-0.1-3.2c-0.1-1.4-1.2-2.6-2.7-2.6c-0.1,0-31.2,0-31.3,0c-1.8,0-3.3,1.5-3.3,3.3
			c0,0.1,0,34.1,0,34.1h-5.4c0,0,0,2.6,0,2.7c0,1.5,1.2,2.7,2.7,2.7c0.1,0,8.9,0,16.5,0c6.9,0,14.9,0,14.9,0c0.2,0,0.5,0,0.7-0.1
			c1.5,0,2.7-1.2,2.7-2.7c0-0.1,0-34.7,0-34.7h5.2h0.1"/>
		<path class="st1" d="M-220.6,442c-1.5,0-2.7-1.2-2.7-2.7c0-0.2,0-2.7,0-2.7h-32.1c0,0,0,2.6,0,2.7c0,1.5,1.2,2.7,2.7,2.7
			C-252.6,442-220.5,442-220.6,442z"/>
		<path class="st1" d="M-212.3,401.9c0-1.5-1.2-2.7-2.7-2.7c-2.6,0-3.3,1.2-3.3,2.7c0,0.2,0,2.7,0,2.7h6
			C-212.3,404.6-212.3,402-212.3,401.9z"/>
		<g>
			<line class="st2" x1="-245.2" y1="406.6" x2="-224.5" y2="406.6"/>
			<rect x="-245.2" y="406.1" class="st1" width="20.7" height="1"/>
		</g>
		<g>
			<line class="st2" x1="-245.2" y1="411.9" x2="-224.5" y2="411.9"/>
			<rect x="-245.2" y="411.4" class="st1" width="20.7" height="1"/>
		</g>
		<g>
			<line class="st2" x1="-245.2" y1="417.3" x2="-224.5" y2="417.3"/>
			<rect x="-245.2" y="416.8" class="st1" width="20.7" height="1"/>
		</g>
		<g>
			<line class="st2" x1="-245.2" y1="422.6" x2="-224.5" y2="422.6"/>
			<rect x="-245.2" y="422.1" class="st1" width="20.7" height="1"/>
		</g>
		<g>
			<line class="st2" x1="-245.2" y1="428" x2="-224.5" y2="428"/>
			<rect x="-245.2" y="427.5" class="st1" width="20.7" height="1"/>
		</g>
	</g>
	<g>
		<rect x="-229.3" y="423.8" class="st3" width="19.6" height="18.7"/>
		<path class="st1" d="M-211.8,423.8h-2.8c0-2.6-2.2-4.7-4.9-4.7s-4.9,2.1-4.9,4.7h-2.8c0-4.1,3.5-7.5,7.7-7.5
			S-211.8,419.6-211.8,423.8z"/>
		<circle class="st4" cx="-219.5" cy="433.5" r="2.8"/>
		<line class="st5" x1="-219.5" y1="432.2" x2="-219.5" y2="439"/>
	</g>
</g>
</svg>
