<?xml version="1.0" encoding="utf-8"?>
<!-- Generator: Adobe Illustrator 19.1.0, SVG Export Plug-In . SVG Version: 6.00 Build 0)  -->
<svg version="1.1" xmlns="http://www.w3.org/2000/svg" xmlns:xlink="http://www.w3.org/1999/xlink" x="0px" y="0px"
	 viewBox="0 0 64 64" style="enable-background:new 0 0 64 64;" xml:space="preserve">
<style type="text/css">
	.st0{fill:#1D97B2;}
	.st1{fill:#A8B9C1;}
	.st2{fill:#324149;}
	.st3{fill:#F4F5F6;}
	.st4{display:none;}
	.st5{display:inline;}
</style>
<g id="Icon">
	<path class="st0" d="M45.8,18.1h-2c0-4.4-3.6-8-8-8c-2.5,0-4.8,1.1-6.3,3.1L28,11.9c1.9-2.4,4.8-3.8,7.8-3.8
		C41.3,8.1,45.8,12.6,45.8,18.1z"/>
	<g>
		<g>
			<path class="st1" d="M39.3,16c0-0.1,0-0.3-0.1-0.4c0-0.8-0.7-1.5-1.5-1.5c0,0-17.6,0-17.6,0c-1,0-1.9,0.8-1.9,1.9
				c0,0.1,0,19.2,0,19.2h-3.1c0,0,0,1.5,0,1.5c0,0.8,0.7,1.5,1.5,1.5c0.1,0,5,0,9.3,0c3.9,0,8.4,0,8.4,0c0.1,0,0.3,0,0.4,0
				c0.8,0,1.5-0.7,1.5-1.5c0-0.1,0-19.5,0-19.5h3l0,0h0C39.3,17.2,39.3,16.2,39.3,16z"/>
			<path class="st2" d="M34.3,38.8l-8.4,0l-9.3,0c-1.1,0-2-0.9-2-2v-2h3.1V16c0-1.3,1.1-2.4,2.4-2.4l17.6,0c1.1,0,2,0.8,2,1.9
				c0,0.1,0.1,0.3,0.1,0.4v1.7h-3.1v19c0,1.1-0.9,2-2,2C34.7,38.8,34.5,38.8,34.3,38.8z M25.9,37.8l8.4,0c0.1,0,0.2,0,0.3,0
				c0.7,0,1.1-0.5,1.1-1v-20h3.1V16c0-0.1,0-0.2,0-0.3c0-0.6-0.5-1.1-1-1.1l-17.6,0c-0.8,0-1.4,0.6-1.4,1.4v19.7h-3.1v1
				c0,0.6,0.5,1,1,1L25.9,37.8z"/>
		</g>
		<path class="st2" d="M34.7,38.3c-0.8,0-1.5-0.7-1.5-1.5c0-0.1,0-1.5,0-1.5H15.1c0,0,0,1.5,0,1.5c0,0.8,0.7,1.5,1.5,1.5
			C16.7,38.3,34.8,38.3,34.7,38.3z"/>
		<path class="st2" d="M39.1,15.7c0-0.8-0.7-1.5-1.5-1.5c-1.5,0-1.9,0.7-1.9,1.5c0,0.1,0,1.5,0,1.5h3.4
			C39.1,17.2,39.1,15.8,39.1,15.7z"/>
		<g>
			<line class="st3" x1="20.8" y1="18.3" x2="32.5" y2="18.3"/>
			<rect x="20.8" y="17.8" class="st2" width="11.7" height="1"/>
		</g>
		<g>
			<line class="st3" x1="20.8" y1="21.3" x2="32.5" y2="21.3"/>
			<rect x="20.8" y="20.8" class="st2" width="11.7" height="1"/>
		</g>
		<g>
			<line class="st3" x1="20.8" y1="24.4" x2="32.5" y2="24.4"/>
			<rect x="20.8" y="23.9" class="st2" width="11.7" height="1"/>
		</g>
		<g>
			<line class="st3" x1="20.8" y1="27.4" x2="32.5" y2="27.4"/>
			<rect x="20.8" y="26.9" class="st2" width="11.7" height="1"/>
		</g>
		<g>
			<line class="st3" x1="20.8" y1="30.4" x2="32.5" y2="30.4"/>
			<rect x="20.8" y="29.9" class="st2" width="11.7" height="1"/>
		</g>
	</g>
	<g>
		<g>
			<path class="st3" d="M48.5,24.5c0-0.2,0-0.3-0.1-0.5c0-0.9-0.8-1.6-1.7-1.6c0,0-19.8,0-19.8,0c-1.2,0-2.1,0.9-2.1,2.1
				c0,0.1,0,21.6,0,21.6h-3.4c0,0,0,1.7,0,1.7c0,0.9,0.8,1.7,1.7,1.7c0.1,0,5.6,0,10.4,0c4.4,0,9.4,0,9.5,0c0.1,0,0.3,0,0.4,0
				c0.9,0,1.7-0.8,1.7-1.7c0-0.1,0-22,0-22h3.4l0,0h0C48.5,25.8,48.5,24.6,48.5,24.5z"/>
			<path class="st2" d="M43,50c0,0-5.1,0-9.5,0c-4.8,0-10.4,0-10.4,0c-1.2,0-2.2-1-2.2-2.2v-2.2h3.4V24.5c0-1.4,1.2-2.6,2.6-2.6
				l19.8,0c1.2,0,2.2,0.9,2.2,2.1c0,0.1,0.1,0.3,0.1,0.5v1.8h-3.4v21.5c0,1.2-1,2.2-2.2,2.2C43.3,50,43.2,50,43,50z M33.5,49
				c4.4,0,9.4,0,9.5,0c0.1,0,0.2,0,0.3,0c0.8,0,1.3-0.5,1.3-1.2V25.3H48v-0.8c0-0.1,0-0.2,0-0.4c0-0.7-0.6-1.3-1.2-1.3l-19.8,0
				c-0.9,0-1.6,0.7-1.6,1.6v22.1h-3.4v1.2c0,0.7,0.5,1.2,1.2,1.2C23.1,49,28.7,49,33.5,49z"/>
		</g>
		<path class="st2" d="M43.4,49.5c-0.9,0-1.7-0.8-1.7-1.7c0-0.1,0-1.7,0-1.7H21.4c0,0,0,1.7,0,1.7c0,0.9,0.8,1.7,1.7,1.7
			C23.1,49.5,43.5,49.5,43.4,49.5z"/>
		<path class="st2" d="M48.4,24.1c0-0.9-0.8-1.7-1.7-1.7c-1.7,0-2.1,0.8-2.1,1.7c0,0.1,0,1.7,0,1.7h3.8
			C48.4,25.8,48.4,24.2,48.4,24.1z"/>
		<g>
			<line class="st3" x1="27.8" y1="27" x2="40.9" y2="27"/>
			<rect x="27.8" y="26.5" class="st2" width="13.1" height="1"/>
		</g>
		<g>
			<line class="st3" x1="27.8" y1="30.4" x2="40.9" y2="30.4"/>
			<rect x="27.8" y="29.9" class="st2" width="13.1" height="1"/>
		</g>
		<g>
			<line class="st3" x1="27.8" y1="33.8" x2="40.9" y2="33.8"/>
			<rect x="27.8" y="33.3" class="st2" width="13.1" height="1"/>
		</g>
		<g>
			<line class="st3" x1="27.8" y1="37.2" x2="40.9" y2="37.2"/>
			<rect x="27.8" y="36.7" class="st2" width="13.1" height="1"/>
		</g>
		<g>
			<line class="st3" x1="27.8" y1="40.6" x2="40.9" y2="40.6"/>
			<rect x="27.8" y="40.1" class="st2" width="13.1" height="1"/>
		</g>
	</g>
	<polyline class="st0" points="47.9,17.9 44.6,21 41.5,17.8 	"/>
</g>
<g id="Guide" class="st4">
	<g class="st5">
		<g>
		</g>
	</g>
</g>
</svg>
