<?xml version="1.0" encoding="utf-8"?>
<!-- Generator: Adobe Illustrator 19.1.0, SVG Export Plug-In . SVG Version: 6.00 Build 0)  -->
<svg version="1.1" id="Layer_1" xmlns="http://www.w3.org/2000/svg" xmlns:xlink="http://www.w3.org/1999/xlink" x="0px" y="0px"
	 viewBox="-265 388.9 64 64" style="enable-background:new -265 388.9 64 64;" xml:space="preserve">
<style type="text/css">
	.st0{fill:#FFFFFF;}
	.st1{fill:#314048;}
	.st2{fill:#FFFFFF;stroke:#314048;stroke-miterlimit:10;}
	.st3{fill:#1B97B2;}
</style>
<g>
	<g>
		<path class="st0" d="M-209.6,432.7v-29.5l-13.2-13.2h-32v60.6h28.6"/>
		<polygon class="st1" points="-226.1,451 -255.2,451 -255.2,389.5 -222.6,389.5 -209.1,403 -209.1,432.7 -210,432.7 -210,403.4 
			-223,390.5 -254.3,390.5 -254.3,450.1 -226.1,450.1 		"/>
	</g>
	<path class="st2" d="M-226.7,429"/>
	<rect x="-243.5" y="402.8" class="st1" width="13.2" height="2.8"/>
	<rect x="-243.5" y="433" class="st1" width="14.5" height="2.8"/>
	<rect x="-243.5" y="412.9" class="st1" width="22.6" height="2.8"/>
	<rect x="-243.5" y="422.9" class="st1" width="22.6" height="2.8"/>
	<polygon class="st1" points="-222.9,403.3 -209.7,403.3 -222.9,390 	"/>
</g>
<g>
	<polygon class="st3" points="-231.9,452.2 -230.9,446.7 -226.4,451.3 	"/>
	<polygon class="st3" points="-224.2,449.2 -228.8,444.6 -213.5,429.2 -208.9,433.8 	"/>
	<polygon class="st3" points="-207,431.9 -211.6,427.3 -207.5,423.2 -202.9,427.9 	"/>
	<polygon class="st0" points="-230.9,446.7 -228.8,444.6 -224.2,449.2 -226.4,451.3 	"/>
	<polygon class="st0" points="-213.5,429.2 -211.6,427.3 -207,431.9 -208.9,433.8 	"/>
</g>
</svg>
