<?xml version="1.0" encoding="utf-8"?>
<!-- Generator: Adobe Illustrator 19.1.0, SVG Export Plug-In . SVG Version: 6.00 Build 0)  -->
<svg version="1.1" id="Layer_1" xmlns="http://www.w3.org/2000/svg" xmlns:xlink="http://www.w3.org/1999/xlink" x="0px" y="0px"
	 viewBox="-265 388.9 64 64" style="enable-background:new -265 388.9 64 64;" xml:space="preserve">
<style type="text/css">
	.st0{display:none;}
	.st1{fill:#314048;}
	.st2{fill:#0097B2;}
	.st3{fill:#FFFFFF;}
</style>
<g id="Guide" class="st0">
</g>
<path class="st1" d="M-232.1,446.9v-4c12.1,0,22-9.9,22-22c0-12.1-9.9-22-22-22s-22,9.9-22,22c0,0.6,0,1.2,0.1,1.8l-4,0.3
	c-0.1-0.7-0.1-1.4-0.1-2.1c0-14.3,11.7-26,26-26s26,11.7,26,26S-217.7,446.9-232.1,446.9z"/>
<polygon class="st1" points="-250.2,420.6 -256.1,429.2 -261.9,420.6 "/>
<circle class="st2" cx="-232.1" cy="420.9" r="2.5"/>
<g>
	<line class="st3" x1="-232.1" y1="418.9" x2="-232.1" y2="408.9"/>
	<rect x="-233.1" y="408.9" class="st2" width="2" height="10"/>
</g>
<g>
	<line class="st3" x1="-232.6" y1="421.4" x2="-244.6" y2="433.4"/>
	
		<rect x="-239.6" y="418.9" transform="matrix(0.7071 0.7071 -0.7071 0.7071 232.3326 293.8799)" class="st2" width="2" height="17"/>
</g>
</svg>
