<?xml version="1.0" encoding="utf-8"?>
<!-- Generator: Adobe Illustrator 19.1.0, SVG Export Plug-In . SVG Version: 6.00 Build 0)  -->
<svg version="1.1" xmlns="http://www.w3.org/2000/svg" xmlns:xlink="http://www.w3.org/1999/xlink" x="0px" y="0px"
	 viewBox="0 0 64 64" style="enable-background:new 0 0 64 64;" xml:space="preserve">
<style type="text/css">
	.st0{fill:#F4F5F6;}
	.st1{fill:#324149;}
	.st2{fill:#0797B1;}
	.st3{display:none;}
	.st4{display:inline;}
</style>
<g id="Icon">
	<g>
		<g>
			<path class="st0" d="M52.8,13.6c0-0.3,0-0.5-0.1-0.7c-0.1-1.4-1.2-2.6-2.7-2.6c-0.1,0-31.2,0-31.3,0c-1.8,0-3.3,1.5-3.3,3.3
				c0,0.1,0,34.1,0,34.1H10c0,0,0,2.6,0,2.7c0,1.5,1.2,2.7,2.7,2.7c0.1,0,8.9,0,16.5,0c6.9,0,14.9,0,14.9,0c0.2,0,0.5,0,0.7-0.1
				c1.5,0,2.7-1.2,2.7-2.7c0-0.1,0-34.7,0-34.7h5.4l0,0h0.1C52.8,15.7,52.8,13.9,52.8,13.6z"/>
			<path class="st1" d="M44,53.7c-0.1,0-8,0-14.9,0c-7.6,0-16.4,0-16.5,0c-1.8,0-3.2-1.4-3.2-3.2v-3.2h5.4V13.6
				c0-2.1,1.7-3.8,3.8-3.8c0.1,0,10.3,0,19.1,0l12.2,0c1.7,0,3.1,1.3,3.2,3.1c0.1,0.2,0.1,0.5,0.1,0.8v2.6h-5.4v34.2
				c0,1.7-1.4,3.2-3.2,3.2C44.5,53.6,44.3,53.7,44,53.7z M29.1,52.6c6.9,0,14.9,0,14.9,0c0.2,0,0.4,0,0.6-0.1c1.3,0,2.3-1,2.3-2.2
				V15.2h5.4v-1.6c0-0.2,0-0.4-0.1-0.6c-0.1-1.3-1-2.2-2.2-2.2l-12.2,0c-8.8,0-19,0-19.1,0c-1.6,0-2.8,1.3-2.8,2.8v34.6h-5.4v2.2
				c0,1.2,1,2.2,2.2,2.2C12.7,52.7,21.5,52.6,29.1,52.6z"/>
		</g>
		<path class="st1" d="M44.7,53.2c-1.5,0-2.7-1.2-2.7-2.7c0-0.2,0-2.7,0-2.7H10c0,0,0,2.6,0,2.7c0,1.5,1.2,2.7,2.7,2.7
			C12.7,53.2,44.8,53.2,44.7,53.2z"/>
		<path class="st1" d="M52.7,13c0-1.5-1.2-2.7-2.7-2.7c-2.6,0-3.3,1.2-3.3,2.7c0,0.2,0,2.7,0,2.7h6C52.7,15.7,52.7,13.2,52.7,13z"/>
		<g>
			<line class="st0" x1="29.1" y1="17.7" x2="40.8" y2="17.7"/>
			<rect x="29.1" y="17.2" class="st1" width="11.7" height="1"/>
		</g>
		<g>
			<line class="st0" x1="29.1" y1="23.1" x2="40.8" y2="23.1"/>
			<rect x="29.1" y="22.6" class="st1" width="11.7" height="1"/>
		</g>
		<g>
			<line class="st0" x1="29.1" y1="28.4" x2="40.8" y2="28.4"/>
			<rect x="29.1" y="27.9" class="st1" width="11.7" height="1"/>
		</g>
		<g>
			<line class="st0" x1="29.1" y1="33.8" x2="40.8" y2="33.8"/>
			<rect x="29.1" y="33.3" class="st1" width="11.7" height="1"/>
		</g>
		<g>
			<line class="st0" x1="29.1" y1="39.1" x2="40.8" y2="39.1"/>
			<rect x="29.1" y="38.6" class="st1" width="11.7" height="1"/>
		</g>
	</g>
	<g>
		<rect x="20.2" y="17.4" class="st0" width="5.2" height="5.2"/>
		<path class="st1" d="M25.9,23.1h-6.2v-6.2h6.2V23.1z M20.7,22.1h4.2v-4.2h-4.2V22.1z"/>
	</g>
	<g>
		<rect x="20.2" y="26.4" class="st0" width="5.2" height="5.2"/>
		<path class="st1" d="M25.9,32h-6.2v-6.2h6.2V32z M20.7,31h4.2v-4.2h-4.2V31z"/>
	</g>
	<g>
		<rect x="20.2" y="35.2" class="st0" width="5.2" height="5.2"/>
		<path class="st1" d="M25.9,40.9h-6.2v-6.2h6.2V40.9z M20.7,39.9h4.2v-4.2h-4.2V39.9z"/>
	</g>
	<polygon class="st2" points="23.5,22 21,19.3 22.5,17.9 23.6,19.2 27.3,15.9 28.6,17.4 	"/>
	<polygon class="st2" points="23.5,30.9 21,28.2 22.5,26.9 23.6,28.1 27.3,24.8 28.6,26.3 	"/>
	<polygon class="st2" points="23.5,39.7 21,37 22.5,35.7 23.6,36.9 27.3,33.6 28.6,35.1 	"/>
</g>
<g id="Guide" class="st3">
	<g class="st4">
		<g>
		</g>
	</g>
</g>
</svg>
