<?xml version="1.0" encoding="utf-8"?>
<!-- Generator: Adobe Illustrator 19.1.0, SVG Export Plug-In . SVG Version: 6.00 Build 0)  -->
<svg version="1.1" id="Layer_1" xmlns="http://www.w3.org/2000/svg" xmlns:xlink="http://www.w3.org/1999/xlink" x="0px" y="0px"
	 viewBox="-265 388.9 64 64" style="enable-background:new -265 388.9 64 64;" xml:space="preserve">
<style type="text/css">
	.st0{display:none;}
	.st1{fill:#314048;}
	.st2{fill:#0097B2;}
	.st3{fill:#FFFFFF;}
</style>
<g id="Guide" class="st0">
</g>
<g>
	<g>
		<path class="st1" d="M-232.6,421.3h-3c-7.5,0-13.6-6.1-13.6-13.6v-4.9c0-7.5,6.1-13.6,13.6-13.6h3c7.5,0,13.6,6.1,13.6,13.6v4.9
			C-219,415.3-225.1,421.3-232.6,421.3z"/>
	</g>
	<path class="st1" d="M-207.3,448.4c0-12.2-11.4-22.6-22.7-22.6h-8.2c-11.3,0-22.7,12.5-22.7,24.7v1.5h6.2h39.2"/>
</g>
<g>
	<g>
		<circle class="st2" cx="-216.1" cy="438.5" r="13.5"/>
		<path class="st3" d="M-216,452.5c-7.7,0-14-6.3-14-14s6.3-14,14-14s14,6.3,14,14S-208.3,452.5-216,452.5z M-216,425.5
			c-7.2,0-13,5.8-13,13s5.8,13,13,13s13-5.8,13-13S-208.9,425.5-216,425.5z"/>
	</g>
	<path class="st3" d="M-206,440.4v-3.8h-3.4c-0.1-0.5-0.4-1-0.6-1.5l2.4-2.4l-2.7-2.7l-2.4,2.4c-0.5-0.3-1-0.5-1.5-0.6v-3.4h-3.8
		v3.4c-0.5,0.1-1,0.4-1.5,0.6l-2.4-2.4l-2.7,2.7l2.4,2.4c-0.3,0.5-0.5,1-0.6,1.5h-3.4v3.8h3.4c0.1,0.5,0.4,1,0.6,1.5l-2.4,2.4
		l2.7,2.7l2.4-2.4c0.5,0.3,1,0.5,1.5,0.6v3.4h3.8v-3.4c0.5-0.1,1-0.4,1.5-0.6l2.4,2.4l2.7-2.7l-2.4-2.4c0.3-0.5,0.5-1,0.6-1.5H-206z
		 M-216.1,442.3c-2.1,0-3.8-1.7-3.8-3.8c0-2.1,1.7-3.8,3.8-3.8s3.8,1.7,3.8,3.8C-212.3,440.6-214,442.3-216.1,442.3z"/>
</g>
</svg>
