<?xml version="1.0" encoding="utf-8"?>
<!-- Generator: Adobe Illustrator 18.0.0, SVG Export Plug-In . SVG Version: 6.00 Build 0)  -->
<!DOCTYPE svg PUBLIC "-//W3C//DTD SVG 1.1//EN" "http://www.w3.org/Graphics/SVG/1.1/DTD/svg11.dtd">
<svg version="1.1" xmlns="http://www.w3.org/2000/svg" xmlns:xlink="http://www.w3.org/1999/xlink" x="0px" y="0px"
	 viewBox="0 0 64 64" enable-background="new 0 0 64 64" xml:space="preserve">
<g id="Layer_2">
</g>
<g id="Layer_1">
	<g id="Icon">
		<path fill="#FFFFFF" d="M42.7,40H7.5v2h30.7C39.5,41.2,41.1,40.5,42.7,40z"/>
		<rect x="9.7" y="9.5" fill="none" stroke="#FFFFFF" stroke-width="3" stroke-miterlimit="10" width="44.6" height="21"/>
		<line fill="none" stroke="#FFFFFF" stroke-width="2" stroke-miterlimit="10" x1="32" y1="32" x2="32" y2="44.1"/>
		<line fill="none" stroke="#FFFFFF" stroke-width="5" stroke-miterlimit="10" x1="9" y1="28" x2="55" y2="28"/>
		<line fill="none" stroke="#FFFFFF" stroke-width="2" stroke-miterlimit="10" x1="14" y1="40" x2="14" y2="44"/>
		<rect x="8.5" y="44.5" fill="none" stroke="#FFFFFF" stroke-width="2" stroke-miterlimit="10" width="11" height="11"/>
		<g>
			<g>
				<path fill="none" stroke="#FFFFFF" stroke-miterlimit="10" d="M32.5,56.5c0-8.8,6.9-16,15.5-16s15.5,7.2,15.5,16"/>
				<line fill="none" stroke="#FFFFFF" stroke-miterlimit="10" x1="32.5" y1="56" x2="63.5" y2="56"/>
			</g>
			<path fill="#FFFFFF" d="M45.1,56c0-1.7,1.3-3,2.9-3s2.9,1.3,2.9,3"/>
			<line fill="none" stroke="#FFFFFF" stroke-miterlimit="10" x1="48" y1="55.2" x2="55.8" y2="47.2"/>
		</g>
		<path fill="none" stroke="#FFFFFF" stroke-width="2" stroke-miterlimit="10" d="M34.3,44.5h-7.9v11H30
			C30,51.3,31.6,47.4,34.3,44.5z"/>
	</g>
	<g id="Guide" display="none">
	</g>
</g>
</svg>
