<?xml version="1.0" encoding="utf-8"?>
<!-- Generator: Adobe Illustrator 18.0.0, SVG Export Plug-In . SVG Version: 6.00 Build 0)  -->
<!DOCTYPE svg PUBLIC "-//W3C//DTD SVG 1.1//EN" "http://www.w3.org/Graphics/SVG/1.1/DTD/svg11.dtd">
<svg version="1.1" xmlns="http://www.w3.org/2000/svg" xmlns:xlink="http://www.w3.org/1999/xlink" x="0px" y="0px"
	 viewBox="0 0 64 64" enable-background="new 0 0 64 64" xml:space="preserve">
<g id="Layer_1">
	<rect fill="#ABABAB" width="64" height="64"/>
</g>
<g id="Layer_2">
	<circle fill="#19B24B" cx="46" cy="46" r="16"/>
	<path fill="#FFFFFF" d="M57.3,39.6l-2.9-3c-0.1-0.1-0.2-0.2-0.4-0.2c-0.2,0-0.3,0-0.4,0.2L42,48.2l-3.5-3.6c-0.3-0.2-0.5-0.2-0.8,0
		l-2.9,3c-0.1,0.1-0.2,0.2-0.2,0.4c0,0.2,0.1,0.3,0.2,0.4l6.9,6.9c0.1,0.1,0.3,0.2,0.4,0.2h0c0.2,0,0.3-0.1,0.4-0.2l14.9-14.9
		c0.1-0.1,0.2-0.3,0.2-0.4C57.5,39.9,57.4,39.7,57.3,39.6z"/>
	<path d="M36.5,60.1C32,57,29,51.9,29,46c0-9.4,7.6-17,17-17c2.1,0,4.1,0.4,6,1.1v-9.9h-7.5v-4.7H52v-5.3h-7.5V3h-25v7.2H12v5.3h7.5
		v4.7H12v39h7.5v0.8H36.5z"/>
</g>
</svg>
