<?xml version="1.0" encoding="utf-8"?>
<!-- Generator: Adobe Illustrator 15.1.0, SVG Export Plug-In . SVG Version: 6.00 Build 0)  -->
<!DOCTYPE svg PUBLIC "-//W3C//DTD SVG 1.1//EN" "http://www.w3.org/Graphics/SVG/1.1/DTD/svg11.dtd">
<svg version="1.1" id="Layer_1" xmlns="http://www.w3.org/2000/svg" xmlns:xlink="http://www.w3.org/1999/xlink" x="0px" y="0px"
	 width="350px" height="36px" viewBox="0 0 350 36" enable-background="new 0 0 350 36" xml:space="preserve">
<path fill="#B11F24" d="M36.37,17.702c0,9.941-8.059,18-18,18s-18-8.059-18-18s8.059-18,18-18S36.37,7.761,36.37,17.702"/>
<path fill="#A6C8D2" d="M33.022,22.955c-0.13,0-0.261-0.034-0.382-0.105c-1.054-0.621-3.804-2.066-6.567-2.066
	c-1.75,0-4.107,0.479-6.601,0.985c-2.865,0.582-5.821,1.183-8.385,1.183c-3.877,0-6.69-1.387-7.72-1.983
	c-0.359-0.21-0.482-0.67-0.273-1.028c0.208-0.359,0.668-0.483,1.028-0.274c0.924,0.536,3.453,1.781,6.965,1.781
	c2.413,0,5.293-0.585,8.08-1.151c2.576-0.523,5.003-1.017,6.906-1.017c3.133,0,6.171,1.591,7.332,2.275
	c0.358,0.212,0.477,0.673,0.266,1.03C33.531,22.822,33.28,22.955,33.022,22.955z"/>
<path fill="#A6C8D2" d="M33.022,18.938c-0.13,0-0.261-0.033-0.382-0.104c-1.054-0.622-3.805-2.068-6.567-2.068
	c-1.75,0-4.106,0.479-6.601,0.986c-2.862,0.581-5.82,1.182-8.385,1.182c-3.878,0-6.69-1.387-7.72-1.983
	c-0.359-0.208-0.482-0.67-0.273-1.028c0.208-0.359,0.668-0.482,1.028-0.274c0.924,0.536,3.452,1.781,6.965,1.781
	c2.414,0,5.296-0.585,8.084-1.15c2.573-0.524,5.001-1.017,6.902-1.017c3.133,0,6.171,1.591,7.332,2.274
	c0.358,0.212,0.477,0.673,0.266,1.031C33.531,18.807,33.28,18.938,33.022,18.938z"/>
<path fill="#FFFFFF" d="M33.022,14.799c-0.13,0-0.261-0.034-0.382-0.104c-1.054-0.621-3.804-2.067-6.567-2.067
	c-1.75,0-4.107,0.479-6.601,0.986c-2.865,0.581-5.821,1.182-8.385,1.182c-3.877,0-6.69-1.388-7.72-1.984
	c-0.359-0.209-0.482-0.669-0.273-1.027c0.208-0.36,0.668-0.482,1.028-0.274c0.924,0.536,3.453,1.781,6.965,1.781
	c2.413,0,5.293-0.585,8.08-1.151c2.576-0.523,5.003-1.016,6.906-1.016c3.133,0,6.171,1.59,7.332,2.274
	c0.358,0.212,0.477,0.673,0.266,1.031C33.531,14.666,33.28,14.799,33.022,14.799z"/>
<polygon fill="#FFFFFF" points="51.489,22.869 52.911,18.652 56.259,8.816 59.812,8.816 53.071,27.02 49.908,27.02 43.167,8.816 
	46.721,8.816 50.068,18.652 "/>
<path fill="#FFFFFF" d="M61.828,21.519c0.045,0.877,0.325,1.514,0.838,1.908c0.512,0.393,1.158,0.587,1.937,0.587
	c0.824,0,1.413-0.138,1.765-0.418c0.353-0.281,0.573-0.626,0.666-1.035l3.187,0.389c-0.077,0.502-0.229,0.983-0.458,1.442
	c-0.229,0.456-0.56,0.854-0.987,1.197c-0.429,0.343-0.979,0.618-1.649,0.823c-0.673,0.204-1.491,0.309-2.454,0.309
	c-1.956,0-3.47-0.518-4.539-1.553c-1.071-1.034-1.604-2.549-1.604-4.544c0-1.998,0.53-3.513,1.592-4.547
	c1.062-1.035,2.526-1.553,4.391-1.553c1.895,0,3.33,0.503,4.309,1.511c0.978,1.007,1.468,2.468,1.468,4.382v1.102H61.828z
	 M64.534,17.252c-0.765,0-1.385,0.145-1.857,0.433c-0.475,0.288-0.75,0.748-0.825,1.379h5.089
	C66.878,17.856,66.078,17.252,64.534,17.252"/>
<path fill="#FFFFFF" d="M78.426,14.524c0.442,0,0.829,0.002,1.158,0.008c0.327,0.004,0.615,0.01,0.859,0.016l-0.297,3.498
	c-0.123-0.099-0.333-0.2-0.632-0.311c-0.296-0.106-0.637-0.161-1.021-0.161c-0.381,0-0.752,0.062-1.11,0.188
	c-0.359,0.125-0.681,0.286-0.963,0.478c-0.283,0.197-0.524,0.423-0.722,0.679c-0.2,0.26-0.344,0.528-0.436,0.812v6.969h-3.094
	v-8.872l-0.208-3.278h2.866l0.253,1.717c0.397-0.53,0.876-0.951,1.444-1.266C77.088,14.684,77.722,14.524,78.426,14.524"/>
<path fill="#FFFFFF" d="M85.166,12.552h-3.438V9.115h3.438V12.552z M81.888,14.55h3.116v12.148h-3.116V14.55z"/>
<path fill="#FFFFFF" d="M86.608,14.55h2.155v-3.188l3.118-0.597v3.785h3.484v2.817h-3.484v4.439c0,0.809,0.133,1.34,0.4,1.596
	c0.268,0.258,0.684,0.385,1.25,0.385c0.381,0.03,0.734-0.006,1.055-0.112c0.322-0.103,0.558-0.189,0.711-0.26l0.298,2.939
	c-0.214,0.091-0.504,0.177-0.87,0.252c-0.368,0.076-0.781,0.114-1.239,0.114c-0.993,0-1.797-0.135-2.407-0.4
	c-0.611-0.265-1.089-0.617-1.434-1.056c-0.343-0.436-0.576-0.939-0.697-1.51c-0.123-0.569-0.185-1.152-0.185-1.744v-4.644h-2.155
	V14.55z"/>
<path fill="#FFFFFF" d="M96.812,23.179c0-0.632,0.105-1.156,0.321-1.579c0.213-0.421,0.516-0.77,0.906-1.042
	c0.389-0.271,0.858-0.487,1.41-0.645c0.549-0.155,1.168-0.278,1.856-0.364l3.713-0.494v-0.241c0-1.042-0.781-1.562-2.338-1.562
	c-0.826,0-1.395,0.135-1.708,0.405c-0.313,0.271-0.509,0.639-0.584,1.107l-3.187-0.374c0.092-0.549,0.241-1.057,0.447-1.523
	c0.207-0.462,0.512-0.87,0.916-1.221c0.406-0.353,0.934-0.625,1.582-0.826c0.65-0.195,1.465-0.296,2.443-0.296
	c1.727,0,3.083,0.362,4.068,1.086c0.985,0.723,1.479,1.859,1.479,3.414v4.475l0.207,3.199h-2.865l-0.253-1.702
	c-0.458,0.548-1.041,0.972-1.742,1.273c-0.704,0.301-1.512,0.451-2.431,0.451c-0.749,0-1.39-0.089-1.924-0.27
	c-0.537-0.178-0.976-0.421-1.318-0.728c-0.346-0.309-0.598-0.681-0.758-1.12C96.891,24.17,96.812,23.693,96.812,23.179
	 M100.113,22.932c0,0.362,0.138,0.643,0.413,0.836c0.274,0.195,0.656,0.294,1.146,0.294c0.442,0,0.851-0.059,1.225-0.176
	c0.376-0.116,0.706-0.27,0.999-0.463c0.288-0.191,0.531-0.405,0.721-0.646c0.191-0.238,0.325-0.478,0.402-0.709v-0.895l-3.233,0.481
	c-0.625,0.099-1.062,0.243-1.307,0.429C100.233,22.271,100.113,22.555,100.113,22.932"/>
<path fill="#FFFFFF" d="M115.288,24.039c0.671,0,1.251-0.093,1.742-0.281c0.488-0.186,0.726-0.522,0.711-1.014
	c0-0.242-0.062-0.426-0.185-0.55c-0.123-0.121-0.297-0.216-0.526-0.28c-0.229-0.064-0.509-0.097-0.837-0.097s-0.7-0.022-1.112-0.066
	c-0.596-0.043-1.188-0.104-1.775-0.184c-0.59-0.081-1.121-0.237-1.594-0.47c-0.475-0.233-0.859-0.565-1.158-0.993
	c-0.299-0.431-0.447-1.016-0.447-1.759c0-0.728,0.164-1.334,0.493-1.823c0.329-0.487,0.746-0.882,1.251-1.179
	c0.503-0.298,1.065-0.51,1.685-0.633c0.618-0.122,1.226-0.187,1.821-0.187c1.742,0,3.037,0.312,3.886,0.931
	c0.847,0.622,1.355,1.575,1.525,2.862l-3.164,0.375c-0.077-0.461-0.279-0.822-0.607-1.088c-0.329-0.266-0.875-0.396-1.64-0.396
	c-0.244,0-0.48,0.021-0.71,0.064c-0.23,0.042-0.435,0.106-0.618,0.193c-0.185,0.086-0.331,0.205-0.438,0.356
	c-0.105,0.152-0.158,0.342-0.158,0.57c0,0.203,0.06,0.356,0.183,0.465c0.122,0.107,0.286,0.189,0.493,0.246
	c0.206,0.059,0.461,0.104,0.768,0.133c0.304,0.026,0.642,0.064,1.008,0.108c0.61,0.057,1.219,0.121,1.822,0.193
	c0.603,0.069,1.15,0.22,1.64,0.441c0.488,0.222,0.886,0.559,1.192,1.002c0.306,0.445,0.458,1.073,0.458,1.877
	c0,0.733-0.168,1.346-0.505,1.834c-0.335,0.489-0.775,0.886-1.317,1.187c-0.544,0.304-1.155,0.52-1.834,0.648
	c-0.68,0.127-1.364,0.193-2.051,0.193c-1.849,0-3.203-0.342-4.058-1.02c-0.857-0.683-1.353-1.626-1.491-2.826l3.187-0.373
	c0.092,0.506,0.313,0.889,0.664,1.146C113.943,23.91,114.507,24.039,115.288,24.039"/>
<path fill="#FFFFFF" d="M123.217,12.246h-0.961V9.562h-1.055V8.639h3.072v0.923h-1.056V12.246z M126.371,12.246l-0.56-1.667
	l-0.147-0.443l0.013,0.495v1.615h-0.989V8.639h1.364l0.614,1.846l0.161,0.521l0.159-0.521l0.616-1.846h1.364v3.607h-0.989v-1.615
	l0.012-0.495l-0.146,0.443l-0.562,1.667H126.371z"/>
<polygon fill="#FFFFFF" points="139.628,14.893 137.519,11.639 137.611,17.758 137.611,26.698 135.983,26.698 135.983,8.818 
	137.427,8.818 145.407,20.624 147.515,23.876 147.424,17.758 147.424,8.818 149.05,8.818 149.05,26.698 147.607,26.698 "/>
<path fill="#FFFFFF" d="M156.869,14.524c1.773,0,3.07,0.514,3.896,1.541c0.825,1.027,1.239,2.483,1.239,4.365v0.581h-9.057
	c0.079,1.537,0.475,2.645,1.193,3.319c0.717,0.676,1.637,1.014,2.752,1.014c1.085,0,1.883-0.212,2.395-0.639
	c0.513-0.425,0.853-0.997,1.02-1.71l1.629,0.205c-0.092,0.474-0.257,0.923-0.494,1.348c-0.237,0.428-0.558,0.802-0.961,1.122
	c-0.405,0.318-0.907,0.574-1.503,0.766c-0.596,0.189-1.3,0.284-2.108,0.284c-1.698,0-3.042-0.504-4.036-1.519
	c-0.993-1.014-1.491-2.539-1.491-4.578c0-2.042,0.498-3.567,1.491-4.581C153.827,15.031,155.171,14.524,156.869,14.524
	 M156.869,15.878c-1.116,0-2.028,0.298-2.74,0.893c-0.711,0.597-1.103,1.56-1.182,2.889h7.405c-0.03-1.206-0.321-2.138-0.871-2.796
	C158.932,16.208,158.06,15.878,156.869,15.878"/>
<path fill="#FFFFFF" d="M162.966,14.55h2.202v-3.097l1.511-0.504v3.601h3.736v1.419h-3.736v6.056c0,0.673,0.05,1.222,0.15,1.646
	c0.098,0.429,0.26,0.762,0.48,0.999c0.222,0.238,0.497,0.401,0.825,0.483c0.329,0.083,0.722,0.123,1.181,0.123
	c0.275,0,0.509-0.026,0.7-0.079c0.191-0.056,0.333-0.098,0.424-0.126l0.183,1.466c-0.169,0.062-0.375,0.107-0.62,0.138
	c-0.242,0.03-0.473,0.046-0.687,0.046c-0.902,0-1.623-0.127-2.166-0.383c-0.542-0.254-0.962-0.599-1.26-1.035
	c-0.298-0.436-0.493-0.933-0.584-1.497c-0.092-0.561-0.137-1.148-0.137-1.765v-6.072h-2.202V14.55z"/>
<path fill="#FFFFFF" d="M172.547,26.698V8.816h7.084c0.505,0,1.041,0.064,1.604,0.195c0.567,0.131,1.085,0.367,1.561,0.711
	c0.475,0.345,0.862,0.82,1.168,1.431c0.307,0.614,0.46,1.394,0.46,2.341c0,0.627-0.078,1.173-0.23,1.637
	c-0.152,0.469-0.348,0.857-0.584,1.172c-0.237,0.311-0.493,0.557-0.768,0.731c-0.275,0.176-0.534,0.303-0.779,0.381
	c0.381,0.076,0.752,0.216,1.111,0.425c0.359,0.204,0.677,0.486,0.952,0.845c0.274,0.36,0.496,0.794,0.664,1.308
	c0.168,0.512,0.253,1.113,0.253,1.799c0,1.01-0.145,1.835-0.437,2.478c-0.289,0.64-0.68,1.143-1.168,1.501
	c-0.489,0.359-1.052,0.604-1.687,0.733c-0.634,0.131-1.296,0.195-1.982,0.195H172.547z M174.152,10.328v6.444h5.229
	c0.503,0,0.962-0.045,1.375-0.139c0.412-0.091,0.76-0.259,1.044-0.504c0.281-0.246,0.502-0.582,0.663-1.01
	c0.161-0.427,0.241-0.969,0.241-1.626c0-0.658-0.075-1.194-0.229-1.605c-0.154-0.413-0.371-0.735-0.653-0.965
	c-0.282-0.228-0.63-0.385-1.044-0.47c-0.412-0.081-0.878-0.126-1.396-0.126H174.152z M179.564,25.186
	c0.382,0,0.794-0.026,1.236-0.08c0.444-0.055,0.853-0.193,1.227-0.415c0.375-0.218,0.684-0.557,0.928-1.008
	c0.244-0.449,0.366-1.08,0.366-1.892c0-0.792-0.11-1.423-0.331-1.892c-0.222-0.466-0.507-0.816-0.859-1.054
	c-0.353-0.234-0.745-0.391-1.18-0.458c-0.436-0.068-0.861-0.103-1.273-0.103h-5.525v6.9H179.564z"/>
<path fill="#FFFFFF" d="M186.691,23.37c0-0.604,0.111-1.109,0.333-1.521s0.535-0.752,0.94-1.025
	c0.403-0.272,0.895-0.484,1.468-0.639c0.573-0.155,1.203-0.284,1.891-0.385l4.173-0.597v-0.558c0-1.026-0.317-1.737-0.952-2.132
	c-0.634-0.394-1.494-0.591-2.579-0.591c-1.023,0-1.769,0.2-2.236,0.603c-0.465,0.399-0.781,0.965-0.951,1.696l-1.58-0.22
	c0.106-0.512,0.267-0.982,0.482-1.41c0.213-0.431,0.504-0.796,0.869-1.098c0.367-0.3,0.829-0.536,1.389-0.711
	c0.557-0.172,1.233-0.26,2.027-0.26c1.575,0,2.802,0.35,3.68,1.051c0.879,0.695,1.317,1.761,1.317,3.188v5.14l0.138,2.796h-1.328
	l-0.275-2.25c-0.184,0.33-0.437,0.637-0.758,0.923s-0.685,0.525-1.088,0.721c-0.405,0.194-0.841,0.349-1.307,0.458
	c-0.468,0.114-0.936,0.171-1.411,0.171c-1.435,0-2.501-0.294-3.197-0.88C187.04,25.25,186.691,24.43,186.691,23.37 M188.251,23.334
	c0,0.699,0.229,1.207,0.688,1.52c0.458,0.311,1.123,0.471,1.993,0.471c0.644,0,1.238-0.106,1.79-0.318
	c0.551-0.213,1.027-0.479,1.432-0.799c0.403-0.32,0.725-0.68,0.964-1.08c0.236-0.401,0.362-0.784,0.378-1.148v-1.529l-4.195,0.635
	c-0.429,0.057-0.826,0.135-1.193,0.228c-0.367,0.097-0.688,0.224-0.962,0.385c-0.276,0.159-0.492,0.371-0.652,0.633
	C188.331,22.593,188.251,22.927,188.251,23.334"/>
<path fill="#FFFFFF" d="M200.378,20.624c0,1.521,0.337,2.686,1.009,3.49c0.674,0.806,1.611,1.21,2.819,1.21
	c1.04,0,1.816-0.195,2.329-0.582c0.511-0.385,0.852-0.935,1.02-1.647l1.627,0.195c-0.106,0.504-0.278,0.971-0.516,1.394
	c-0.237,0.422-0.555,0.78-0.951,1.078c-0.399,0.297-0.883,0.53-1.456,0.703c-0.574,0.17-1.25,0.256-2.029,0.256
	c-1.712,0-3.046-0.531-4.001-1.598c-0.955-1.063-1.431-2.564-1.431-4.499c0-1.938,0.476-3.437,1.431-4.502
	c0.955-1.064,2.289-1.598,4.001-1.598c0.779,0,1.455,0.088,2.029,0.26c0.573,0.175,1.057,0.411,1.456,0.711
	c0.396,0.302,0.714,0.667,0.951,1.098c0.237,0.428,0.409,0.898,0.516,1.412l-1.627,0.192c-0.168-0.728-0.509-1.288-1.02-1.683
	c-0.513-0.394-1.289-0.591-2.329-0.591c-1.208,0-2.146,0.401-2.819,1.207C200.715,17.937,200.378,19.1,200.378,20.624"/>
<polygon fill="#FFFFFF" points="210.944,26.698 210.944,8.357 212.458,8.357 212.458,20.646 214.774,18.283 218.512,14.55 
	220.689,14.55 215.392,19.706 221.537,26.698 219.449,26.698 214.361,20.715 212.458,22.572 212.458,26.698 "/>
<path fill="#FFFFFF" d="M230.729,24.456c-0.396,0.663-0.959,1.209-1.685,1.63c-0.727,0.422-1.548,0.635-2.465,0.635
	c-0.627,0-1.215-0.086-1.765-0.258c-0.551-0.173-1.027-0.421-1.433-0.745c-0.405-0.322-0.724-0.726-0.953-1.205
	c-0.228-0.481-0.342-1.021-0.342-1.624V14.55h1.513v7.982c0,0.9,0.293,1.582,0.882,2.047c0.589,0.464,1.362,0.697,2.328,0.697
	c0.565,0,1.083-0.106,1.558-0.314c0.475-0.211,0.884-0.479,1.227-0.81c0.344-0.33,0.614-0.697,0.815-1.103
	c0.198-0.406,0.304-0.796,0.319-1.17v-7.33h1.514v9.328l0.138,2.82h-1.376L230.729,24.456z"/>
<path fill="#FFFFFF" d="M236.048,31.284h-1.514V17.391l-0.139-2.841h1.376l0.276,2.293c0.396-0.688,0.951-1.247,1.661-1.676
	c0.711-0.43,1.516-0.643,2.418-0.643c1.713,0,3.037,0.533,3.979,1.598c0.94,1.065,1.41,2.564,1.41,4.502
	c0,1.935-0.47,3.436-1.41,4.499c-0.941,1.066-2.266,1.598-3.979,1.598c-0.902,0-1.707-0.211-2.418-0.629
	c-0.71-0.421-1.265-0.963-1.661-1.623V31.284z M243.909,20.624c0-1.507-0.34-2.661-1.021-3.459c-0.68-0.796-1.614-1.196-2.807-1.196
	c-0.61,0-1.166,0.103-1.662,0.308c-0.497,0.204-0.917,0.468-1.263,0.792c-0.342,0.32-0.61,0.677-0.8,1.063
	c-0.193,0.388-0.294,0.772-0.31,1.152v2.678c0.016,0.365,0.116,0.746,0.31,1.143c0.189,0.395,0.458,0.754,0.8,1.072
	c0.346,0.324,0.766,0.588,1.263,0.793c0.496,0.204,1.052,0.309,1.662,0.309c1.192,0,2.127-0.401,2.807-1.198
	C243.569,23.284,243.909,22.129,243.909,20.624"/>
<path fill="#FFFFFF" d="M257.252,8.587h1.744l6.898,18.111h-1.766l-2.107-5.663h-7.795l-2.11,5.663h-1.763L257.252,8.587z
	 M256.497,14.915l-1.721,4.607h6.672l-1.698-4.607l-1.627-4.54L256.497,14.915z"/>
<path fill="#FFFFFF" d="M268.577,31.284h-1.513V17.391l-0.139-2.841h1.375l0.276,2.293c0.397-0.688,0.951-1.247,1.661-1.676
	c0.712-0.43,1.517-0.643,2.419-0.643c1.713,0,3.038,0.533,3.979,1.598c0.94,1.065,1.41,2.564,1.41,4.502
	c0,1.935-0.47,3.436-1.41,4.499c-0.94,1.066-2.266,1.598-3.979,1.598c-0.902,0-1.707-0.211-2.419-0.629
	c-0.71-0.421-1.264-0.963-1.661-1.623V31.284z M276.438,20.624c0-1.507-0.339-2.661-1.02-3.459
	c-0.682-0.796-1.615-1.196-2.807-1.196c-0.611,0-1.167,0.103-1.662,0.308c-0.497,0.204-0.918,0.468-1.263,0.792
	c-0.342,0.32-0.61,0.677-0.801,1.063c-0.192,0.388-0.294,0.772-0.31,1.152v2.678c0.016,0.365,0.117,0.746,0.31,1.143
	c0.19,0.395,0.459,0.754,0.801,1.072c0.345,0.324,0.766,0.588,1.263,0.793c0.495,0.204,1.051,0.309,1.662,0.309
	c1.191,0,2.125-0.401,2.807-1.198C276.1,23.284,276.438,22.129,276.438,20.624"/>
<path fill="#FFFFFF" d="M281.392,31.284h-1.513V17.391l-0.138-2.841h1.376l0.274,2.293c0.397-0.688,0.951-1.247,1.661-1.676
	c0.712-0.43,1.518-0.643,2.42-0.643c1.712,0,3.037,0.533,3.978,1.598c0.939,1.065,1.41,2.564,1.41,4.502
	c0,1.935-0.471,3.436-1.41,4.499c-0.94,1.066-2.266,1.598-3.978,1.598c-0.902,0-1.708-0.211-2.42-0.629
	c-0.71-0.421-1.264-0.963-1.661-1.623V31.284z M289.255,20.624c0-1.507-0.341-2.661-1.021-3.459
	c-0.68-0.796-1.615-1.196-2.808-1.196c-0.609,0-1.164,0.103-1.661,0.308c-0.497,0.204-0.916,0.468-1.263,0.792
	c-0.343,0.32-0.608,0.677-0.8,1.063c-0.192,0.388-0.295,0.772-0.311,1.152v2.678c0.016,0.365,0.118,0.746,0.311,1.143
	c0.191,0.395,0.457,0.754,0.8,1.072c0.347,0.324,0.766,0.588,1.263,0.793c0.497,0.204,1.052,0.309,1.661,0.309
	c1.192,0,2.128-0.401,2.808-1.198C288.914,23.284,289.255,22.129,289.255,20.624"/>
<rect x="293.198" y="8.357" fill="#FFFFFF" width="1.515" height="18.341"/>
<path fill="#FFFFFF" d="M299.756,11.729h-1.975V9.756h1.975V11.729z M298.013,14.55h1.514v12.148h-1.514V14.55z"/>
<path fill="#FFFFFF" d="M301.908,23.37c0-0.604,0.112-1.109,0.332-1.521c0.224-0.411,0.536-0.752,0.939-1.025
	c0.406-0.272,0.895-0.484,1.469-0.639c0.573-0.155,1.204-0.284,1.89-0.385l4.174-0.597v-0.558c0-1.026-0.316-1.737-0.95-2.132
	c-0.637-0.394-1.495-0.591-2.581-0.591c-1.021,0-1.77,0.2-2.236,0.603c-0.464,0.399-0.78,0.965-0.951,1.696l-1.582-0.22
	c0.107-0.512,0.269-0.982,0.484-1.41c0.211-0.431,0.503-0.796,0.87-1.098c0.366-0.3,0.828-0.536,1.386-0.711
	c0.559-0.172,1.233-0.26,2.029-0.26c1.575,0,2.8,0.35,3.681,1.051c0.878,0.695,1.317,1.761,1.317,3.188v5.14l0.139,2.796h-1.329
	l-0.276-2.25c-0.183,0.33-0.437,0.637-0.757,0.923s-0.686,0.525-1.089,0.721c-0.404,0.194-0.84,0.349-1.307,0.458
	c-0.468,0.114-0.936,0.171-1.409,0.171c-1.436,0-2.502-0.294-3.197-0.88C302.257,25.25,301.908,24.43,301.908,23.37 M303.468,23.334
	c0,0.699,0.229,1.207,0.688,1.52c0.459,0.311,1.12,0.471,1.994,0.471c0.642,0,1.239-0.106,1.789-0.318
	c0.549-0.213,1.026-0.479,1.433-0.799c0.401-0.32,0.724-0.68,0.961-1.08c0.236-0.401,0.363-0.784,0.379-1.148v-1.529l-4.196,0.635
	c-0.428,0.057-0.824,0.135-1.192,0.228c-0.365,0.097-0.688,0.224-0.962,0.385c-0.275,0.159-0.493,0.371-0.652,0.633
	C303.548,22.593,303.468,22.927,303.468,23.334"/>
<path fill="#FFFFFF" d="M315.986,16.926c0.396-0.703,0.957-1.279,1.685-1.73c0.724-0.445,1.547-0.671,2.464-0.671
	c0.623,0,1.213,0.088,1.767,0.26c0.549,0.173,1.025,0.419,1.431,0.745c0.403,0.322,0.72,0.72,0.951,1.194
	c0.229,0.474,0.343,1.018,0.343,1.635v8.34h-1.514v-7.985c0-0.899-0.292-1.582-0.882-2.047c-0.587-0.464-1.362-0.697-2.327-0.697
	c-0.564,0-1.082,0.106-1.558,0.314c-0.474,0.211-0.883,0.481-1.227,0.81c-0.343,0.33-0.613,0.697-0.814,1.104
	c-0.199,0.405-0.304,0.796-0.318,1.169v7.333h-1.517v-9.331l-0.137-2.819h1.374L315.986,16.926z"/>
<path fill="#FFFFFF" d="M327.835,20.624c0,1.521,0.337,2.686,1.008,3.49c0.673,0.806,1.613,1.21,2.82,1.21
	c1.041,0,1.815-0.195,2.327-0.582c0.512-0.385,0.854-0.935,1.02-1.647l1.63,0.195c-0.109,0.504-0.28,0.971-0.517,1.394
	c-0.237,0.422-0.554,0.78-0.952,1.078c-0.397,0.297-0.883,0.53-1.455,0.703c-0.572,0.17-1.251,0.256-2.028,0.256
	c-1.711,0-3.045-0.531-4.002-1.598c-0.953-1.063-1.432-2.564-1.432-4.499c0-1.938,0.479-3.437,1.432-4.502
	c0.957-1.064,2.291-1.598,4.002-1.598c0.777,0,1.456,0.088,2.028,0.26c0.572,0.175,1.058,0.411,1.455,0.711
	c0.398,0.302,0.715,0.667,0.952,1.098c0.236,0.428,0.407,0.898,0.517,1.412l-1.63,0.192c-0.166-0.728-0.508-1.288-1.02-1.683
	c-0.512-0.394-1.286-0.591-2.327-0.591c-1.207,0-2.147,0.401-2.82,1.207C328.172,17.937,327.835,19.1,327.835,20.624"/>
<path fill="#FFFFFF" d="M343.471,14.524c1.773,0,3.07,0.514,3.896,1.541s1.239,2.483,1.239,4.365v0.581h-9.058
	c0.078,1.537,0.477,2.645,1.194,3.319c0.717,0.676,1.636,1.014,2.75,1.014c1.084,0,1.884-0.212,2.396-0.639
	c0.512-0.425,0.853-0.997,1.02-1.71l1.628,0.205c-0.091,0.474-0.256,0.923-0.494,1.348c-0.235,0.428-0.558,0.802-0.959,1.122
	c-0.408,0.318-0.908,0.574-1.503,0.766c-0.598,0.189-1.301,0.284-2.109,0.284c-1.696,0-3.042-0.504-4.035-1.519
	c-0.993-1.014-1.491-2.539-1.491-4.578c0-2.042,0.498-3.567,1.491-4.581C340.429,15.031,341.774,14.524,343.471,14.524
	 M343.471,15.878c-1.116,0-2.028,0.298-2.74,0.893c-0.711,0.597-1.104,1.56-1.182,2.889h7.407c-0.034-1.206-0.324-2.138-0.872-2.796
	C345.532,16.208,344.662,15.878,343.471,15.878"/>
</svg>
