<?xml version="1.0" encoding="utf-8"?>
<!-- Generator: Adobe Illustrator 19.1.0, SVG Export Plug-In . SVG Version: 6.00 Build 0)  -->
<svg version="1.1" id="Layer_1" xmlns="http://www.w3.org/2000/svg" xmlns:xlink="http://www.w3.org/1999/xlink" x="0px" y="0px"
	 viewBox="143 15 350 36" style="enable-background:new 143 15 350 36;" xml:space="preserve">
<style type="text/css">
	.st0{fill:#B11F24;}
	.st1{fill:#A6C8D2;}
	.st2{fill:#FFFFFF;}
	.st3{fill:#333333;}
</style>
<path class="st0" d="M179.4,32.7c0,9.9-8.1,18-18,18c-9.9,0-18-8.1-18-18s8.1-18,18-18C171.3,14.7,179.4,22.8,179.4,32.7"/>
<path class="st1" d="M176,38c-0.1,0-0.3,0-0.4-0.1c-1.1-0.6-3.8-2.1-6.6-2.1c-1.8,0-4.1,0.5-6.6,1c-2.9,0.6-5.8,1.2-8.4,1.2
	c-3.9,0-6.7-1.4-7.7-2c-0.4-0.2-0.5-0.7-0.3-1c0.2-0.4,0.7-0.5,1-0.3c0.9,0.5,3.5,1.8,7,1.8c2.4,0,5.3-0.6,8.1-1.2
	c2.6-0.5,5-1,6.9-1c3.1,0,6.2,1.6,7.3,2.3c0.4,0.2,0.5,0.7,0.3,1C176.5,37.8,176.3,38,176,38z"/>
<path class="st1" d="M176,33.9c-0.1,0-0.3,0-0.4-0.1c-1.1-0.6-3.8-2.1-6.6-2.1c-1.8,0-4.1,0.5-6.6,1c-2.9,0.6-5.8,1.2-8.4,1.2
	c-3.9,0-6.7-1.4-7.7-2c-0.4-0.2-0.5-0.7-0.3-1c0.2-0.4,0.7-0.5,1-0.3c0.9,0.5,3.5,1.8,7,1.8c2.4,0,5.3-0.6,8.1-1.1
	c2.6-0.5,5-1,6.9-1c3.1,0,6.2,1.6,7.3,2.3c0.4,0.2,0.5,0.7,0.3,1C176.5,33.8,176.3,33.9,176,33.9z"/>
<path class="st2" d="M176,29.8c-0.1,0-0.3,0-0.4-0.1c-1.1-0.6-3.8-2.1-6.6-2.1c-1.8,0-4.1,0.5-6.6,1c-2.9,0.6-5.8,1.2-8.4,1.2
	c-3.9,0-6.7-1.4-7.7-2c-0.4-0.2-0.5-0.7-0.3-1c0.2-0.4,0.7-0.5,1-0.3c0.9,0.5,3.5,1.8,7,1.8c2.4,0,5.3-0.6,8.1-1.2
	c2.6-0.5,5-1,6.9-1c3.1,0,6.2,1.6,7.3,2.3c0.4,0.2,0.5,0.7,0.3,1C176.5,29.7,176.3,29.8,176,29.8z"/>
<polygon class="st3" points="194.5,37.9 195.9,33.7 199.3,23.8 202.8,23.8 196.1,42 192.9,42 186.2,23.8 189.7,23.8 193.1,33.7 "/>
<path class="st3" d="M204.8,36.5c0,0.9,0.3,1.5,0.8,1.9c0.5,0.4,1.2,0.6,1.9,0.6c0.8,0,1.4-0.1,1.8-0.4c0.4-0.3,0.6-0.6,0.7-1
	l3.2,0.4c-0.1,0.5-0.2,1-0.5,1.4c-0.2,0.5-0.6,0.9-1,1.2c-0.4,0.3-1,0.6-1.6,0.8c-0.7,0.2-1.5,0.3-2.5,0.3c-2,0-3.5-0.5-4.5-1.6
	c-1.1-1-1.6-2.5-1.6-4.5s0.5-3.5,1.6-4.5c1.1-1,2.5-1.6,4.4-1.6s3.3,0.5,4.3,1.5s1.5,2.5,1.5,4.4v1.1
	C213.3,36.5,204.8,36.5,204.8,36.5z M207.5,32.3c-0.8,0-1.4,0.1-1.9,0.4c-0.5,0.3-0.8,0.7-0.8,1.4h5.1
	C209.9,32.9,209.1,32.3,207.5,32.3"/>
<path class="st3" d="M221.4,29.5c0.4,0,0.8,0,1.2,0c0.3,0,0.6,0,0.9,0l-0.4,3.5c-0.1-0.1-0.3-0.2-0.6-0.3c-0.3-0.1-0.6-0.2-1-0.2
	s-0.8,0.1-1.1,0.2c-0.4,0.1-0.7,0.3-1,0.5c-0.3,0.2-0.5,0.4-0.7,0.7c-0.2,0.3-0.3,0.5-0.4,0.8v7h-3.1v-8.9l-0.2-3.2h2.9l0.3,1.7
	c0.4-0.5,0.9-1,1.4-1.3C220.1,29.7,220.7,29.5,221.4,29.5"/>
<path class="st3" d="M228.2,27.6h-3.4v-3.5h3.4V27.6z M224.9,29.6h3.1v12.1h-3.1V29.6z"/>
<path class="st3" d="M229.6,29.6h2.2v-3.2l3.1-0.6v3.8h3.5v2.8h-3.5v4.4c0,0.8,0.1,1.3,0.4,1.6c0.3,0.3,0.7,0.4,1.2,0.4
	c0.4,0,0.7,0,1.1-0.1c0.3-0.1,0.6-0.2,0.7-0.3l0.3,2.9c-0.2,0.1-0.5,0.2-0.9,0.3c-0.4,0.1-0.8,0.1-1.2,0.1c-1,0-1.8-0.1-2.4-0.4
	s-1.1-0.6-1.4-1.1c-0.3-0.4-0.6-0.9-0.7-1.5c-0.1-0.6-0.2-1.2-0.2-1.7v-4.6h-2.2V29.6z"/>
<path class="st3" d="M239.8,38.2c0-0.6,0.1-1.2,0.3-1.6c0.2-0.4,0.5-0.8,0.9-1c0.4-0.3,0.9-0.5,1.4-0.6c0.5-0.2,1.2-0.3,1.9-0.4
	l3.7-0.5v-0.2c0-1-0.8-1.6-2.3-1.6c-0.8,0-1.4,0.1-1.7,0.4c-0.3,0.3-0.5,0.6-0.6,1.1l-3.2-0.4c0.1-0.5,0.2-1.1,0.4-1.5
	c0.2-0.5,0.5-0.9,0.9-1.2c0.4-0.4,0.9-0.6,1.6-0.8c0.7-0.2,1.5-0.3,2.4-0.3c1.7,0,3.1,0.4,4.1,1.1c1,0.7,1.5,1.9,1.5,3.4v4.5
	l0.2,3.2h-2.9l-0.3-1.7c-0.5,0.5-1,1-1.7,1.3c-0.7,0.3-1.5,0.5-2.4,0.5c-0.7,0-1.4-0.1-1.9-0.3c-0.5-0.2-1-0.4-1.3-0.7
	c-0.3-0.3-0.6-0.7-0.8-1.1C239.9,39.2,239.8,38.7,239.8,38.2 M243.1,37.9c0,0.4,0.1,0.6,0.4,0.8c0.3,0.2,0.7,0.3,1.1,0.3
	c0.4,0,0.9-0.1,1.2-0.2c0.4-0.1,0.7-0.3,1-0.5c0.3-0.2,0.5-0.4,0.7-0.6c0.2-0.2,0.3-0.5,0.4-0.7v-0.9l-3.2,0.5
	c-0.6,0.1-1.1,0.2-1.3,0.4C243.2,37.3,243.1,37.6,243.1,37.9"/>
<path class="st3" d="M258.3,39c0.7,0,1.3-0.1,1.7-0.3c0.5-0.2,0.7-0.5,0.7-1c0-0.2-0.1-0.4-0.2-0.5s-0.3-0.2-0.5-0.3
	s-0.5-0.1-0.8-0.1c-0.3,0-0.7,0-1.1-0.1c-0.6,0-1.2-0.1-1.8-0.2c-0.6-0.1-1.1-0.2-1.6-0.5c-0.5-0.2-0.9-0.6-1.2-1
	c-0.3-0.4-0.4-1-0.4-1.8c0-0.7,0.2-1.3,0.5-1.8c0.3-0.5,0.7-0.9,1.3-1.2c0.5-0.3,1.1-0.5,1.7-0.6c0.6-0.1,1.2-0.2,1.8-0.2
	c1.7,0,3,0.3,3.9,0.9c0.8,0.6,1.4,1.6,1.5,2.9l-3.2,0.4c-0.1-0.5-0.3-0.8-0.6-1.1c-0.3-0.3-0.9-0.4-1.6-0.4c-0.2,0-0.5,0-0.7,0.1
	c-0.2,0-0.4,0.1-0.6,0.2c-0.2,0.1-0.3,0.2-0.4,0.4c-0.1,0.2-0.2,0.3-0.2,0.6c0,0.2,0.1,0.4,0.2,0.5s0.3,0.2,0.5,0.2
	c0.2,0.1,0.5,0.1,0.8,0.1c0.3,0,0.6,0.1,1,0.1c0.6,0.1,1.2,0.1,1.8,0.2s1.2,0.2,1.6,0.4c0.5,0.2,0.9,0.6,1.2,1
	c0.3,0.4,0.5,1.1,0.5,1.9c0,0.7-0.2,1.3-0.5,1.8c-0.3,0.5-0.8,0.9-1.3,1.2c-0.5,0.3-1.2,0.5-1.8,0.6c-0.7,0.1-1.4,0.2-2.1,0.2
	c-1.8,0-3.2-0.3-4.1-1c-0.9-0.7-1.4-1.6-1.5-2.8l3.2-0.4c0.1,0.5,0.3,0.9,0.7,1.1C256.9,38.9,257.5,39,258.3,39"/>
<path class="st3" d="M266.2,27.2h-1v-2.6h-1.1v-1h3.1v0.9h-1.1v2.7H266.2z M269.4,27.2l-0.6-1.7l-0.1-0.4v0.5v1.6h-1v-3.6h1.4
	l0.6,1.8l0.2,0.5l0.2-0.5l0.6-1.8h1.4v3.6h-1v-1.6v-0.5l-0.1,0.4l-0.6,1.7H269.4z"/>
<polygon class="st3" points="282.6,29.9 280.5,26.6 280.6,32.8 280.6,41.7 279,41.7 279,23.8 280.4,23.8 288.4,35.6 290.5,38.9 
	290.4,32.8 290.4,23.8 292.1,23.8 292.1,41.7 290.6,41.7 "/>
<path class="st3" d="M299.9,29.5c1.8,0,3.1,0.5,3.9,1.5s1.2,2.5,1.2,4.4V36h-9.1c0.1,1.5,0.5,2.6,1.2,3.3s1.6,1,2.8,1
	c1.1,0,1.9-0.2,2.4-0.6c0.5-0.4,0.9-1,1-1.7l1.6,0.2c-0.1,0.5-0.3,0.9-0.5,1.3c-0.2,0.4-0.6,0.8-1,1.1c-0.4,0.3-0.9,0.6-1.5,0.8
	c-0.6,0.2-1.3,0.3-2.1,0.3c-1.7,0-3-0.5-4-1.5s-1.5-2.5-1.5-4.6c0-2,0.5-3.6,1.5-4.6C296.8,30,298.2,29.5,299.9,29.5 M299.9,30.9
	c-1.1,0-2,0.3-2.7,0.9c-0.7,0.6-1.1,1.6-1.2,2.9h7.4c0-1.2-0.3-2.1-0.9-2.8C301.9,31.2,301.1,30.9,299.9,30.9"/>
<path class="st3" d="M306,29.6h2.2v-3.1l1.5-0.5v3.6h3.7V31h-3.7v6c0,0.7,0.1,1.2,0.1,1.6c0.1,0.4,0.3,0.8,0.5,1
	c0.2,0.2,0.5,0.4,0.8,0.5c0.3,0.1,0.7,0.1,1.2,0.1c0.3,0,0.5,0,0.7-0.1c0.2-0.1,0.3-0.1,0.4-0.1l0.2,1.5c-0.2,0.1-0.4,0.1-0.6,0.1
	s-0.5,0-0.7,0c-0.9,0-1.6-0.1-2.2-0.4c-0.5-0.3-1-0.6-1.3-1s-0.5-0.9-0.6-1.5s-0.1-1.1-0.1-1.8V31H306V29.6L306,29.6z"/>
<path class="st3" d="M315.5,41.7V23.8h7.1c0.5,0,1,0.1,1.6,0.2c0.6,0.1,1.1,0.4,1.6,0.7c0.5,0.3,0.9,0.8,1.2,1.4
	c0.3,0.6,0.5,1.4,0.5,2.3c0,0.6-0.1,1.2-0.2,1.6c-0.2,0.5-0.3,0.9-0.6,1.2c-0.2,0.3-0.5,0.6-0.8,0.7c-0.3,0.2-0.5,0.3-0.8,0.4
	c0.4,0.1,0.8,0.2,1.1,0.4c0.4,0.2,0.7,0.5,1,0.8c0.3,0.4,0.5,0.8,0.7,1.3c0.2,0.5,0.3,1.1,0.3,1.8c0,1-0.1,1.8-0.4,2.5
	c-0.3,0.6-0.7,1.1-1.2,1.5s-1.1,0.6-1.7,0.7c-0.6,0.1-1.3,0.2-2,0.2L315.5,41.7L315.5,41.7z M317.2,25.3v6.4h5.2c0.5,0,1,0,1.4-0.1
	s0.8-0.3,1-0.5c0.3-0.2,0.5-0.6,0.7-1c0.2-0.4,0.2-1,0.2-1.6c0-0.7-0.1-1.2-0.2-1.6c-0.2-0.4-0.4-0.7-0.7-1c-0.3-0.2-0.6-0.4-1-0.5
	s-0.9-0.1-1.4-0.1H317.2L317.2,25.3z M322.6,40.2c0.4,0,0.8,0,1.2-0.1c0.4-0.1,0.9-0.2,1.2-0.4c0.4-0.2,0.7-0.6,0.9-1
	s0.4-1.1,0.4-1.9c0-0.8-0.1-1.4-0.3-1.9c-0.2-0.5-0.5-0.8-0.9-1.1c-0.4-0.2-0.7-0.4-1.2-0.5c-0.4-0.1-0.9-0.1-1.3-0.1h-5.5v6.9
	L322.6,40.2L322.6,40.2z"/>
<path class="st3" d="M329.7,38.4c0-0.6,0.1-1.1,0.3-1.5c0.2-0.4,0.5-0.8,0.9-1c0.4-0.3,0.9-0.5,1.5-0.6s1.2-0.3,1.9-0.4l4.2-0.6
	v-0.6c0-1-0.3-1.7-1-2.1c-0.6-0.4-1.5-0.6-2.6-0.6c-1,0-1.8,0.2-2.2,0.6c-0.5,0.4-0.8,1-1,1.7l-1.6-0.2c0.1-0.5,0.3-1,0.5-1.4
	s0.5-0.8,0.9-1.1s0.8-0.5,1.4-0.7c0.6-0.2,1.2-0.3,2-0.3c1.6,0,2.8,0.4,3.7,1.1c0.9,0.7,1.3,1.8,1.3,3.2V39l0.1,2.8h-1.3l-0.3-2.2
	c-0.2,0.3-0.4,0.6-0.8,0.9c-0.4,0.3-0.7,0.5-1.1,0.7c-0.4,0.2-0.8,0.3-1.3,0.5c-0.5,0.1-0.9,0.2-1.4,0.2c-1.4,0-2.5-0.3-3.2-0.9
	C330,40.2,329.7,39.4,329.7,38.4 M331.3,38.3c0,0.7,0.2,1.2,0.7,1.5s1.1,0.5,2,0.5c0.6,0,1.2-0.1,1.8-0.3c0.6-0.2,1-0.5,1.4-0.8
	c0.4-0.3,0.7-0.7,1-1.1c0.2-0.4,0.4-0.8,0.4-1.1v-1.5l-4.2,0.6c-0.4,0.1-0.8,0.1-1.2,0.2c-0.4,0.1-0.7,0.2-1,0.4
	c-0.3,0.2-0.5,0.4-0.7,0.6C331.3,37.6,331.3,37.9,331.3,38.3"/>
<path class="st3" d="M343.4,35.6c0,1.5,0.3,2.7,1,3.5c0.7,0.8,1.6,1.2,2.8,1.2c1,0,1.8-0.2,2.3-0.6s0.9-0.9,1-1.6l1.6,0.2
	c-0.1,0.5-0.3,1-0.5,1.4s-0.6,0.8-1,1.1c-0.4,0.3-0.9,0.5-1.5,0.7c-0.6,0.2-1.2,0.3-2,0.3c-1.7,0-3-0.5-4-1.6s-1.4-2.6-1.4-4.5
	s0.5-3.4,1.4-4.5c1-1.1,2.3-1.6,4-1.6c0.8,0,1.5,0.1,2,0.3c0.6,0.2,1.1,0.4,1.5,0.7s0.7,0.7,1,1.1c0.2,0.4,0.4,0.9,0.5,1.4l-1.6,0.2
	c-0.2-0.7-0.5-1.3-1-1.7s-1.3-0.6-2.3-0.6c-1.2,0-2.1,0.4-2.8,1.2C343.7,32.9,343.4,34.1,343.4,35.6"/>
<polygon class="st3" points="353.9,41.7 353.9,23.4 355.5,23.4 355.5,35.6 357.8,33.3 361.5,29.6 363.7,29.6 358.4,34.7 364.5,41.7 
	362.4,41.7 357.4,35.7 355.5,37.6 355.5,41.7 "/>
<path class="st3" d="M373.7,39.5c-0.4,0.7-1,1.2-1.7,1.6c-0.7,0.4-1.5,0.6-2.5,0.6c-0.6,0-1.2-0.1-1.8-0.3c-0.6-0.2-1-0.4-1.4-0.7
	c-0.4-0.3-0.7-0.7-1-1.2c-0.2-0.5-0.3-1-0.3-1.6v-8.3h1.5v8c0,0.9,0.3,1.6,0.9,2c0.6,0.5,1.4,0.7,2.3,0.7c0.6,0,1.1-0.1,1.6-0.3
	c0.5-0.2,0.9-0.5,1.2-0.8s0.6-0.7,0.8-1.1c0.2-0.4,0.3-0.8,0.3-1.2v-7.3h1.5v9.3l0.1,2.8H374L373.7,39.5z"/>
<path class="st3" d="M379,46.3h-1.5V32.4l-0.1-2.8h1.4l0.3,2.3c0.4-0.7,1-1.2,1.7-1.7c0.7-0.4,1.5-0.6,2.4-0.6c1.7,0,3,0.5,4,1.6
	c0.9,1.1,1.4,2.6,1.4,4.5c0,1.9-0.5,3.4-1.4,4.5c-0.9,1.1-2.3,1.6-4,1.6c-0.9,0-1.7-0.2-2.4-0.6c-0.7-0.4-1.3-1-1.7-1.6L379,46.3
	L379,46.3z M386.9,35.6c0-1.5-0.3-2.7-1-3.5c-0.7-0.8-1.6-1.2-2.8-1.2c-0.6,0-1.2,0.1-1.7,0.3s-0.9,0.5-1.3,0.8
	c-0.3,0.3-0.6,0.7-0.8,1.1c-0.2,0.4-0.3,0.8-0.3,1.2V37c0,0.4,0.1,0.7,0.3,1.1c0.2,0.4,0.5,0.8,0.8,1.1c0.3,0.3,0.8,0.6,1.3,0.8
	c0.5,0.2,1.1,0.3,1.7,0.3c1.2,0,2.1-0.4,2.8-1.2C386.6,38.3,386.9,37.1,386.9,35.6"/>
<path class="st3" d="M400.3,23.6h1.7l6.9,18.1h-1.8L405,36h-7.8l-2.1,5.7h-1.8L400.3,23.6z M399.5,29.9l-1.7,4.6h6.7l-1.7-4.6
	l-1.6-4.5L399.5,29.9z"/>
<path class="st3" d="M411.6,46.3h-1.5V32.4l-0.1-2.8h1.4l0.3,2.3c0.4-0.7,1-1.2,1.7-1.7c0.7-0.4,1.5-0.6,2.4-0.6c1.7,0,3,0.5,4,1.6
	c0.9,1.1,1.4,2.6,1.4,4.5c0,1.9-0.5,3.4-1.4,4.5c-0.9,1.1-2.3,1.6-4,1.6c-0.9,0-1.7-0.2-2.4-0.6c-0.7-0.4-1.3-1-1.7-1.6L411.6,46.3
	L411.6,46.3z M419.4,35.6c0-1.5-0.3-2.7-1-3.5c-0.7-0.8-1.6-1.2-2.8-1.2c-0.6,0-1.2,0.1-1.7,0.3s-0.9,0.5-1.3,0.8
	c-0.3,0.3-0.6,0.7-0.8,1.1c-0.2,0.4-0.3,0.8-0.3,1.2V37c0,0.4,0.1,0.7,0.3,1.1c0.2,0.4,0.5,0.8,0.8,1.1s0.8,0.6,1.3,0.8
	c0.5,0.2,1.1,0.3,1.7,0.3c1.2,0,2.1-0.4,2.8-1.2C419.1,38.3,419.4,37.1,419.4,35.6"/>
<path class="st3" d="M424.4,46.3h-1.5V32.4l-0.1-2.8h1.4l0.3,2.3c0.4-0.7,1-1.2,1.7-1.7c0.7-0.4,1.5-0.6,2.4-0.6c1.7,0,3,0.5,4,1.6
	c0.9,1.1,1.4,2.6,1.4,4.5c0,1.9-0.5,3.4-1.4,4.5c-0.9,1.1-2.3,1.6-4,1.6c-0.9,0-1.7-0.2-2.4-0.6c-0.7-0.4-1.3-1-1.7-1.6L424.4,46.3
	L424.4,46.3z M432.3,35.6c0-1.5-0.3-2.7-1-3.5c-0.7-0.8-1.6-1.2-2.8-1.2c-0.6,0-1.2,0.1-1.7,0.3s-0.9,0.5-1.3,0.8
	c-0.3,0.3-0.6,0.7-0.8,1.1c-0.2,0.4-0.3,0.8-0.3,1.2V37c0,0.4,0.1,0.7,0.3,1.1c0.2,0.4,0.5,0.8,0.8,1.1s0.8,0.6,1.3,0.8
	c0.5,0.2,1.1,0.3,1.7,0.3c1.2,0,2.1-0.4,2.8-1.2C431.9,38.3,432.3,37.1,432.3,35.6"/>
<rect x="436.2" y="23.4" class="st3" width="1.5" height="18.3"/>
<path class="st3" d="M442.8,26.7h-2v-2h2V26.7z M441,29.6h1.5v12.1H441V29.6z"/>
<path class="st3" d="M444.9,38.4c0-0.6,0.1-1.1,0.3-1.5c0.2-0.4,0.5-0.8,0.9-1c0.4-0.3,0.9-0.5,1.5-0.6c0.6-0.2,1.2-0.3,1.9-0.4
	l4.2-0.6v-0.6c0-1-0.3-1.7-1-2.1c-0.6-0.4-1.5-0.6-2.6-0.6c-1,0-1.8,0.2-2.2,0.6c-0.5,0.4-0.8,1-1,1.7l-1.6-0.2
	c0.1-0.5,0.3-1,0.5-1.4s0.5-0.8,0.9-1.1s0.8-0.5,1.4-0.7c0.6-0.2,1.2-0.3,2-0.3c1.6,0,2.8,0.4,3.7,1.1c0.9,0.7,1.3,1.8,1.3,3.2V39
	l0.1,2.8H454l-0.3-2.2c-0.2,0.3-0.4,0.6-0.8,0.9c-0.4,0.3-0.7,0.5-1.1,0.7c-0.4,0.2-0.8,0.3-1.3,0.5c-0.5,0.1-0.9,0.2-1.4,0.2
	c-1.4,0-2.5-0.3-3.2-0.9C445.3,40.2,444.9,39.4,444.9,38.4 M446.5,38.3c0,0.7,0.2,1.2,0.7,1.5s1.1,0.5,2,0.5c0.6,0,1.2-0.1,1.8-0.3
	c0.5-0.2,1-0.5,1.4-0.8s0.7-0.7,1-1.1c0.2-0.4,0.4-0.8,0.4-1.1v-1.5l-4.2,0.6c-0.4,0.1-0.8,0.1-1.2,0.2c-0.4,0.1-0.7,0.2-1,0.4
	s-0.5,0.4-0.7,0.6C446.5,37.6,446.5,37.9,446.5,38.3"/>
<path class="st3" d="M459,31.9c0.4-0.7,1-1.3,1.7-1.7c0.7-0.4,1.5-0.7,2.5-0.7c0.6,0,1.2,0.1,1.8,0.3c0.5,0.2,1,0.4,1.4,0.7
	s0.7,0.7,1,1.2c0.2,0.5,0.3,1,0.3,1.6v8.3h-1.5v-8c0-0.9-0.3-1.6-0.9-2c-0.6-0.5-1.4-0.7-2.3-0.7c-0.6,0-1.1,0.1-1.6,0.3
	s-0.9,0.5-1.2,0.8c-0.3,0.3-0.6,0.7-0.8,1.1c-0.2,0.4-0.3,0.8-0.3,1.2v7.3h-1.5v-9.3l-0.1-2.8h1.4L459,31.9z"/>
<path class="st3" d="M470.8,35.6c0,1.5,0.3,2.7,1,3.5c0.7,0.8,1.6,1.2,2.8,1.2c1,0,1.8-0.2,2.3-0.6s0.9-0.9,1-1.6l1.6,0.2
	c-0.1,0.5-0.3,1-0.5,1.4s-0.6,0.8-1,1.1c-0.4,0.3-0.9,0.5-1.5,0.7c-0.6,0.2-1.3,0.3-2,0.3c-1.7,0-3-0.5-4-1.6s-1.4-2.6-1.4-4.5
	s0.5-3.4,1.4-4.5c1-1.1,2.3-1.6,4-1.6c0.8,0,1.5,0.1,2,0.3c0.6,0.2,1.1,0.4,1.5,0.7s0.7,0.7,1,1.1c0.2,0.4,0.4,0.9,0.5,1.4l-1.6,0.2
	c-0.2-0.7-0.5-1.3-1-1.7s-1.3-0.6-2.3-0.6c-1.2,0-2.1,0.4-2.8,1.2C471.2,32.9,470.8,34.1,470.8,35.6"/>
<path class="st3" d="M486.5,29.5c1.8,0,3.1,0.5,3.9,1.5s1.2,2.5,1.2,4.4V36h-9.1c0.1,1.5,0.5,2.6,1.2,3.3s1.6,1,2.8,1
	c1.1,0,1.9-0.2,2.4-0.6c0.5-0.4,0.9-1,1-1.7l1.6,0.2c-0.1,0.5-0.3,0.9-0.5,1.3c-0.2,0.4-0.6,0.8-1,1.1c-0.4,0.3-0.9,0.6-1.5,0.8
	s-1.3,0.3-2.1,0.3c-1.7,0-3-0.5-4-1.5s-1.5-2.5-1.5-4.6c0-2,0.5-3.6,1.5-4.6C483.4,30,484.8,29.5,486.5,29.5 M486.5,30.9
	c-1.1,0-2,0.3-2.7,0.9c-0.7,0.6-1.1,1.6-1.2,2.9h7.4c0-1.2-0.3-2.1-0.9-2.8C488.5,31.2,487.7,30.9,486.5,30.9"/>
</svg>
