<?xml version="1.0" encoding="utf-8"?>
<!-- Generator: Adobe Illustrator 18.0.0, SVG Export Plug-In . SVG Version: 6.00 Build 0)  -->
<!DOCTYPE svg PUBLIC "-//W3C//DTD SVG 1.1//EN" "http://www.w3.org/Graphics/SVG/1.1/DTD/svg11.dtd">
<svg version="1.1" id="Layer_1" xmlns="http://www.w3.org/2000/svg" xmlns:xlink="http://www.w3.org/1999/xlink" x="0px" y="0px"
	 viewBox="0 0 88.3 93.3" enable-background="new 0 0 88.3 93.3" xml:space="preserve">
<g>
	<rect x="0" y="19.9" fill="#FFFFFF" width="88.2" height="58.4"/>
	<g>
		<path fill="#AAAAAA" d="M44.1,52c-23.6,0-42.9-5.6-44-12.7H0v17.3h0.1c1.1,7,20.4,12.7,44,12.7c23.6,0,42.9-5.6,44-12.7h0.1V39.3
			h-0.1C87,46.3,67.7,52,44.1,52z"/>
		<path fill="#AAAAAA" d="M44.1,75.9c-23.6,0-42.9-5.6-44-12.7H0v17.3h0.1c1.1,7,20.4,12.7,44,12.7c23.6,0,42.9-5.6,44-12.7h0.1
			V63.3h-0.1C87,70.3,67.7,75.9,44.1,75.9z"/>
	</g>
	<path fill="#AAAAAA" d="M88.2,11.7C88.2,5.2,68.5,0,44.2,0C21.1,0,2.2,4.7,0.3,10.7C0.1,11.1,0,11.6,0,12.1v20.5h0.1
		c1.1,7,20.4,12.7,44,12.7c23.6,0,42.9-5.6,44-12.7h0.1V12C88.2,11.9,88.2,11.8,88.2,11.7z"/>
	<ellipse fill="#555555" cx="44.2" cy="11.7" rx="44.1" ry="11.7"/>
	<ellipse fill="#FFFFFF" cx="44.2" cy="11.7" rx="33.1" ry="8.8"/>
</g>
</svg>
