<?xml version="1.0" encoding="utf-8"?>
<!-- Generator: Adobe Illustrator 18.0.0, SVG Export Plug-In . SVG Version: 6.00 Build 0)  -->
<!DOCTYPE svg PUBLIC "-//W3C//DTD SVG 1.1//EN" "http://www.w3.org/Graphics/SVG/1.1/DTD/svg11.dtd">
<svg version="1.1" id="Layer_1" xmlns="http://www.w3.org/2000/svg" xmlns:xlink="http://www.w3.org/1999/xlink" x="0px" y="0px"
	 viewBox="0 0 64 64" enable-background="new 0 0 64 64" xml:space="preserve">
<circle fill="#B12024" cx="32" cy="32" r="32"/>
<path fill="none" stroke="#A7C8D3" stroke-width="2.6755" stroke-linecap="round" stroke-linejoin="round" stroke-miterlimit="10" d="
	M6,36.6c1.9,1.1,6.6,3.3,13.1,3.3c4.4,0,9.6-1.1,14.6-2.1c4.5-0.9,8.8-1.8,12-1.8c5.2,0,10.3,2.7,12.4,3.9"/>
<path fill="none" stroke="#A7C8D3" stroke-width="2.6755" stroke-linecap="round" stroke-linejoin="round" stroke-miterlimit="10" d="
	M6,29.5c1.9,1.1,6.6,3.3,13.1,3.3c4.4,0,9.6-1.1,14.6-2.1c4.5-0.9,8.8-1.8,12-1.8c5.2,0,10.3,2.7,12.4,3.9"/>
<path fill="none" stroke="#FFFFFF" stroke-width="2.675" stroke-linecap="round" stroke-linejoin="round" stroke-miterlimit="10" d="
	M6,22.1c1.9,1.1,6.6,3.3,13.1,3.3c4.4,0,9.6-1.1,14.6-2.1c4.5-0.9,8.8-1.8,12-1.8c5.2,0,10.3,2.7,12.4,3.9"/>
</svg>
