<?xml version="1.0" encoding="utf-8"?>
<!-- Generator: Adobe Illustrator 15.1.0, SVG Export Plug-In . SVG Version: 6.00 Build 0)  -->
<!DOCTYPE svg PUBLIC "-//W3C//DTD SVG 1.1//EN" "http://www.w3.org/Graphics/SVG/1.1/DTD/svg11.dtd">
<svg version="1.1" id="Layer_1" xmlns="http://www.w3.org/2000/svg" xmlns:xlink="http://www.w3.org/1999/xlink" x="0px" y="0px"
	 width="32px" height="32px" viewBox="0 0 32 32" enable-background="new 0 0 32 32" xml:space="preserve">
<g>
	<g>
		<path fill="#EEB51E" d="M31.858,29.295l0.008-0.012l-0.018-0.033c-0.011-0.027-0.026-0.051-0.038-0.078L17.847,1.238
			c-0.007-0.016-0.016-0.029-0.022-0.045L17.718,0.98h-0.037C17.329,0.404,16.724,0,16,0s-1.328,0.404-1.68,0.98h-0.036
			l-0.103,0.205c-0.009,0.02-0.021,0.037-0.028,0.057L0.201,29.156c-0.017,0.035-0.036,0.066-0.052,0.104l-0.026,0.053l0.013,0.018
			C0.06,29.541,0,29.762,0,30c0,1.104,0.896,2,2,2h27.845l0.021-0.027C29.912,31.977,29.952,32,30,32c1.105,0,2-0.896,2-2
			C32,29.75,31.942,29.516,31.858,29.295z"/>
	</g>
	<rect x="14" y="8" fill="#FFFFFF" width="4" height="12"/>
	<circle fill="#FFFFFF" cx="16" cy="25" r="2"/>
</g>
</svg>
