<?xml version="1.0" encoding="utf-8"?>
<!-- Generator: Adobe Illustrator 18.0.0, SVG Export Plug-In . SVG Version: 6.00 Build 0)  -->
<!DOCTYPE svg PUBLIC "-//W3C//DTD SVG 1.1//EN" "http://www.w3.org/Graphics/SVG/1.1/DTD/svg11.dtd">
<svg version="1.1" id="Layer_1" xmlns="http://www.w3.org/2000/svg" xmlns:xlink="http://www.w3.org/1999/xlink" x="0px" y="0px"
	 viewBox="0 0 375 55.2" enable-background="new 0 0 375 55.2" xml:space="preserve">
<g>
	<defs>
		<path id="SVGID_1_" d="M135.4,3.2c0.8-1,1.4-1.4,1.9-1.6c0.5-0.2,1-0.3,1.6-0.3c0.1,0,0.3,0,0.5,0h95.7c0.6,0,1.2,0,1.7,0.2
			c0.6,0.2,1.2,0.6,1.9,1.6l0,0L249.3,17v8.5c0,0.5-0.2,0.9-0.6,1.3c-0.4,0.4-1,0.6-1.6,0.6H127.4c-0.8,0-1.4-0.1-1.7-0.3
			c-0.2-0.1-0.3-0.2-0.3-0.3c-0.1-0.1-0.1-0.2-0.1-0.5v0l-0.5-9.5L135.4,3.2L135.4,3.2 M138.9-0.3c-0.6,0-1.4,0-2.2,0.4
			c-0.8,0.3-1.7,1-2.5,2.1l-11.1,14.1l0.5,10.1c0,0.5,0.1,1,0.4,1.3c0.4,0.6,1,0.9,1.5,1.1c0.6,0.2,1.2,0.2,1.9,0.2h119.6
			c1,0,1.9-0.4,2.6-1c0.7-0.6,1.1-1.5,1.1-2.5v-9.1L240,2.2l0,0c-0.9-1.2-1.8-1.8-2.6-2.1c-0.9-0.3-1.7-0.3-2.3-0.3h-95.6
			C139.3-0.3,139.1-0.3,138.9-0.3L138.9-0.3"/>
	</defs>
	<clipPath id="SVGID_2_">
		<use xlink:href="#SVGID_1_"  overflow="visible"/>
	</clipPath>
	<rect x="118.2" y="-5.3" clip-path="url(#SVGID_2_)" fill="#343534" width="137.7" height="39.3"/>
</g>
<g>
	<defs>
		<path id="SVGID_3_" d="M135.4,3.2c0.8-1,1.4-1.4,1.9-1.6c0.5-0.2,1-0.3,1.6-0.3c0.1,0,0.3,0,0.5,0h95.7c0.6,0,1.2,0,1.7,0.2
			c0.6,0.2,1.2,0.6,1.9,1.6l0,0L249.3,17v8.5c0,0.5-0.2,0.9-0.6,1.3c-0.4,0.4-1,0.6-1.6,0.6H127.4c-0.8,0-1.4-0.1-1.7-0.3
			c-0.2-0.1-0.3-0.2-0.3-0.3c-0.1-0.1-0.1-0.2-0.1-0.5v0l-0.5-9.5L135.4,3.2L135.4,3.2z M138.9-0.3c-0.6,0-1.4,0-2.2,0.4
			c-0.8,0.3-1.7,1-2.5,2.1l-11.1,14.1l0.5,10.1c0,0.5,0.1,1,0.4,1.3c0.4,0.6,1,0.9,1.5,1.1c0.6,0.2,1.2,0.2,1.9,0.2h119.6
			c1,0,1.9-0.4,2.6-1c0.7-0.6,1.1-1.5,1.1-2.5v-9.1L240,2.2l0,0c-0.9-1.2-1.8-1.8-2.6-2.1c-0.9-0.3-1.7-0.3-2.3-0.3h-95.6
			C139.3-0.3,139.1-0.3,138.9-0.3L138.9-0.3z"/>
	</defs>
	<use xlink:href="#SVGID_3_"  overflow="visible" fill-rule="evenodd" clip-rule="evenodd" fill="#555555"/>
	<clipPath id="SVGID_4_">
		<use xlink:href="#SVGID_3_"  overflow="visible"/>
	</clipPath>
	<g clip-path="url(#SVGID_4_)" enable-background="new    ">
		<g>
			<defs>
				<rect id="SVGID_5_" x="123" y="-0.9" width="128" height="30"/>
			</defs>
			<use xlink:href="#SVGID_5_"  overflow="visible" fill="#555555"/>
			<clipPath id="SVGID_6_">
				<use xlink:href="#SVGID_5_"  overflow="visible"/>
			</clipPath>
			<g clip-path="url(#SVGID_6_)">
				<defs>
					<rect id="SVGID_7_" x="123.2" y="-0.3" width="127.7" height="29.3"/>
				</defs>
				<use xlink:href="#SVGID_7_"  overflow="visible" fill-rule="evenodd" clip-rule="evenodd" fill="#555555"/>
				<clipPath id="SVGID_8_">
					<use xlink:href="#SVGID_7_"  overflow="visible"/>
				</clipPath>
				<g clip-path="url(#SVGID_8_)">
					<defs>
						<rect id="SVGID_9_" x="123" y="-0.9" width="128" height="30"/>
					</defs>
					<use xlink:href="#SVGID_9_"  overflow="visible" fill="#555555"/>
					<clipPath id="SVGID_10_">
						<use xlink:href="#SVGID_9_"  overflow="visible"/>
					</clipPath>
					<rect x="118.2" y="-5.3" clip-path="url(#SVGID_10_)" fill="#555555" width="137.7" height="39.3"/>
				</g>
			</g>
		</g>
	</g>
</g>
<g>
	<defs>
		<path id="SVGID_11_" d="M248.5,50.3H125.3c-0.8,0-1.5-0.7-1.5-1.5V17.5c0-0.8,0.7-1.5,1.5-1.5h123.2c0.8,0,1.5,0.7,1.5,1.5v31.2
			C250,49.6,249.3,50.3,248.5,50.3z"/>
	</defs>
	<clipPath id="SVGID_12_">
		<use xlink:href="#SVGID_11_"  overflow="visible"/>
	</clipPath>
	<rect x="118.8" y="10.9" clip-path="url(#SVGID_12_)" fill="#8A8B8A" width="136.3" height="44.3"/>
</g>
<path fill="none" stroke="#555555" stroke-width="2" stroke-miterlimit="10" d="M248.5,50.3H125.3c-0.8,0-1.5-0.7-1.5-1.5V17.5
	c0-0.8,0.7-1.5,1.5-1.5h123.2c0.8,0,1.5,0.7,1.5,1.5v31.2C250,49.6,249.3,50.3,248.5,50.3z"/>
</svg>
