<?xml version="1.0" encoding="utf-8"?>
<!-- Generator: Adobe Illustrator 18.0.0, SVG Export Plug-In . SVG Version: 6.00 Build 0)  -->
<!DOCTYPE svg PUBLIC "-//W3C//DTD SVG 1.1//EN" "http://www.w3.org/Graphics/SVG/1.1/DTD/svg11.dtd">
<svg version="1.1" id="Layer_1" xmlns="http://www.w3.org/2000/svg" xmlns:xlink="http://www.w3.org/1999/xlink" x="0px" y="0px"
	 viewBox="0 0 64 64" enable-background="new 0 0 64 64" xml:space="preserve">
<g>
	<path fill="#E6E7E8" d="M32,35.4c-16.6,0-30.1-3.7-30.9-8.4h0v11.5h0c0.8,4.7,14.3,8.4,30.9,8.4c16.6,0,30.1-3.7,30.9-8.4h0V27h0
		C62.1,31.7,48.6,35.4,32,35.4z"/>
	<path fill="#E6E7E8" d="M32,51.4c-16.6,0-30.1-3.7-30.9-8.4h0v11.5h0c0.8,4.7,14.3,8.4,30.9,8.4c16.6,0,30.1-3.7,30.9-8.4h0V43h0
		C62.1,47.6,48.6,51.4,32,51.4z"/>
</g>
<path fill="#E6E7E8" d="M63,8.7C63,4.4,49.2,1,32,1C15.8,1,2.6,4.1,1.2,8C1.1,8.3,1,8.6,1,9v13.6h0c0.8,4.7,14.3,8.4,30.9,8.4
	c16.6,0,30.1-3.7,30.9-8.4h0V9C63,8.9,63,8.8,63,8.7z"/>
<ellipse fill="#A7A9AC" cx="32" cy="8.7" rx="31" ry="7.7"/>
</svg>
