<?xml version="1.0" encoding="utf-8"?>
<!-- Generator: Adobe Illustrator 18.0.0, SVG Export Plug-In . SVG Version: 6.00 Build 0)  -->
<!DOCTYPE svg PUBLIC "-//W3C//DTD SVG 1.1//EN" "http://www.w3.org/Graphics/SVG/1.1/DTD/svg11.dtd">
<svg version="1.1" id="Layer_1" xmlns="http://www.w3.org/2000/svg" xmlns:xlink="http://www.w3.org/1999/xlink" x="0px" y="0px"
	 viewBox="0 0 375 84" enable-background="new 0 0 375 84" xml:space="preserve">
<g>
	<defs>
		<rect id="SVGID_1_" x="122.5" y="43.5" width="130" height="45"/>
	</defs>
	<clipPath id="SVGID_2_">
		<use xlink:href="#SVGID_1_"  overflow="visible"/>
	</clipPath>
	<g clip-path="url(#SVGID_2_)" enable-background="new    ">
		<g>
			<defs>
				<rect id="SVGID_3_" x="142.5" y="47.5" width="90" height="36"/>
			</defs>
			<clipPath id="SVGID_4_">
				<use xlink:href="#SVGID_3_"  overflow="visible"/>
			</clipPath>
			<g clip-path="url(#SVGID_4_)">
				<defs>
					<rect id="SVGID_5_" x="122.5" y="43.5" width="130" height="45"/>
				</defs>
				<clipPath id="SVGID_6_">
					<use xlink:href="#SVGID_5_"  overflow="visible"/>
				</clipPath>
				<g clip-path="url(#SVGID_6_)">
					<defs>
						<rect id="SVGID_7_" x="142.5" y="43.5" width="90" height="40"/>
					</defs>
					<clipPath id="SVGID_8_">
						<use xlink:href="#SVGID_7_"  overflow="visible"/>
					</clipPath>
					<path clip-path="url(#SVGID_8_)" fill="#3D3D3D" d="M157.8,48.5h59.4c0.8,0,1.7,0,2.7,1.4l7.5,9.5v22c0,0.9-0.8,1.7-1.8,1.7
						h-76.3c-1,0-1.8-0.8-1.8-1.7v-22l7.6-9.5C156.2,48.4,157,48.5,157.8,48.5"/>
					<path clip-path="url(#SVGID_8_)" fill="none" stroke="#2F3536" stroke-width="0.2366" stroke-linecap="round" d="M157.8,48.5
						h59.4c0.8,0,1.7,0,2.7,1.3l7.5,9.5v22c0,0.9-0.8,1.7-1.8,1.7h-76.3c-1,0-1.8-0.8-1.8-1.7v-22l7.6-9.5
						C156.2,48.4,157,48.5,157.8,48.5z"/>
				</g>
			</g>
			<g clip-path="url(#SVGID_4_)">
				<defs>
					<rect id="SVGID_9_" x="122.5" y="43.5" width="130" height="45"/>
				</defs>
				<clipPath id="SVGID_10_">
					<use xlink:href="#SVGID_9_"  overflow="visible"/>
				</clipPath>
				<g clip-path="url(#SVGID_10_)">
					<defs>
						<rect id="SVGID_11_" x="142.5" y="43.5" width="90" height="40"/>
					</defs>
					<clipPath id="SVGID_12_">
						<use xlink:href="#SVGID_11_"  overflow="visible"/>
					</clipPath>
					<g opacity="0.2582" clip-path="url(#SVGID_12_)" enable-background="new    ">
						<g>
							<defs>
								<rect id="SVGID_13_" x="148.5" y="48.5" width="78" height="18"/>
							</defs>
							<clipPath id="SVGID_14_">
								<use xlink:href="#SVGID_13_"  overflow="visible"/>
							</clipPath>
							<g clip-path="url(#SVGID_14_)">
								<defs>
									<rect id="SVGID_15_" x="149.1" y="48.9" width="76.7" height="17.2"/>
								</defs>
								<clipPath id="SVGID_16_">
									<use xlink:href="#SVGID_15_"  overflow="visible"/>
								</clipPath>
								<path clip-path="url(#SVGID_16_)" fill="none" stroke="#58595B" stroke-width="0.9472" d="M158.8,49.3h57.4
									c0.8,0,1.7,0,2.7,1.3l6.4,8.2V64c0,0.9-0.8,1.6-1.8,1.6h-71.9c-1,0-1.8-0.2-1.8-1.1l-0.3-5.8l6.5-8.2
									C157.2,49.3,158,49.3,158.8,49.3z"/>
							</g>
						</g>
					</g>
					<rect x="142.8" y="58.8" clip-path="url(#SVGID_12_)" fill="#2F3536" width="5.4" height="23"/>
				</g>
			</g>
			<g clip-path="url(#SVGID_4_)">
				<defs>
					<rect id="SVGID_17_" x="122.5" y="43.5" width="130" height="45"/>
				</defs>
				<clipPath id="SVGID_18_">
					<use xlink:href="#SVGID_17_"  overflow="visible"/>
				</clipPath>
				<g clip-path="url(#SVGID_18_)">
					<defs>
						<rect id="SVGID_19_" x="142.5" y="43.5" width="90" height="40"/>
					</defs>
					<clipPath id="SVGID_20_">
						<use xlink:href="#SVGID_19_"  overflow="visible"/>
					</clipPath>
					<g opacity="0.15" clip-path="url(#SVGID_20_)" enable-background="new    ">
						<g>
							<defs>
								<rect id="SVGID_21_" x="144.5" y="60.5" width="2" height="19"/>
							</defs>
							<clipPath id="SVGID_22_">
								<use xlink:href="#SVGID_21_"  overflow="visible"/>
							</clipPath>
							<g clip-path="url(#SVGID_22_)">
								<defs>
									<rect id="SVGID_23_" x="145" y="61.3" width="1" height="18"/>
								</defs>
								<clipPath id="SVGID_24_">
									<use xlink:href="#SVGID_23_"  overflow="visible"/>
								</clipPath>
								
									<line clip-path="url(#SVGID_24_)" fill="none" stroke="#EEEEED" stroke-width="0.9463" stroke-linecap="square" stroke-linejoin="bevel" x1="145.5" y1="61.8" x2="145.5" y2="78.8"/>
							</g>
						</g>
					</g>
					<path clip-path="url(#SVGID_20_)" fill="#FFFFFF" d="M146.5,63.7c0,0.5-0.4,0.9-0.9,0.9c-0.5,0-0.9-0.4-0.9-0.9v0
						c0-0.5,0.4-0.9,0.9-0.9C146.1,62.7,146.5,63.2,146.5,63.7L146.5,63.7z"/>
					<path clip-path="url(#SVGID_20_)" fill="#FFFFFF" d="M146.5,77.1c0,0.5-0.4,0.9-0.9,0.9c-0.5,0-0.9-0.4-0.9-0.9v0
						c0-0.5,0.4-0.9,0.9-0.9C146.1,76.1,146.5,76.6,146.5,77.1L146.5,77.1z"/>
					<rect x="149.2" y="59.9" clip-path="url(#SVGID_20_)" fill="#2F3536" width="76.5" height="21.1"/>
					
						<rect x="149.2" y="59.9" clip-path="url(#SVGID_20_)" fill="none" stroke="#58595B" stroke-width="0.9463" stroke-linecap="round" stroke-linejoin="round" width="76.5" height="21.1"/>
					<rect x="226.8" y="58.8" clip-path="url(#SVGID_20_)" fill="#2F3536" width="5.4" height="23"/>
				</g>
			</g>
			<g clip-path="url(#SVGID_4_)">
				<defs>
					<rect id="SVGID_25_" x="122.5" y="43.5" width="130" height="45"/>
				</defs>
				<clipPath id="SVGID_26_">
					<use xlink:href="#SVGID_25_"  overflow="visible"/>
				</clipPath>
				<g clip-path="url(#SVGID_26_)">
					<defs>
						<rect id="SVGID_27_" x="142.5" y="43.5" width="90" height="40"/>
					</defs>
					<clipPath id="SVGID_28_">
						<use xlink:href="#SVGID_27_"  overflow="visible"/>
					</clipPath>
					<g opacity="0.15" clip-path="url(#SVGID_28_)" enable-background="new    ">
						<g>
							<defs>
								<rect id="SVGID_29_" x="228.5" y="60.5" width="2" height="19"/>
							</defs>
							<clipPath id="SVGID_30_">
								<use xlink:href="#SVGID_29_"  overflow="visible"/>
							</clipPath>
							<g clip-path="url(#SVGID_30_)">
								<defs>
									<rect id="SVGID_31_" x="229" y="61.3" width="1" height="18"/>
								</defs>
								<clipPath id="SVGID_32_">
									<use xlink:href="#SVGID_31_"  overflow="visible"/>
								</clipPath>
								
									<line clip-path="url(#SVGID_32_)" fill="none" stroke="#EEEEED" stroke-width="0.9463" stroke-linecap="square" stroke-linejoin="bevel" x1="229.5" y1="61.8" x2="229.5" y2="78.8"/>
							</g>
						</g>
					</g>
					<path clip-path="url(#SVGID_28_)" fill="#FFFFFF" d="M230.5,63.7c0,0.5-0.4,0.9-0.9,0.9c-0.5,0-0.9-0.4-0.9-0.9v0
						c0-0.5,0.4-0.9,0.9-0.9C230.1,62.7,230.5,63.2,230.5,63.7L230.5,63.7z"/>
					<path clip-path="url(#SVGID_28_)" fill="#FFFFFF" d="M230.5,77.1c0,0.5-0.4,0.9-0.9,0.9c-0.5,0-0.9-0.4-0.9-0.9v0
						c0-0.5,0.4-0.9,0.9-0.9C230.1,76.1,230.5,76.6,230.5,77.1L230.5,77.1z"/>
				</g>
			</g>
			<g clip-path="url(#SVGID_4_)">
				<defs>
					<rect id="SVGID_33_" x="122.5" y="43.5" width="130" height="45"/>
				</defs>
				<clipPath id="SVGID_34_">
					<use xlink:href="#SVGID_33_"  overflow="visible"/>
				</clipPath>
				<g clip-path="url(#SVGID_34_)">
					<defs>
						<rect id="SVGID_35_" x="142.5" y="43.5" width="90" height="40"/>
					</defs>
					<clipPath id="SVGID_36_">
						<use xlink:href="#SVGID_35_"  overflow="visible"/>
					</clipPath>
					<path clip-path="url(#SVGID_36_)" fill="#A02629" d="M183.6,63.9h-31.9c-0.6,0-1-0.5-1-1c0-0.6,0.5-1,1-1h31.9c0.6,0,1,0.5,1,1
						C184.6,63.4,184.2,63.9,183.6,63.9"/>
					<path clip-path="url(#SVGID_36_)" fill="none" stroke="#A02629" stroke-width="0.9463" stroke-miterlimit="10" d="M224.1,64
						c-12.4-3.2-26.1-1.9-38.8,1.3c-1.5,0.3-2.9,0.5-4.4,0.8c-1.4,0.2-2.9,0.4-4.3,0.6c-8.6,1.1-17.3,1.4-26-1.6"/>
					<path clip-path="url(#SVGID_36_)" fill="none" stroke="#000000" stroke-width="0.9463" stroke-miterlimit="10" d="M224.1,66.1
						c-12.4-3.2-26.1-1.9-38.8,1.3c-1.5,0.3-2.9,0.5-4.4,0.8c-1.4,0.2-2.9,0.4-4.3,0.6c-8.6,1.1-17.3,1.4-26-1.6"/>
					<path clip-path="url(#SVGID_36_)" fill="none" stroke="#414042" stroke-width="0.9463" stroke-miterlimit="10" d="M224.1,68.1
						c-12.4-3.2-26.1-1.9-38.8,1.3c-1.5,0.3-2.9,0.5-4.4,0.8c-1.4,0.2-2.9,0.4-4.3,0.6c-8.6,1.1-17.3,1.4-26-1.6"/>
					<path clip-path="url(#SVGID_36_)" fill="none" stroke="#58595B" stroke-width="0.9463" stroke-miterlimit="10" d="M224.1,70.2
						c-12.4-3.2-26.1-1.9-38.8,1.3c-1.5,0.3-2.9,0.5-4.4,0.8c-1.4,0.2-2.9,0.4-4.3,0.6c-8.6,1.1-17.3,1.4-26-1.6"/>
					<path clip-path="url(#SVGID_36_)" fill="none" stroke="#6D6E71" stroke-width="0.9463" stroke-miterlimit="10" d="M224.1,72.3
						c-12.4-3.2-26.1-1.9-38.8,1.3c-1.5,0.3-2.9,0.5-4.4,0.8c-1.4,0.2-2.9,0.4-4.3,0.6c-8.6,1.1-17.3,1.4-26-1.6"/>
					<path clip-path="url(#SVGID_36_)" fill="none" stroke="#808285" stroke-width="0.9463" stroke-miterlimit="10" d="M224.1,74.4
						c-12.4-3.2-26.1-1.9-38.8,1.3c-1.5,0.3-2.9,0.5-4.4,0.8c-1.4,0.2-2.9,0.4-4.3,0.6c-8.6,1.1-17.3,1.4-26-1.6"/>
					<path clip-path="url(#SVGID_36_)" fill="none" stroke="#939598" stroke-width="0.9463" stroke-miterlimit="10" d="M224.1,76.5
						c-12.4-3.2-26.1-1.9-38.8,1.3c-1.5,0.3-2.9,0.5-4.4,0.8c-1.4,0.2-2.9,0.4-4.3,0.6c-8.6,1.1-17.3,1.4-26-1.6"/>
				</g>
			</g>
		</g>
	</g>
</g>
<g>
	<defs>
		<rect id="SVGID_37_" x="122.5" y="19.5" width="130" height="45"/>
	</defs>
	<clipPath id="SVGID_38_">
		<use xlink:href="#SVGID_37_"  overflow="visible"/>
	</clipPath>
	<g clip-path="url(#SVGID_38_)" enable-background="new    ">
		<g>
			<defs>
				<rect id="SVGID_39_" x="142.5" y="23.5" width="90" height="38"/>
			</defs>
			<clipPath id="SVGID_40_">
				<use xlink:href="#SVGID_39_"  overflow="visible"/>
			</clipPath>
			<g clip-path="url(#SVGID_40_)">
				<defs>
					<rect id="SVGID_41_" x="122.5" y="19.5" width="130" height="45"/>
				</defs>
				<clipPath id="SVGID_42_">
					<use xlink:href="#SVGID_41_"  overflow="visible"/>
				</clipPath>
				<g clip-path="url(#SVGID_42_)">
					<defs>
						<rect id="SVGID_43_" x="142.5" y="19.5" width="90" height="45"/>
					</defs>
					<clipPath id="SVGID_44_">
						<use xlink:href="#SVGID_43_"  overflow="visible"/>
					</clipPath>
					<path clip-path="url(#SVGID_44_)" fill="#3D3D3D" d="M157.8,24.5h59.4c0.8,0,1.7,0,2.7,1.4l7.5,9.5v22c0,0.9-0.8,1.7-1.8,1.7
						h-76.3c-1,0-1.8-0.8-1.8-1.7v-22l7.6-9.5C156.2,24.4,157,24.5,157.8,24.5"/>
					<path clip-path="url(#SVGID_44_)" fill="none" stroke="#2F3536" stroke-width="0.2366" stroke-linecap="round" d="M157.8,24.5
						h59.4c0.8,0,1.7,0,2.7,1.3l7.5,9.5v22c0,0.9-0.8,1.7-1.8,1.7h-76.3c-1,0-1.8-0.8-1.8-1.7v-22l7.6-9.5
						C156.2,24.4,157,24.5,157.8,24.5z"/>
				</g>
			</g>
			<g clip-path="url(#SVGID_40_)">
				<defs>
					<rect id="SVGID_45_" x="122.5" y="19.5" width="130" height="45"/>
				</defs>
				<clipPath id="SVGID_46_">
					<use xlink:href="#SVGID_45_"  overflow="visible"/>
				</clipPath>
				<g clip-path="url(#SVGID_46_)">
					<defs>
						<rect id="SVGID_47_" x="142.5" y="19.5" width="90" height="45"/>
					</defs>
					<clipPath id="SVGID_48_">
						<use xlink:href="#SVGID_47_"  overflow="visible"/>
					</clipPath>
					<g opacity="0.2582" clip-path="url(#SVGID_48_)" enable-background="new    ">
						<g>
							<defs>
								<rect id="SVGID_49_" x="148.5" y="24.5" width="78" height="18"/>
							</defs>
							<clipPath id="SVGID_50_">
								<use xlink:href="#SVGID_49_"  overflow="visible"/>
							</clipPath>
							<g clip-path="url(#SVGID_50_)">
								<defs>
									<rect id="SVGID_51_" x="149.1" y="24.9" width="76.7" height="17.2"/>
								</defs>
								<clipPath id="SVGID_52_">
									<use xlink:href="#SVGID_51_"  overflow="visible"/>
								</clipPath>
								<path clip-path="url(#SVGID_52_)" fill="none" stroke="#58595B" stroke-width="0.9472" d="M158.8,25.3h57.4
									c0.8,0,1.7,0,2.7,1.3l6.4,8.2V40c0,0.9-0.8,1.6-1.8,1.6h-71.9c-1,0-1.8-0.2-1.8-1.1l-0.3-5.8l6.5-8.2
									C157.2,25.3,158,25.3,158.8,25.3z"/>
							</g>
						</g>
					</g>
					<rect x="142.8" y="34.8" clip-path="url(#SVGID_48_)" fill="#2F3536" width="5.4" height="23"/>
				</g>
			</g>
			<g clip-path="url(#SVGID_40_)">
				<defs>
					<rect id="SVGID_53_" x="122.5" y="19.5" width="130" height="45"/>
				</defs>
				<clipPath id="SVGID_54_">
					<use xlink:href="#SVGID_53_"  overflow="visible"/>
				</clipPath>
				<g clip-path="url(#SVGID_54_)">
					<defs>
						<rect id="SVGID_55_" x="142.5" y="19.5" width="90" height="45"/>
					</defs>
					<clipPath id="SVGID_56_">
						<use xlink:href="#SVGID_55_"  overflow="visible"/>
					</clipPath>
					<g opacity="0.15" clip-path="url(#SVGID_56_)" enable-background="new    ">
						<g>
							<defs>
								<rect id="SVGID_57_" x="144.5" y="36.5" width="2" height="19"/>
							</defs>
							<clipPath id="SVGID_58_">
								<use xlink:href="#SVGID_57_"  overflow="visible"/>
							</clipPath>
							<g clip-path="url(#SVGID_58_)">
								<defs>
									<rect id="SVGID_59_" x="145" y="37.3" width="1" height="18"/>
								</defs>
								<clipPath id="SVGID_60_">
									<use xlink:href="#SVGID_59_"  overflow="visible"/>
								</clipPath>
								
									<line clip-path="url(#SVGID_60_)" fill="none" stroke="#EEEEED" stroke-width="0.9463" stroke-linecap="square" stroke-linejoin="bevel" x1="145.5" y1="37.8" x2="145.5" y2="54.8"/>
							</g>
						</g>
					</g>
					<path clip-path="url(#SVGID_56_)" fill="#FFFFFF" d="M146.5,39.7c0,0.5-0.4,0.9-0.9,0.9c-0.5,0-0.9-0.4-0.9-0.9v0
						c0-0.5,0.4-0.9,0.9-0.9C146.1,38.7,146.5,39.2,146.5,39.7L146.5,39.7z"/>
					<path clip-path="url(#SVGID_56_)" fill="#FFFFFF" d="M146.5,53.1c0,0.5-0.4,0.9-0.9,0.9c-0.5,0-0.9-0.4-0.9-0.9v0
						c0-0.5,0.4-0.9,0.9-0.9C146.1,52.1,146.5,52.6,146.5,53.1L146.5,53.1z"/>
					<rect x="149.2" y="35.9" clip-path="url(#SVGID_56_)" fill="#2F3536" width="76.5" height="21.1"/>
					
						<rect x="149.2" y="35.9" clip-path="url(#SVGID_56_)" fill="none" stroke="#58595B" stroke-width="0.9463" stroke-linecap="round" stroke-linejoin="round" width="76.5" height="21.1"/>
					<rect x="226.8" y="34.8" clip-path="url(#SVGID_56_)" fill="#2F3536" width="5.4" height="23"/>
				</g>
			</g>
			<g clip-path="url(#SVGID_40_)">
				<defs>
					<rect id="SVGID_61_" x="122.5" y="19.5" width="130" height="45"/>
				</defs>
				<clipPath id="SVGID_62_">
					<use xlink:href="#SVGID_61_"  overflow="visible"/>
				</clipPath>
				<g clip-path="url(#SVGID_62_)">
					<defs>
						<rect id="SVGID_63_" x="142.5" y="19.5" width="90" height="45"/>
					</defs>
					<clipPath id="SVGID_64_">
						<use xlink:href="#SVGID_63_"  overflow="visible"/>
					</clipPath>
					<g opacity="0.15" clip-path="url(#SVGID_64_)" enable-background="new    ">
						<g>
							<defs>
								<rect id="SVGID_65_" x="228.5" y="36.5" width="2" height="19"/>
							</defs>
							<clipPath id="SVGID_66_">
								<use xlink:href="#SVGID_65_"  overflow="visible"/>
							</clipPath>
							<g clip-path="url(#SVGID_66_)">
								<defs>
									<rect id="SVGID_67_" x="229" y="37.3" width="1" height="18"/>
								</defs>
								<clipPath id="SVGID_68_">
									<use xlink:href="#SVGID_67_"  overflow="visible"/>
								</clipPath>
								
									<line clip-path="url(#SVGID_68_)" fill="none" stroke="#EEEEED" stroke-width="0.9463" stroke-linecap="square" stroke-linejoin="bevel" x1="229.5" y1="37.8" x2="229.5" y2="54.8"/>
							</g>
						</g>
					</g>
					<path clip-path="url(#SVGID_64_)" fill="#FFFFFF" d="M230.5,39.7c0,0.5-0.4,0.9-0.9,0.9c-0.5,0-0.9-0.4-0.9-0.9v0
						c0-0.5,0.4-0.9,0.9-0.9C230.1,38.7,230.5,39.2,230.5,39.7L230.5,39.7z"/>
					<path clip-path="url(#SVGID_64_)" fill="#FFFFFF" d="M230.5,53.1c0,0.5-0.4,0.9-0.9,0.9c-0.5,0-0.9-0.4-0.9-0.9v0
						c0-0.5,0.4-0.9,0.9-0.9C230.1,52.1,230.5,52.6,230.5,53.1L230.5,53.1z"/>
				</g>
			</g>
			<g clip-path="url(#SVGID_40_)">
				<defs>
					<rect id="SVGID_69_" x="122.5" y="19.5" width="130" height="45"/>
				</defs>
				<clipPath id="SVGID_70_">
					<use xlink:href="#SVGID_69_"  overflow="visible"/>
				</clipPath>
				<g clip-path="url(#SVGID_70_)">
					<defs>
						<rect id="SVGID_71_" x="142.5" y="19.5" width="90" height="45"/>
					</defs>
					<clipPath id="SVGID_72_">
						<use xlink:href="#SVGID_71_"  overflow="visible"/>
					</clipPath>
					<path clip-path="url(#SVGID_72_)" fill="#A02629" d="M183.6,39.9h-31.9c-0.6,0-1-0.5-1-1c0-0.6,0.5-1,1-1h31.9c0.6,0,1,0.5,1,1
						C184.6,39.4,184.2,39.9,183.6,39.9"/>
					<path clip-path="url(#SVGID_72_)" fill="none" stroke="#A02629" stroke-width="0.9463" stroke-miterlimit="10" d="M224.1,40
						c-12.4-3.2-26.1-1.9-38.8,1.3c-1.5,0.3-2.9,0.5-4.4,0.8c-1.4,0.2-2.9,0.4-4.3,0.6c-8.6,1.1-17.3,1.4-26-1.6"/>
					<path clip-path="url(#SVGID_72_)" fill="none" stroke="#000000" stroke-width="0.9463" stroke-miterlimit="10" d="M224.1,42.1
						c-12.4-3.2-26.1-1.9-38.8,1.3c-1.5,0.3-2.9,0.5-4.4,0.8c-1.4,0.2-2.9,0.4-4.3,0.6c-8.6,1.1-17.3,1.4-26-1.6"/>
					<path clip-path="url(#SVGID_72_)" fill="none" stroke="#414042" stroke-width="0.9463" stroke-miterlimit="10" d="M224.1,44.1
						c-12.4-3.2-26.1-1.9-38.8,1.3c-1.5,0.3-2.9,0.5-4.4,0.8c-1.4,0.2-2.9,0.4-4.3,0.6c-8.6,1.1-17.3,1.4-26-1.6"/>
					<path clip-path="url(#SVGID_72_)" fill="none" stroke="#58595B" stroke-width="0.9463" stroke-miterlimit="10" d="M224.1,46.2
						c-12.4-3.2-26.1-1.9-38.8,1.3c-1.5,0.3-2.9,0.5-4.4,0.8c-1.4,0.2-2.9,0.4-4.3,0.6c-8.6,1.1-17.3,1.4-26-1.6"/>
					<path clip-path="url(#SVGID_72_)" fill="none" stroke="#6D6E71" stroke-width="0.9463" stroke-miterlimit="10" d="M224.1,48.3
						c-12.4-3.2-26.1-1.9-38.8,1.3c-1.5,0.3-2.9,0.5-4.4,0.8c-1.4,0.2-2.9,0.4-4.3,0.6c-8.6,1.1-17.3,1.4-26-1.6"/>
					<path clip-path="url(#SVGID_72_)" fill="none" stroke="#808285" stroke-width="0.9463" stroke-miterlimit="10" d="M224.1,50.4
						c-12.4-3.2-26.1-1.9-38.8,1.3c-1.5,0.3-2.9,0.5-4.4,0.8c-1.4,0.2-2.9,0.4-4.3,0.6c-8.6,1.1-17.3,1.4-26-1.6"/>
					<path clip-path="url(#SVGID_72_)" fill="none" stroke="#939598" stroke-width="0.9463" stroke-miterlimit="10" d="M224.1,52.5
						c-12.4-3.2-26.1-1.9-38.8,1.3c-1.5,0.3-2.9,0.5-4.4,0.8c-1.4,0.2-2.9,0.4-4.3,0.6c-8.6,1.1-17.3,1.4-26-1.6"/>
				</g>
			</g>
		</g>
	</g>
</g>
<g>
	<defs>
		<rect id="SVGID_73_" x="122.5" y="-4.5" width="130" height="45"/>
	</defs>
	<clipPath id="SVGID_74_">
		<use xlink:href="#SVGID_73_"  overflow="visible"/>
	</clipPath>
	<g clip-path="url(#SVGID_74_)" enable-background="new    ">
		<g>
			<defs>
				<rect id="SVGID_75_" x="142.5" y="-0.5" width="90" height="38"/>
			</defs>
			<clipPath id="SVGID_76_">
				<use xlink:href="#SVGID_75_"  overflow="visible"/>
			</clipPath>
			<g clip-path="url(#SVGID_76_)">
				<defs>
					<rect id="SVGID_77_" x="122.5" y="-4.5" width="130" height="45"/>
				</defs>
				<clipPath id="SVGID_78_">
					<use xlink:href="#SVGID_77_"  overflow="visible"/>
				</clipPath>
				<g clip-path="url(#SVGID_78_)">
					<defs>
						<rect id="SVGID_79_" x="142.5" y="-0.5" width="90" height="41"/>
					</defs>
					<clipPath id="SVGID_80_">
						<use xlink:href="#SVGID_79_"  overflow="visible"/>
					</clipPath>
					<path clip-path="url(#SVGID_80_)" fill="#3D3D3D" d="M157.8,0.5h59.4c0.8,0,1.7,0,2.7,1.3l7.5,9.5v22c0,0.9-0.8,1.7-1.8,1.7
						h-76.3c-1,0-1.8-0.8-1.8-1.7v-22l7.6-9.5C156.2,0.4,157,0.5,157.8,0.5"/>
					<path clip-path="url(#SVGID_80_)" fill="none" stroke="#2F3536" stroke-width="0.2366" stroke-linecap="round" d="M157.8,0.5
						h59.4c0.8,0,1.7,0,2.7,1.3l7.5,9.5v22c0,0.9-0.8,1.7-1.8,1.7h-76.3c-1,0-1.8-0.8-1.8-1.7v-22l7.6-9.5
						C156.2,0.4,157,0.5,157.8,0.5z"/>
				</g>
			</g>
			<g clip-path="url(#SVGID_76_)">
				<defs>
					<rect id="SVGID_81_" x="122.5" y="-4.5" width="130" height="45"/>
				</defs>
				<clipPath id="SVGID_82_">
					<use xlink:href="#SVGID_81_"  overflow="visible"/>
				</clipPath>
				<g clip-path="url(#SVGID_82_)">
					<defs>
						<rect id="SVGID_83_" x="142.5" y="-0.5" width="90" height="41"/>
					</defs>
					<clipPath id="SVGID_84_">
						<use xlink:href="#SVGID_83_"  overflow="visible"/>
					</clipPath>
					<g opacity="0.2582" clip-path="url(#SVGID_84_)" enable-background="new    ">
						<g>
							<defs>
								<rect id="SVGID_85_" x="148.5" y="0.5" width="78" height="18"/>
							</defs>
							<clipPath id="SVGID_86_">
								<use xlink:href="#SVGID_85_"  overflow="visible"/>
							</clipPath>
							<g clip-path="url(#SVGID_86_)">
								<defs>
									<rect id="SVGID_87_" x="149.1" y="0.9" width="76.7" height="17.2"/>
								</defs>
								<clipPath id="SVGID_88_">
									<use xlink:href="#SVGID_87_"  overflow="visible"/>
								</clipPath>
								<path clip-path="url(#SVGID_88_)" fill="none" stroke="#58595B" stroke-width="0.9472" d="M158.8,1.3h57.4
									c0.8,0,1.7,0,2.7,1.3l6.4,8.2V16c0,0.9-0.8,1.6-1.8,1.6h-71.9c-1,0-1.8-0.2-1.8-1.1l-0.3-5.8l6.5-8.2
									C157.2,1.3,158,1.3,158.8,1.3z"/>
							</g>
						</g>
					</g>
					<rect x="142.8" y="10.8" clip-path="url(#SVGID_84_)" fill="#2F3536" width="5.4" height="23"/>
				</g>
			</g>
			<g clip-path="url(#SVGID_76_)">
				<defs>
					<rect id="SVGID_89_" x="122.5" y="-4.5" width="130" height="45"/>
				</defs>
				<clipPath id="SVGID_90_">
					<use xlink:href="#SVGID_89_"  overflow="visible"/>
				</clipPath>
				<g clip-path="url(#SVGID_90_)">
					<defs>
						<rect id="SVGID_91_" x="142.5" y="-0.5" width="90" height="41"/>
					</defs>
					<clipPath id="SVGID_92_">
						<use xlink:href="#SVGID_91_"  overflow="visible"/>
					</clipPath>
					<g opacity="0.15" clip-path="url(#SVGID_92_)" enable-background="new    ">
						<g>
							<defs>
								<rect id="SVGID_93_" x="144.5" y="12.5" width="2" height="19"/>
							</defs>
							<clipPath id="SVGID_94_">
								<use xlink:href="#SVGID_93_"  overflow="visible"/>
							</clipPath>
							<g clip-path="url(#SVGID_94_)">
								<defs>
									<rect id="SVGID_95_" x="145" y="13.3" width="1" height="18"/>
								</defs>
								<clipPath id="SVGID_96_">
									<use xlink:href="#SVGID_95_"  overflow="visible"/>
								</clipPath>
								
									<line clip-path="url(#SVGID_96_)" fill="none" stroke="#EEEEED" stroke-width="0.9463" stroke-linecap="square" stroke-linejoin="bevel" x1="145.5" y1="13.8" x2="145.5" y2="30.8"/>
							</g>
						</g>
					</g>
					<path clip-path="url(#SVGID_92_)" fill="#FFFFFF" d="M146.5,15.7c0,0.5-0.4,0.9-0.9,0.9c-0.5,0-0.9-0.4-0.9-0.9v0
						c0-0.5,0.4-0.9,0.9-0.9C146.1,14.7,146.5,15.2,146.5,15.7L146.5,15.7z"/>
					<path clip-path="url(#SVGID_92_)" fill="#FFFFFF" d="M146.5,29.1c0,0.5-0.4,0.9-0.9,0.9c-0.5,0-0.9-0.4-0.9-0.9v0
						c0-0.5,0.4-0.9,0.9-0.9C146.1,28.1,146.5,28.6,146.5,29.1L146.5,29.1z"/>
					<rect x="149.2" y="11.9" clip-path="url(#SVGID_92_)" fill="#2F3536" width="76.5" height="21.1"/>
					
						<rect x="149.2" y="11.9" clip-path="url(#SVGID_92_)" fill="none" stroke="#58595B" stroke-width="0.9463" stroke-linecap="round" stroke-linejoin="round" width="76.5" height="21.1"/>
					<rect x="226.8" y="10.8" clip-path="url(#SVGID_92_)" fill="#2F3536" width="5.4" height="23"/>
				</g>
			</g>
			<g clip-path="url(#SVGID_76_)">
				<defs>
					<rect id="SVGID_97_" x="122.5" y="-4.5" width="130" height="45"/>
				</defs>
				<clipPath id="SVGID_98_">
					<use xlink:href="#SVGID_97_"  overflow="visible"/>
				</clipPath>
				<g clip-path="url(#SVGID_98_)">
					<defs>
						<rect id="SVGID_99_" x="142.5" y="-0.5" width="90" height="41"/>
					</defs>
					<clipPath id="SVGID_100_">
						<use xlink:href="#SVGID_99_"  overflow="visible"/>
					</clipPath>
					<g opacity="0.15" clip-path="url(#SVGID_100_)" enable-background="new    ">
						<g>
							<defs>
								<rect id="SVGID_101_" x="228.5" y="12.5" width="2" height="19"/>
							</defs>
							<clipPath id="SVGID_102_">
								<use xlink:href="#SVGID_101_"  overflow="visible"/>
							</clipPath>
							<g clip-path="url(#SVGID_102_)">
								<defs>
									<rect id="SVGID_103_" x="229" y="13.3" width="1" height="18"/>
								</defs>
								<clipPath id="SVGID_104_">
									<use xlink:href="#SVGID_103_"  overflow="visible"/>
								</clipPath>
								
									<line clip-path="url(#SVGID_104_)" fill="none" stroke="#EEEEED" stroke-width="0.9463" stroke-linecap="square" stroke-linejoin="bevel" x1="229.5" y1="13.8" x2="229.5" y2="30.8"/>
							</g>
						</g>
					</g>
					<path clip-path="url(#SVGID_100_)" fill="#FFFFFF" d="M230.5,15.7c0,0.5-0.4,0.9-0.9,0.9c-0.5,0-0.9-0.4-0.9-0.9v0
						c0-0.5,0.4-0.9,0.9-0.9C230.1,14.7,230.5,15.2,230.5,15.7L230.5,15.7z"/>
					<path clip-path="url(#SVGID_100_)" fill="#FFFFFF" d="M230.5,29.1c0,0.5-0.4,0.9-0.9,0.9c-0.5,0-0.9-0.4-0.9-0.9v0
						c0-0.5,0.4-0.9,0.9-0.9C230.1,28.1,230.5,28.6,230.5,29.1L230.5,29.1z"/>
				</g>
			</g>
			<g clip-path="url(#SVGID_76_)">
				<defs>
					<rect id="SVGID_105_" x="122.5" y="-4.5" width="130" height="45"/>
				</defs>
				<clipPath id="SVGID_106_">
					<use xlink:href="#SVGID_105_"  overflow="visible"/>
				</clipPath>
				<g clip-path="url(#SVGID_106_)">
					<defs>
						<rect id="SVGID_107_" x="142.5" y="-0.5" width="90" height="41"/>
					</defs>
					<clipPath id="SVGID_108_">
						<use xlink:href="#SVGID_107_"  overflow="visible"/>
					</clipPath>
					<path clip-path="url(#SVGID_108_)" fill="#A02629" d="M183.6,15.9h-31.9c-0.6,0-1-0.5-1-1c0-0.6,0.5-1,1-1h31.9
						c0.6,0,1,0.5,1,1C184.6,15.4,184.2,15.9,183.6,15.9"/>
					<path clip-path="url(#SVGID_108_)" fill="none" stroke="#A02629" stroke-width="0.9463" stroke-miterlimit="10" d="M224.1,16
						c-12.4-3.2-26.1-1.9-38.8,1.3c-1.5,0.3-2.9,0.5-4.4,0.8c-1.4,0.2-2.9,0.4-4.3,0.6c-8.6,1.1-17.3,1.4-26-1.6"/>
					<path clip-path="url(#SVGID_108_)" fill="none" stroke="#000000" stroke-width="0.9463" stroke-miterlimit="10" d="M224.1,18.1
						c-12.4-3.2-26.1-1.9-38.8,1.3c-1.5,0.3-2.9,0.5-4.4,0.8c-1.4,0.2-2.9,0.4-4.3,0.6c-8.6,1.1-17.3,1.4-26-1.6"/>
					<path clip-path="url(#SVGID_108_)" fill="none" stroke="#414042" stroke-width="0.9463" stroke-miterlimit="10" d="M224.1,20.1
						c-12.4-3.2-26.1-1.9-38.8,1.3c-1.5,0.3-2.9,0.5-4.4,0.8c-1.4,0.2-2.9,0.4-4.3,0.6c-8.6,1.1-17.3,1.4-26-1.6"/>
					<path clip-path="url(#SVGID_108_)" fill="none" stroke="#58595B" stroke-width="0.9463" stroke-miterlimit="10" d="M224.1,22.2
						c-12.4-3.2-26.1-1.9-38.8,1.3c-1.5,0.3-2.9,0.5-4.4,0.8c-1.4,0.2-2.9,0.4-4.3,0.6c-8.6,1.1-17.3,1.4-26-1.6"/>
					<path clip-path="url(#SVGID_108_)" fill="none" stroke="#6D6E71" stroke-width="0.9463" stroke-miterlimit="10" d="M224.1,24.3
						c-12.4-3.2-26.1-1.9-38.8,1.3c-1.5,0.3-2.9,0.5-4.4,0.8c-1.4,0.2-2.9,0.4-4.3,0.6c-8.6,1.1-17.3,1.4-26-1.6"/>
					<path clip-path="url(#SVGID_108_)" fill="none" stroke="#808285" stroke-width="0.9463" stroke-miterlimit="10" d="M224.1,26.4
						c-12.4-3.2-26.1-1.9-38.8,1.3c-1.5,0.3-2.9,0.5-4.4,0.8c-1.4,0.2-2.9,0.4-4.3,0.6c-8.6,1.1-17.3,1.4-26-1.6"/>
					<path clip-path="url(#SVGID_108_)" fill="none" stroke="#939598" stroke-width="0.9463" stroke-miterlimit="10" d="M224.1,28.5
						c-12.4-3.2-26.1-1.9-38.8,1.3c-1.5,0.3-2.9,0.5-4.4,0.8c-1.4,0.2-2.9,0.4-4.3,0.6c-8.6,1.1-17.3,1.4-26-1.6"/>
				</g>
			</g>
		</g>
	</g>
</g>
</svg>
