<?xml version="1.0" encoding="utf-8"?>
<!-- Generator: Adobe Illustrator 19.1.0, SVG Export Plug-In . SVG Version: 6.00 Build 0)  -->
<svg version="1.1" id="Layer_1" xmlns="http://www.w3.org/2000/svg" xmlns:xlink="http://www.w3.org/1999/xlink" x="0px" y="0px"
	 viewBox="38.5 -9.5 35 35" style="enable-background:new 38.5 -9.5 35 35;" xml:space="preserve">
<style type="text/css">
	.st0{fill:#1D97B2;}
	.st1{fill:#A8B9C1;}
	.st2{fill:#324149;}
	.st3{fill:none;}
	.st4{fill:#F4F5F6;}
	.st5{display:none;}
</style>
<g id="Icon">
	<path class="st0" d="M67.5-1h-1.6c0-3.6-3-6.6-6.6-6.6c-2.1,0-3.9,0.9-5.2,2.5l-1.2-1.1c1.6-2,3.9-3.1,6.4-3.1
		C63.8-9.2,67.5-5.5,67.5-1z"/>
	<g>
		<g>
			<path class="st1" d="M62.2-2.7c0-0.1,0-0.2-0.1-0.3c0-0.7-0.6-1.2-1.2-1.2H46.4c-0.8,0-1.6,0.7-1.6,1.6c0,0.1,0,15.8,0,15.8h-2.5
				v1.2c0,0.7,0.6,1.2,1.2,1.2c0.1,0,4.1,0,7.6,0c3.2,0,6.9,0,6.9,0c0.1,0,0.2,0,0.3,0c0.7,0,1.2-0.6,1.2-1.2c0-0.1,0-16,0-16h2.5
				l0,0l0,0C62.2-1.7,62.2-2.6,62.2-2.7z"/>
			<path class="st2" d="M58.1,16h-6.9h-7.6c-0.9,0-1.6-0.7-1.6-1.6v-1.6h2.5V-2.7c0-1.1,0.9-2,2-2h14.5c0.9,0,1.6,0.7,1.6,1.6
				c0,0.1,0.1,0.2,0.1,0.3v1.4H60v15.6c0,0.9-0.7,1.6-1.6,1.6C58.4,16,58.2,16,58.1,16z M51.1,15.2h6.9c0.1,0,0.2,0,0.2,0
				c0.6,0,0.9-0.4,0.9-0.8V-2.1h2.5v-0.7c0-0.1,0-0.2,0-0.2c0-0.5-0.4-0.9-0.8-0.9H46.5c-0.7,0-1.2,0.5-1.2,1.2v16.2h-2.5v0.8
				c0,0.5,0.4,0.8,0.8,0.8L51.1,15.2z"/>
		</g>
		<path class="st2" d="M58.4,15.6c-0.7,0-1.2-0.6-1.2-1.2c0-0.1,0-1.2,0-1.2H42.3v1.2c0,0.7,0.6,1.2,1.2,1.2
			C43.6,15.6,58.5,15.6,58.4,15.6z"/>
		<path class="st2" d="M62-3c0-0.7-0.6-1.2-1.2-1.2c-1.2,0-1.6,0.6-1.6,1.2c0,0.1,0,1.2,0,1.2H62C62-1.7,62-2.9,62-3z"/>
		<g>
			<line class="st3" x1="47" y1="-0.8" x2="56.6" y2="-0.8"/>
			<rect x="47" y="-1.3" class="st2" width="9.6" height="0.8"/>
		</g>
		<g>
			<line class="st3" x1="47" y1="1.6" x2="56.6" y2="1.6"/>
			<rect x="47" y="1.2" class="st2" width="9.6" height="0.8"/>
		</g>
		<g>
			<line class="st3" x1="47" y1="4.2" x2="56.6" y2="4.2"/>
			<rect x="47" y="3.8" class="st2" width="9.6" height="0.8"/>
		</g>
		<g>
			<line class="st3" x1="47" y1="6.6" x2="56.6" y2="6.6"/>
			<rect x="47" y="6.2" class="st2" width="9.6" height="0.8"/>
		</g>
		<g>
			<line class="st3" x1="47" y1="9.1" x2="56.6" y2="9.1"/>
			<rect x="47" y="8.7" class="st2" width="9.6" height="0.8"/>
		</g>
	</g>
	<g>
		<g>
			<path class="st4" d="M69.7,4.3c0-0.2,0-0.2-0.1-0.4c0-0.7-0.7-1.3-1.4-1.3H52c-1,0-1.7,0.7-1.7,1.7c0,0.1,0,17.8,0,17.8h-2.8v1.4
				c0,0.7,0.7,1.4,1.4,1.4c0.1,0,4.6,0,8.6,0c3.6,0,7.7,0,7.8,0s0.2,0,0.3,0c0.7,0,1.4-0.7,1.4-1.4c0-0.1,0-18.1,0-18.1h2.8l0,0l0,0
				C69.7,5.3,69.7,4.3,69.7,4.3z"/>
			<path class="st2" d="M65.2,25.2c0,0-4.2,0-7.8,0c-3.9,0-8.6,0-8.6,0c-1,0-1.8-0.8-1.8-1.8v-1.8h2.8V4.3c0-1.2,1-2.1,2.1-2.1h16.3
				c1,0,1.8,0.7,1.8,1.7c0,0.1,0.1,0.2,0.1,0.4v1.5h-2.8v17.7c0,1-0.8,1.8-1.8,1.8C65.5,25.2,65.4,25.2,65.2,25.2z M57.4,24.4
				c3.6,0,7.7,0,7.8,0s0.2,0,0.2,0c0.7,0,1.1-0.4,1.1-1V4.9h2.8V4.3c0-0.1,0-0.2,0-0.3c0-0.6-0.5-1.1-1-1.1H52.1
				c-0.7,0-1.3,0.6-1.3,1.3v18.2h-2.8v1c0,0.6,0.4,1,1,1C48.8,24.4,53.5,24.4,57.4,24.4z"/>
		</g>
		<path class="st2" d="M65.5,24.8c-0.7,0-1.4-0.7-1.4-1.4c0-0.1,0-1.4,0-1.4H47.4v1.4c0,0.7,0.7,1.4,1.4,1.4
			C48.8,24.8,65.6,24.8,65.5,24.8z"/>
		<path class="st2" d="M69.7,3.9c0-0.7-0.7-1.4-1.4-1.4c-1.4,0-1.7,0.7-1.7,1.4c0,0.1,0,1.4,0,1.4h3.1C69.7,5.3,69.7,4,69.7,3.9z"/>
		<g>
			<line class="st3" x1="52.7" y1="6.3" x2="63.5" y2="6.3"/>
			<rect x="52.7" y="5.9" class="st2" width="10.8" height="0.8"/>
		</g>
		<g>
			<line class="st3" x1="52.7" y1="9.1" x2="63.5" y2="9.1"/>
			<rect x="52.7" y="8.7" class="st2" width="10.8" height="0.8"/>
		</g>
		<g>
			<line class="st3" x1="52.7" y1="11.9" x2="63.5" y2="11.9"/>
			<rect x="52.7" y="11.5" class="st2" width="10.8" height="0.8"/>
		</g>
		<g>
			<line class="st3" x1="52.7" y1="14.7" x2="63.5" y2="14.7"/>
			<rect x="52.7" y="14.3" class="st2" width="10.8" height="0.8"/>
		</g>
		<g>
			<line class="st3" x1="52.7" y1="17.5" x2="63.5" y2="17.5"/>
			<rect x="52.7" y="17.1" class="st2" width="10.8" height="0.8"/>
		</g>
	</g>
	<polyline class="st0" points="69.2,-1.2 66.5,1.4 64,-1.3 	"/>
</g>
<g id="Guide" class="st5">
</g>
</svg>
