<?xml version="1.0" encoding="utf-8"?>
<!-- Generator: Adobe Illustrator 19.1.0, SVG Export Plug-In . SVG Version: 6.00 Build 0)  -->
<svg version="1.1" id="Layer_1" xmlns="http://www.w3.org/2000/svg" xmlns:xlink="http://www.w3.org/1999/xlink" x="0px" y="0px"
	 viewBox="10 -9 35 35" style="enable-background:new 10 -9 35 35;" xml:space="preserve">
<style type="text/css">
	.st0{fill:#F4F5F6;}
	.st1{fill:#324149;}
	.st2{fill:none;}
	.st3{fill:#0797B1;}
	.st4{display:none;}
</style>
<g id="Icon">
	<g>
		<g>
			<path class="st0" d="M44.4-6c0-0.2,0-0.4-0.1-0.6c-0.1-1.1-1-2.1-2.1-2.1c-0.1,0-24.8,0-24.8,0c-1.4,0-2.6,1.2-2.6,2.6
				c0,0.1,0,27.1,0,27.1h-4.3v2.1c0,1.2,1,2.1,2.1,2.1c0.1,0,7.1,0,13.1,0c5.5,0,11.8,0,11.8,0c0.2,0,0.4,0,0.6-0.1
				c1.2,0,2.1-1,2.1-2.1c0-0.1,0-27.5,0-27.5h4.3l0,0h0.1C44.4-4.3,44.4-5.7,44.4-6z"/>
			<path class="st1" d="M37.4,25.8c-0.1,0-6.3,0-11.8,0c-6,0-13,0-13.1,0c-1.4,0-2.5-1.1-2.5-2.5v-2.5h4.3V-6c0-1.7,1.3-3,3-3
				c0.1,0,8.2,0,15.2,0h9.7c1.3,0,2.5,1,2.5,2.5c0.1,0.2,0.1,0.4,0.1,0.6v2.1h-4.3v27.1c0,1.3-1.1,2.5-2.5,2.5
				C37.7,25.8,37.7,25.8,37.4,25.8z M25.6,25c5.5,0,11.8,0,11.8,0c0.2,0,0.2,0,0.6,0c1.2-0.1,1.7-0.9,1.7-1.8V-4.7H44V-6
				c0-0.2,0-0.3-0.1-0.5c-0.1-1-0.8-1.7-1.7-1.7h-9.7c-7,0-15.1,0-15.2,0c-1.3,0-2.2,1-2.2,2.2v27.5h-4.3v1.7c0,1,0.8,1.7,1.7,1.7
				C12.6,25,19.6,25,25.6,25z"/>
		</g>
		<path class="st1" d="M38,25.4c-1.2,0-2.1-1-2.1-2.1c0-0.2,0-2.1,0-2.1H10.5v2.1c0,1.2,1,2.1,2.1,2.1C12.6,25.4,38.1,25.4,38,25.4z
			"/>
		<path class="st1" d="M44.3-6.5c0-1.2-0.9-2.1-2.1-2.1c-2,0-2.5,0.9-2.5,2.1c0,0.2,0,2.1,0,2.1l4.5,0C44.3-4.4,44.3-6.4,44.3-6.5z"
			/>
		<g>
			<line class="st2" x1="25.6" y1="-2.7" x2="34.9" y2="-2.7"/>
			<rect x="25.6" y="-3.1" class="st1" width="9.3" height="0.8"/>
		</g>
		<g>
			<line class="st2" x1="25.6" y1="1.6" x2="34.9" y2="1.6"/>
			<rect x="25.6" y="1.2" class="st1" width="9.3" height="0.8"/>
		</g>
		<g>
			<line class="st2" x1="25.6" y1="5.8" x2="34.9" y2="5.8"/>
			<rect x="25.6" y="5.4" class="st1" width="9.3" height="0.8"/>
		</g>
		<g>
			<line class="st2" x1="25.6" y1="10" x2="34.9" y2="10"/>
			<rect x="25.6" y="9.6" class="st1" width="9.3" height="0.8"/>
		</g>
		<g>
			<line class="st2" x1="25.6" y1="14.2" x2="34.9" y2="14.2"/>
			<rect x="25.6" y="13.8" class="st1" width="9.3" height="0.8"/>
		</g>
	</g>
	<g>
		<rect x="18.6" y="-3" class="st0" width="4.1" height="4.1"/>
		<path class="st1" d="M23.1,1.6h-4.9v-4.9h4.9C23.1-3.4,23.1,1.6,23.1,1.6z M19,0.8h3.3v-3.3H19V0.8z"/>
	</g>
	<g>
		<rect x="18.6" y="4.2" class="st0" width="4.1" height="4.1"/>
		<path class="st1" d="M23.1,8.6h-4.9V3.7h4.9V8.6z M19,7.8h3.3V4.5H19V7.8z"/>
	</g>
	<g>
		<rect x="18.6" y="11.1" class="st0" width="4.1" height="4.1"/>
		<path class="st1" d="M23.1,15.7h-4.9v-4.9h4.9C23.1,10.8,23.1,15.7,23.1,15.7z M19,14.9h3.3v-3.4H19V14.9z"/>
	</g>
	<polygon class="st3" points="21.2,0.7 19.2,-1.5 20.4,-2.6 21.3,-1.5 24.2,-4.2 25.2,-3 	"/>
	<polygon class="st3" points="21.2,7.7 19.2,5.6 20.4,4.6 21.3,5.5 24.2,2.9 25.2,4.1 	"/>
	<polygon class="st3" points="21.2,14.7 19.2,12.6 20.4,11.5 21.3,12.5 24.2,9.9 25.2,11.1 	"/>
</g>
<g id="Guide" class="st4">
</g>
</svg>
