<?xml version="1.0" encoding="utf-8"?>
<!-- Generator: Adobe Illustrator 19.1.0, SVG Export Plug-In . SVG Version: 6.00 Build 0)  -->
<svg version="1.1" id="Layer_1" xmlns="http://www.w3.org/2000/svg" xmlns:xlink="http://www.w3.org/1999/xlink" x="0px" y="0px"
	 viewBox="-481 654 60 60" style="enable-background:new -481 654 60 60;" xml:space="preserve">
<style type="text/css">
	.st0{fill:#314048;}
	.st1{fill:#FFFFFF;}
	.st2{fill:#92A7B2;}
	.st3{fill-rule:evenodd;clip-rule:evenodd;fill:#AF1125;}
	
		.st4{fill-rule:evenodd;clip-rule:evenodd;fill:none;stroke:#FFFFFF;stroke-width:1.1242;stroke-linecap:round;stroke-linejoin:round;stroke-miterlimit:22.9256;}
	.st5{fill-rule:evenodd;clip-rule:evenodd;fill:#A8C9D4;}
</style>
<g>
	<g>
		<g>
			<path class="st0" d="M-454.2,697.4c0-8.5,6.9-15.4,15.4-15.4c2.5,0,4.8,0.6,6.8,1.6v-20.3l-7.2-6.9h-26.5l-7.2,6.9v47.8h27.1
				C-450.8,708.5-454.2,703.4-454.2,697.4z"/>
		</g>
	</g>
	<g>
		<rect x="-466.2" y="670.1" class="st1" width="27.3" height="3.4"/>
		<rect x="-466.2" y="676.9" class="st1" width="27.3" height="3.4"/>
		<path class="st1" d="M-454.2,697.4h-12v3.4h12.4C-454,699.7-454.2,698.6-454.2,697.4z"/>
	</g>
	<g>
		<g>
			<polygon class="st2" points="-439.1,656.4 -465.7,656.4 -472.8,663.2 -431.9,663.2 			"/>
		</g>
	</g>
</g>
<circle class="st3" cx="-439" cy="696.9" r="13.5"/>
<path class="st4" d="M-433.8,701.1h-8.9c-0.6,0-1-0.4-1-1c0-0.6,0.4-1,1-1h3.6h3.6c0.6,0,1-0.4,1-1s-0.4-1-1-1h-7.2
	c-0.6,0-1-0.4-1-1c0-0.6,0.4-1,1-1h3.6h3.6c0.6,0,1-0.4,1-1c0-0.6-0.4-1-1-1h-11.6c-0.6,0-1,0.5-1.1,0.8c-0.4,1-0.6,2.2-0.6,3.3
	c0,5.4,4.4,9.7,9.7,9.7c5.4,0,9.7-4.4,9.7-9.7c0-5.4-4.4-9.7-9.7-9.7c-3,0-5.6,1.4-7.4,3.4"/>
<path class="st5" d="M-433.1,701.1c0,0.6-0.5,1.1-1.1,1.1c-0.6,0-1.1-0.5-1.1-1.1c0-0.6,0.5-1.1,1.1-1.1
	C-433.6,699.9-433.1,700.4-433.1,701.1z"/>
<polyline class="st4" points="-446.8,688.7 -446.8,691 -444.5,691 "/>
</svg>
