<?xml version="1.0" encoding="utf-8"?>
<!-- Generator: Adobe Illustrator 19.1.0, SVG Export Plug-In . SVG Version: 6.00 Build 0)  -->
<svg version="1.1" id="Layer_1" xmlns="http://www.w3.org/2000/svg" xmlns:xlink="http://www.w3.org/1999/xlink" x="0px" y="0px"
	 viewBox="0 0 1065.9 250" style="enable-background:new 0 0 1065.9 250;" xml:space="preserve">
<style type="text/css">
	.st0{fill-rule:evenodd;clip-rule:evenodd;fill:#314048;}
	.st1{fill:#314048;}
	.st2{fill:#FFFFFF;}
	.st3{fill:#91CADB;}
	.st4{fill:#C2C2C2;stroke:#FFFFFF;stroke-miterlimit:10;}
	.st5{opacity:0.43;fill:#7F7F7F;}
	.st6{fill:#FDFFFF;}
	.st7{fill:#D3D3D3;}
	.st8{fill:#636363;}
	.st9{fill:#AFAFAF;}
	.st10{fill:#C4EDF7;}
	.st11{opacity:0.43;fill:#1B8793;}
	.st12{fill:#3F95BA;}
	.st13{fill:#324049;}
	.st14{fill:#327A93;}
	.st15{fill:#0097B2;}
	.st16{fill:none;stroke:#314048;stroke-width:2.3851;stroke-miterlimit:10;}
	.st17{fill:none;stroke:#EA2227;stroke-width:2.2705;stroke-linecap:round;stroke-linejoin:round;stroke-miterlimit:10;}
	.st18{opacity:0.3;fill:#91CADB;}
	.st19{fill:#ACDEEA;}
	.st20{fill:none;stroke:#417A93;stroke-width:1.0049;stroke-linecap:round;stroke-linejoin:round;stroke-miterlimit:10;}
	.st21{fill:none;stroke:#92A7B2;stroke-width:2;stroke-linecap:round;stroke-linejoin:round;}
	.st22{fill:none;stroke:#92A7B2;stroke-width:2;stroke-linecap:round;stroke-linejoin:round;stroke-dasharray:3.8881,3.8881;}
	.st23{fill:none;stroke:#92A7B2;stroke-width:2;stroke-linecap:round;stroke-linejoin:round;stroke-dasharray:3.8757,3.8757;}
	.st24{fill:#F4F5F6;}
	.st25{fill:#92A7B2;}
	.st26{fill:#0097B2;stroke:#FFFFFF;stroke-miterlimit:10;}
	.st27{fill:#FFFFFF;stroke:#324049;stroke-width:0.4286;stroke-miterlimit:10;}
	.st28{fill:none;stroke:#CEE3EA;stroke-width:2;stroke-linecap:round;stroke-linejoin:round;stroke-miterlimit:10;}
	
		.st29{fill:none;stroke:#92A7B2;stroke-width:2;stroke-linecap:round;stroke-linejoin:round;stroke-miterlimit:10;stroke-dasharray:4;}
	.st30{fill:none;stroke:#92A7B2;stroke-width:1.9952;stroke-linecap:round;stroke-linejoin:round;stroke-miterlimit:10;}
	.st31{fill:#748A96;}
	.st32{fill-rule:evenodd;clip-rule:evenodd;fill:#AF1125;}
	
		.st33{fill-rule:evenodd;clip-rule:evenodd;fill:none;stroke:#FFFFFF;stroke-width:1.0302;stroke-linecap:round;stroke-linejoin:round;stroke-miterlimit:22.9256;}
	.st34{fill-rule:evenodd;clip-rule:evenodd;fill:#A8C9D4;}
</style>
<g>
	<g>
		<path class="st0" d="M904.4,80.3v10.4h-20.7V80.3h-15.5v10.4h-20.7V80.3h-12.9v79.8h82.8V80.3H904.4z M912.1,154.9h-72.5v-48.8
			h72.5V154.9z"/>
	</g>
	<rect x="852.6" y="69.9" class="st1" width="10.4" height="15.5"/>
	<rect x="888.8" y="69.9" class="st1" width="10.4" height="15.5"/>
	<rect x="839.5" y="106.1" class="st2" width="72.5" height="48.8"/>
	<polygon class="st3" points="912.1,131.7 839.5,131.7 839.5,118.2 912.1,118.2 	"/>
	<line class="st1" x1="839.7" y1="118.2" x2="912.1" y2="118.2"/>
	<line class="st1" x1="912.1" y1="131.7" x2="839.7" y2="131.7"/>
	<line class="st1" x1="912.1" y1="144" x2="839.7" y2="144"/>
	<line class="st1" x1="853.1" y1="154.9" x2="853.1" y2="106.1"/>
	<line class="st1" x1="869.1" y1="154.9" x2="869.1" y2="106.1"/>
	<line class="st1" x1="883.9" y1="154.9" x2="883.9" y2="106.1"/>
	<line class="st1" x1="898.7" y1="154.9" x2="898.7" y2="106.1"/>
</g>
<g>
	<circle class="st4" cx="664.3" cy="77.5" r="30.5"/>
</g>
<g>
	<ellipse class="st5" cx="651.4" cy="79.8" rx="8.4" ry="2.8"/>
	<g>
		<path class="st6" d="M650.5,66.1c0.7,0,1.3,0,2,0c0,0,0,0,0.1,0c0.5,0,0.9,0.1,1.4,0.1c0.8,0.1,1.5,0.2,2.3,0.5
			c0.7,0.2,1.4,0.5,1.9,1c0.3,0.2,0.5,0.5,0.5,0.9c0,0.2-0.1,0.4-0.3,0.6c-0.2,0.3-0.6,0.5-0.9,0.7c-0.6,0.4-1.3,0.6-2,0.7
			c-0.6,0.2-1.3,0.3-2,0.3c-0.4,0-0.8,0.1-1.2,0.1c-0.6,0-1.3,0-1.9,0c-0.7,0-1.3-0.1-2-0.2c-1-0.2-1.9-0.4-2.8-0.9
			c-0.5-0.3-1-0.6-1.1-1.3c0-0.2,0-0.3,0.1-0.5c0.2-0.4,0.6-0.7,1-0.9c1.4-0.7,2.9-1,4.4-1.1C650.1,66.1,650.3,66.1,650.5,66.1z"/>
		<path class="st7" d="M644.4,72.3c0-0.7,0-1.5,0-2.2c0-0.5,0-1,0-1.4c0.1,0.7,0.6,1,1.1,1.3c0.9,0.5,1.8,0.7,2.8,0.9
			c0.7,0.1,1.3,0.2,2,0.2c0.6,0,1.3,0.1,1.9,0c0.4,0,0.8,0,1.2-0.1c0.7-0.1,1.3-0.2,2-0.3c0.7-0.2,1.4-0.4,2-0.7
			c0.3-0.2,0.7-0.4,0.9-0.7c0.1-0.2,0.2-0.4,0.3-0.6c0,1.2,0,2.4,0,3.7c-0.2,0.5-0.5,0.8-0.9,1.1c-0.4,0.2-0.7,0.4-1.1,0.5
			c-1.5,0.5-3,0.7-4.5,0.7c-1,0-1.9,0-2.9-0.1c-1.1-0.1-2.2-0.4-3.3-0.8C645.2,73.3,644.6,73,644.4,72.3z"/>
		<path class="st8" d="M658.6,75.8c0,1.1,0,2.3,0,3.4c0,0.3-0.2,0.6-0.5,0.8c-0.5,0.5-1.2,0.7-1.8,1c-0.8,0.3-1.7,0.4-2.6,0.5
			c-0.9,0.1-1.9,0.1-2.8,0.1c-1.4,0-2.8-0.2-4.2-0.7c-0.6-0.2-1.3-0.5-1.8-0.9c-0.3-0.3-0.5-0.6-0.5-1.1c0-1.1,0-2.1,0-3.2
			c0.1,0.2,0.2,0.4,0.3,0.6c0.5,0.6,1.2,0.8,1.9,1.1c0.8,0.3,1.6,0.4,2.5,0.5c0.6,0.1,1.3,0.1,1.9,0.1c0.5,0,0.9,0,1.4,0
			c0.5,0,1.1-0.1,1.6-0.1c1.1-0.1,2.1-0.4,3.1-0.8C657.7,76.9,658.3,76.5,658.6,75.8z"/>
		<path class="st9" d="M658.6,75.8c-0.3,0.7-0.8,1-1.5,1.3c-1,0.5-2,0.7-3.1,0.8c-0.5,0.1-1.1,0.1-1.6,0.1c-0.5,0-0.9,0-1.4,0
			c-0.6,0-1.3-0.1-1.9-0.1c-0.8-0.1-1.7-0.3-2.5-0.5c-0.7-0.2-1.4-0.5-1.9-1.1c-0.2-0.2-0.2-0.4-0.3-0.6c0-1.2,0-2.4,0-3.6
			c0.2,0.7,0.8,1.1,1.4,1.4c1,0.5,2.1,0.7,3.3,0.8c1,0.1,1.9,0.2,2.9,0.1c1.5-0.1,3-0.2,4.5-0.7c0.4-0.1,0.8-0.3,1.1-0.5
			c0.4-0.3,0.8-0.6,0.9-1.1C658.6,73.5,658.6,74.6,658.6,75.8z"/>
	</g>
</g>
<g>
	<ellipse class="st5" cx="676.4" cy="79.8" rx="8.4" ry="2.8"/>
	<g>
		<path class="st6" d="M675.5,66.1c0.7,0,1.3,0,2,0c0,0,0,0,0.1,0c0.5,0,0.9,0.1,1.4,0.1c0.8,0.1,1.5,0.2,2.3,0.5
			c0.7,0.2,1.4,0.5,1.9,1c0.3,0.2,0.5,0.5,0.5,0.9c0,0.2-0.1,0.4-0.3,0.6c-0.2,0.3-0.6,0.5-0.9,0.7c-0.6,0.4-1.3,0.6-2,0.7
			c-0.6,0.2-1.3,0.3-2,0.3c-0.4,0-0.8,0.1-1.2,0.1c-0.6,0-1.3,0-1.9,0c-0.7,0-1.3-0.1-2-0.2c-1-0.2-1.9-0.4-2.8-0.9
			c-0.5-0.3-1-0.6-1.1-1.3c0-0.2,0-0.3,0.1-0.5c0.2-0.4,0.6-0.7,1-0.9c1.4-0.7,2.9-1,4.4-1.1C675.1,66.1,675.3,66.1,675.5,66.1z"/>
		<path class="st7" d="M669.4,72.3c0-0.7,0-1.5,0-2.2c0-0.5,0-1,0-1.4c0.1,0.7,0.6,1,1.1,1.3c0.9,0.5,1.8,0.7,2.8,0.9
			c0.7,0.1,1.3,0.2,2,0.2c0.6,0,1.3,0.1,1.9,0c0.4,0,0.8,0,1.2-0.1c0.7-0.1,1.3-0.2,2-0.3c0.7-0.2,1.4-0.4,2-0.7
			c0.3-0.2,0.7-0.4,0.9-0.7c0.1-0.2,0.2-0.4,0.3-0.6c0,1.2,0,2.4,0,3.7c-0.2,0.5-0.5,0.8-0.9,1.1c-0.4,0.2-0.7,0.4-1.1,0.5
			c-1.5,0.5-3,0.7-4.5,0.7c-1,0-1.9,0-2.9-0.1c-1.1-0.1-2.2-0.4-3.3-0.8C670.2,73.3,669.6,73,669.4,72.3z"/>
		<path class="st8" d="M683.6,75.8c0,1.1,0,2.3,0,3.4c0,0.3-0.2,0.6-0.5,0.8c-0.5,0.5-1.2,0.7-1.8,1c-0.8,0.3-1.7,0.4-2.6,0.5
			c-0.9,0.1-1.9,0.1-2.8,0.1c-1.4,0-2.8-0.2-4.2-0.7c-0.6-0.2-1.3-0.5-1.8-0.9c-0.3-0.3-0.5-0.6-0.5-1.1c0-1.1,0-2.1,0-3.2
			c0.1,0.2,0.2,0.4,0.3,0.6c0.5,0.6,1.2,0.8,1.9,1.1c0.8,0.3,1.6,0.4,2.5,0.5c0.6,0.1,1.3,0.1,1.9,0.1c0.5,0,0.9,0,1.4,0
			c0.5,0,1.1-0.1,1.6-0.1c1.1-0.1,2.1-0.4,3.1-0.8C682.7,76.9,683.3,76.5,683.6,75.8z"/>
		<path class="st9" d="M683.6,75.8c-0.3,0.7-0.8,1-1.5,1.3c-1,0.5-2,0.7-3.1,0.8c-0.5,0.1-1.1,0.1-1.6,0.1c-0.5,0-0.9,0-1.4,0
			c-0.6,0-1.3-0.1-1.9-0.1c-0.8-0.1-1.7-0.3-2.5-0.5c-0.7-0.2-1.4-0.5-1.9-1.1c-0.2-0.2-0.2-0.4-0.3-0.6c0-1.2,0-2.4,0-3.6
			c0.2,0.7,0.8,1.1,1.4,1.4c1,0.5,2.1,0.7,3.3,0.8c1,0.1,1.9,0.2,2.9,0.1c1.5-0.1,3-0.2,4.5-0.7c0.4-0.1,0.8-0.3,1.1-0.5
			c0.4-0.3,0.8-0.6,0.9-1.1C683.6,73.5,683.6,74.6,683.6,75.8z"/>
	</g>
</g>
<g>
	<ellipse class="st5" cx="664.4" cy="91.5" rx="12.6" ry="4.2"/>
	<g>
		<path class="st6" d="M663.1,71c1,0,1.9,0,2.9,0c0,0,0.1,0,0.1,0c0.7,0,1.4,0.1,2.1,0.2c1.1,0.1,2.3,0.4,3.4,0.7
			c1,0.3,2.1,0.7,2.9,1.5c0.4,0.4,0.7,0.8,0.7,1.4c0,0.3-0.2,0.6-0.4,0.9c-0.4,0.5-0.8,0.8-1.3,1.1c-1,0.5-2,0.8-3,1.1
			c-1,0.2-1.9,0.4-2.9,0.5c-0.6,0.1-1.2,0.1-1.8,0.1c-0.9,0.1-1.9,0-2.8,0c-1-0.1-2-0.2-3-0.3c-1.4-0.3-2.8-0.6-4.1-1.3
			c-0.8-0.4-1.5-1-1.7-2c0-0.3,0-0.5,0.2-0.7c0.3-0.6,0.9-1,1.4-1.3c2-1.1,4.3-1.4,6.5-1.7C662.4,71.1,662.7,71.1,663.1,71z"/>
		<path class="st7" d="M654,80.2c0-1.1,0-2.2,0-3.3c0-0.7,0-1.4,0-2.2c0.2,1,0.9,1.5,1.7,2c1.3,0.7,2.7,1,4.1,1.3c1,0.2,2,0.3,3,0.3
			c0.9,0.1,1.9,0.1,2.8,0c0.6,0,1.2-0.1,1.8-0.1c1-0.1,2-0.3,2.9-0.5c1.1-0.3,2.1-0.6,3-1.1c0.5-0.3,1-0.6,1.3-1.1
			c0.2-0.3,0.3-0.6,0.4-0.9c0,1.8,0,3.6,0,5.5c-0.2,0.7-0.7,1.2-1.4,1.6c-0.5,0.3-1.1,0.6-1.7,0.8c-2.2,0.8-4.4,1-6.7,1.1
			c-1.5,0-2.9,0-4.3-0.2c-1.7-0.2-3.3-0.5-4.9-1.3C655.2,81.8,654.3,81.3,654,80.2z"/>
		<path class="st8" d="M675.1,85.6c0,1.7,0,3.4,0,5.1c0,0.5-0.3,0.9-0.7,1.2c-0.8,0.7-1.8,1.1-2.8,1.4c-1.3,0.4-2.5,0.6-3.8,0.8
			c-1.4,0.2-2.8,0.2-4.2,0.2c-2.1-0.1-4.2-0.3-6.2-1c-1-0.3-1.9-0.7-2.6-1.4c-0.5-0.4-0.7-0.9-0.7-1.6c0-1.6,0-3.2,0-4.8
			c0.1,0.3,0.3,0.6,0.5,0.8c0.8,0.8,1.8,1.3,2.9,1.6c1.2,0.4,2.4,0.6,3.7,0.8c0.9,0.1,1.9,0.2,2.8,0.2c0.7,0,1.3,0,2,0
			c0.8,0,1.6-0.1,2.4-0.2c1.6-0.2,3.2-0.5,4.6-1.2C673.8,87.1,674.7,86.6,675.1,85.6z"/>
		<path class="st9" d="M675.1,85.6c-0.4,1-1.3,1.6-2.2,2c-1.5,0.7-3,1-4.6,1.2c-0.8,0.1-1.6,0.2-2.4,0.2c-0.7,0-1.3,0-2,0
			c-0.9,0-1.9-0.1-2.8-0.2c-1.3-0.1-2.5-0.4-3.7-0.8c-1.1-0.3-2.1-0.8-2.9-1.6c-0.2-0.2-0.3-0.5-0.5-0.8c0-1.8,0-3.5,0-5.3
			c0.3,1.1,1.2,1.6,2.2,2c1.5,0.7,3.2,1,4.9,1.3c1.4,0.2,2.9,0.3,4.3,0.2c2.3-0.1,4.5-0.3,6.7-1.1c0.6-0.2,1.2-0.5,1.7-0.8
			c0.6-0.4,1.1-0.9,1.4-1.6C675.1,82,675.1,83.8,675.1,85.6z"/>
	</g>
</g>
<g>
	<circle class="st10" cx="664.3" cy="169.5" r="30.5"/>
</g>
<g>
	<ellipse class="st11" cx="651.4" cy="171.9" rx="8.6" ry="2.9"/>
	<g>
		<path class="st6" d="M650.5,157.9c0.7,0,1.3,0,2,0c0,0,0,0,0.1,0c0.5,0,0.9,0.1,1.4,0.1c0.8,0.1,1.5,0.2,2.3,0.5
			c0.7,0.2,1.4,0.5,2,1c0.3,0.2,0.5,0.5,0.5,0.9c0,0.2-0.1,0.4-0.3,0.6c-0.2,0.3-0.6,0.5-0.9,0.7c-0.7,0.4-1.4,0.6-2.1,0.7
			c-0.7,0.2-1.3,0.3-2,0.3c-0.4,0-0.8,0.1-1.2,0.1c-0.6,0-1.3,0-1.9,0c-0.7,0-1.4-0.1-2-0.2c-1-0.2-1.9-0.4-2.8-0.9
			c-0.5-0.3-1-0.6-1.2-1.3c0-0.2,0-0.3,0.1-0.5c0.2-0.4,0.6-0.7,1-0.9c1.4-0.7,2.9-1,4.4-1.1C650.1,158,650.3,158,650.5,157.9z"/>
		<path class="st12" d="M644.3,164.2c0-0.8,0-1.5,0-2.3c0-0.5,0-1,0-1.5c0.1,0.7,0.6,1,1.2,1.3c0.9,0.5,1.8,0.7,2.8,0.9
			c0.7,0.1,1.3,0.2,2,0.2c0.6,0,1.3,0.1,1.9,0c0.4,0,0.8,0,1.2-0.1c0.7-0.1,1.3-0.2,2-0.3c0.7-0.2,1.4-0.4,2.1-0.7
			c0.3-0.2,0.7-0.4,0.9-0.7c0.1-0.2,0.2-0.4,0.3-0.6c0,1.2,0,2.5,0,3.7c-0.2,0.5-0.5,0.8-0.9,1.1c-0.4,0.2-0.7,0.4-1.1,0.5
			c-1.5,0.5-3,0.7-4.6,0.8c-1,0-2,0-3-0.1c-1.1-0.1-2.3-0.4-3.3-0.9C645.1,165.3,644.5,165,644.3,164.2z"/>
		<path class="st13" d="M658.7,167.9c0,1.2,0,2.3,0,3.5c0,0.3-0.2,0.6-0.5,0.8c-0.5,0.5-1.2,0.8-1.9,1c-0.9,0.3-1.7,0.4-2.6,0.5
			c-1,0.1-1.9,0.1-2.9,0.1c-1.4,0-2.9-0.2-4.3-0.7c-0.7-0.2-1.3-0.5-1.8-0.9c-0.3-0.3-0.5-0.6-0.5-1.1c0-1.1,0-2.2,0-3.3
			c0.1,0.2,0.2,0.4,0.3,0.6c0.5,0.6,1.2,0.9,2,1.1c0.8,0.3,1.7,0.4,2.5,0.5c0.6,0.1,1.3,0.1,1.9,0.1c0.5,0,0.9,0,1.4,0
			c0.5,0,1.1-0.1,1.6-0.1c1.1-0.1,2.1-0.4,3.1-0.8C657.8,168.9,658.4,168.6,658.7,167.9z"/>
		<path class="st14" d="M658.7,167.9c-0.3,0.7-0.9,1.1-1.5,1.4c-1,0.5-2.1,0.7-3.1,0.8c-0.5,0.1-1.1,0.1-1.6,0.1c-0.5,0-0.9,0-1.4,0
			c-0.6,0-1.3-0.1-1.9-0.1c-0.9-0.1-1.7-0.3-2.5-0.5c-0.7-0.2-1.4-0.5-2-1.1c-0.2-0.2-0.2-0.4-0.3-0.6c0-1.2,0-2.4,0-3.6
			c0.2,0.7,0.8,1.1,1.5,1.4c1,0.5,2.2,0.7,3.3,0.9c1,0.1,2,0.2,3,0.1c1.6-0.1,3.1-0.2,4.6-0.8c0.4-0.1,0.8-0.3,1.1-0.5
			c0.4-0.3,0.8-0.6,0.9-1.1C658.7,165.4,658.7,166.6,658.7,167.9z"/>
	</g>
</g>
<g>
	<ellipse class="st11" cx="676.4" cy="171.9" rx="8.6" ry="2.9"/>
	<g>
		<path class="st6" d="M675.5,157.9c0.7,0,1.3,0,2,0c0,0,0,0,0.1,0c0.5,0,0.9,0.1,1.4,0.1c0.8,0.1,1.5,0.2,2.3,0.5
			c0.7,0.2,1.4,0.5,2,1c0.3,0.2,0.5,0.5,0.5,0.9c0,0.2-0.1,0.4-0.3,0.6c-0.2,0.3-0.6,0.5-0.9,0.7c-0.7,0.4-1.4,0.6-2.1,0.7
			c-0.7,0.2-1.3,0.3-2,0.3c-0.4,0-0.8,0.1-1.2,0.1c-0.6,0-1.3,0-1.9,0c-0.7,0-1.4-0.1-2-0.2c-1-0.2-1.9-0.4-2.8-0.9
			c-0.5-0.3-1-0.6-1.2-1.3c0-0.2,0-0.3,0.1-0.5c0.2-0.4,0.6-0.7,1-0.9c1.4-0.7,2.9-1,4.4-1.1C675.1,158,675.3,158,675.5,157.9z"/>
		<path class="st12" d="M669.3,164.2c0-0.8,0-1.5,0-2.3c0-0.5,0-1,0-1.5c0.1,0.7,0.6,1,1.2,1.3c0.9,0.5,1.8,0.7,2.8,0.9
			c0.7,0.1,1.3,0.2,2,0.2c0.6,0,1.3,0.1,1.9,0c0.4,0,0.8,0,1.2-0.1c0.7-0.1,1.3-0.2,2-0.3c0.7-0.2,1.4-0.4,2.1-0.7
			c0.3-0.2,0.7-0.4,0.9-0.7c0.1-0.2,0.2-0.4,0.3-0.6c0,1.2,0,2.5,0,3.7c-0.2,0.5-0.5,0.8-0.9,1.1c-0.4,0.2-0.7,0.4-1.1,0.5
			c-1.5,0.5-3,0.7-4.6,0.8c-1,0-2,0-3-0.1c-1.1-0.1-2.3-0.4-3.3-0.9C670.1,165.3,669.5,165,669.3,164.2z"/>
		<path class="st13" d="M683.7,167.9c0,1.2,0,2.3,0,3.5c0,0.3-0.2,0.6-0.5,0.8c-0.5,0.5-1.2,0.8-1.9,1c-0.9,0.3-1.7,0.4-2.6,0.5
			c-1,0.1-1.9,0.1-2.9,0.1c-1.4,0-2.9-0.2-4.3-0.7c-0.7-0.2-1.3-0.5-1.8-0.9c-0.3-0.3-0.5-0.6-0.5-1.1c0-1.1,0-2.2,0-3.3
			c0.1,0.2,0.2,0.4,0.3,0.6c0.5,0.6,1.2,0.9,2,1.1c0.8,0.3,1.7,0.4,2.5,0.5c0.6,0.1,1.3,0.1,1.9,0.1c0.5,0,0.9,0,1.4,0
			c0.5,0,1.1-0.1,1.6-0.1c1.1-0.1,2.1-0.4,3.1-0.8C682.8,168.9,683.4,168.6,683.7,167.9z"/>
		<path class="st14" d="M683.7,167.9c-0.3,0.7-0.9,1.1-1.5,1.4c-1,0.5-2.1,0.7-3.1,0.8c-0.5,0.1-1.1,0.1-1.6,0.1c-0.5,0-0.9,0-1.4,0
			c-0.6,0-1.3-0.1-1.9-0.1c-0.9-0.1-1.7-0.3-2.5-0.5c-0.7-0.2-1.4-0.5-2-1.1c-0.2-0.2-0.2-0.4-0.3-0.6c0-1.2,0-2.4,0-3.6
			c0.2,0.7,0.8,1.1,1.5,1.4c1,0.5,2.2,0.7,3.3,0.9c1,0.1,2,0.2,3,0.1c1.6-0.1,3.1-0.2,4.6-0.8c0.4-0.1,0.8-0.3,1.1-0.5
			c0.4-0.3,0.8-0.6,0.9-1.1C683.7,165.4,683.7,166.6,683.7,167.9z"/>
	</g>
</g>
<g>
	<ellipse class="st11" cx="664.4" cy="183.5" rx="12.6" ry="4.2"/>
	<g>
		<path class="st6" d="M663.1,163c1,0,1.9,0,2.9,0c0,0,0.1,0,0.1,0c0.7,0,1.4,0.1,2.1,0.2c1.1,0.1,2.3,0.4,3.4,0.7
			c1,0.3,2.1,0.7,2.9,1.5c0.4,0.4,0.7,0.8,0.7,1.4c0,0.3-0.2,0.6-0.4,0.9c-0.4,0.5-0.8,0.8-1.3,1.1c-1,0.5-2,0.8-3,1.1
			c-1,0.2-1.9,0.4-2.9,0.5c-0.6,0.1-1.2,0.1-1.8,0.1c-0.9,0.1-1.9,0-2.8,0c-1-0.1-2-0.2-3-0.3c-1.4-0.3-2.8-0.6-4.1-1.3
			c-0.8-0.4-1.5-1-1.7-2c0-0.3,0-0.5,0.2-0.7c0.3-0.6,0.9-1,1.4-1.3c2-1.1,4.3-1.4,6.5-1.7C662.4,163.1,662.7,163.1,663.1,163z"/>
		<path class="st12" d="M654,172.2c0-1.1,0-2.2,0-3.3c0-0.7,0-1.4,0-2.2c0.2,1,0.9,1.5,1.7,2c1.3,0.7,2.7,1,4.1,1.3
			c1,0.2,2,0.3,3,0.3c0.9,0.1,1.9,0.1,2.8,0c0.6,0,1.2-0.1,1.8-0.1c1-0.1,2-0.3,2.9-0.5c1.1-0.3,2.1-0.6,3-1.1
			c0.5-0.3,1-0.6,1.3-1.1c0.2-0.3,0.3-0.6,0.4-0.9c0,1.8,0,3.6,0,5.5c-0.2,0.7-0.7,1.2-1.4,1.6c-0.5,0.3-1.1,0.6-1.7,0.8
			c-2.2,0.8-4.4,1-6.7,1.1c-1.5,0-2.9,0-4.3-0.2c-1.7-0.2-3.3-0.5-4.9-1.3C655.2,173.8,654.3,173.3,654,172.2z"/>
		<path class="st13" d="M675.1,177.6c0,1.7,0,3.4,0,5.1c0,0.5-0.3,0.9-0.7,1.2c-0.8,0.7-1.8,1.1-2.8,1.4c-1.3,0.4-2.5,0.6-3.8,0.8
			c-1.4,0.2-2.8,0.2-4.2,0.2c-2.1-0.1-4.2-0.3-6.2-1c-1-0.3-1.9-0.7-2.6-1.4c-0.5-0.4-0.7-0.9-0.7-1.6c0-1.6,0-3.2,0-4.8
			c0.1,0.3,0.3,0.6,0.5,0.8c0.8,0.8,1.8,1.3,2.9,1.6c1.2,0.4,2.4,0.6,3.7,0.8c0.9,0.1,1.9,0.2,2.8,0.2c0.7,0,1.3,0,2,0
			c0.8,0,1.6-0.1,2.4-0.2c1.6-0.2,3.2-0.5,4.6-1.2C673.8,179.1,674.7,178.6,675.1,177.6z"/>
		<path class="st14" d="M675.1,177.6c-0.4,1-1.3,1.6-2.2,2c-1.5,0.7-3,1-4.6,1.2c-0.8,0.1-1.6,0.2-2.4,0.2c-0.7,0-1.3,0-2,0
			c-0.9,0-1.9-0.1-2.8-0.2c-1.3-0.1-2.5-0.4-3.7-0.8c-1.1-0.3-2.1-0.8-2.9-1.6c-0.2-0.2-0.3-0.5-0.5-0.8c0-1.8,0-3.5,0-5.3
			c0.3,1.1,1.2,1.6,2.2,2c1.5,0.7,3.2,1,4.9,1.3c1.4,0.2,2.9,0.3,4.3,0.2c2.3-0.1,4.5-0.3,6.7-1.1c0.6-0.2,1.2-0.5,1.7-0.8
			c0.6-0.4,1.1-0.9,1.4-1.6C675.1,174,675.1,175.8,675.1,177.6z"/>
	</g>
</g>
<g>
	<path class="st10" d="M563.9,89.2c0-0.5-0.1-0.9-0.2-1.3c-0.1-2.6-2.2-4.6-4.8-4.6c-0.1,0-55.5,0-55.7,0c-3.3,0-6,2.7-6,6
		c0,0.2,0,60.7,0,60.7h-9.7c0,0,0,4.6,0,4.8c0,2.6,2.1,4.8,4.8,4.8c0.2,0,15.8,0,29.3,0c12.3,0,26.4,0,26.6,0c0.4,0,0.8,0,1.2-0.1
		c2.6,0,4.8-2.1,4.8-4.8c0-0.2,0-61.7,0-61.7h9.5l0,0h0.1C563.9,92.9,563.9,89.6,563.9,89.2z"/>
	<path class="st15" d="M550.7,159.6c-2.6,0-4.8-2.1-4.8-4.8c0-0.4,0-4.8,0-4.8h-57.1c0,0,0,4.6,0,4.8c0,2.6,2.1,4.8,4.8,4.8
		C493.8,159.6,550.9,159.6,550.7,159.6z"/>
	<path class="st15" d="M565.1,88.2c0-2.6-2.1-4.8-4.8-4.8c-2.6,0-4.8,2.1-4.8,4.8c0,0.4,0,4.8,0,4.8h9.5
		C565.1,92.9,565.1,88.4,565.1,88.2z"/>
	<g>
		<line class="st16" x1="508.5" y1="117.9" x2="546" y2="117.9"/>
		<line class="st16" x1="508.5" y1="129.2" x2="546" y2="129.2"/>
		<line class="st16" x1="508.5" y1="140.5" x2="546" y2="140.5"/>
		<line class="st16" x1="508.5" y1="106.7" x2="546" y2="106.7"/>
		<line class="st16" x1="508.5" y1="95.4" x2="530.8" y2="95.4"/>
	</g>
</g>
<line class="st17" x1="645.9" y1="58" x2="684.8" y2="96.8"/>
<line class="st17" x1="684.8" y1="58" x2="645.9" y2="96.8"/>
<polygon class="st18" points="839.5,118.4 970.9,118.2 970.9,199.3 839.5,132.2 "/>
<g>
	<g>
		<circle class="st3" cx="970.4" cy="158.3" r="40.7"/>
	</g>
	<g>
		<g>
			<circle class="st1" cx="970.8" cy="159.6" r="26.7"/>
			<circle class="st2" cx="970.8" cy="159.6" r="22"/>
			<path class="st19" d="M970.8,137.6l-0.1,22.1l17.1,13.7c0,0,10-10.9,2-25C989.8,148.4,983.4,137.2,970.8,137.6z"/>
		</g>
		<polyline class="st20" points="970.7,138.7 970.7,159.7 987.5,173.2 		"/>
	</g>
	<rect x="970" y="137.4" class="st1" width="1.8" height="1"/>
	<rect x="970" y="180.7" class="st1" width="1.8" height="1"/>
	<rect x="991.9" y="158.7" class="st1" width="1" height="1.8"/>
	<rect x="948.7" y="158.7" class="st1" width="1" height="1.8"/>
</g>
<g>
	<g>
		<line class="st21" x1="632.9" y1="83" x2="631" y2="83.7"/>
		<line class="st22" x1="627.4" y1="85.2" x2="549.9" y2="116.5"/>
		<line class="st21" x1="548.1" y1="117.2" x2="546.2" y2="117.9"/>
	</g>
</g>
<g>
	<g>
		<line class="st21" x1="630.2" y1="168.3" x2="628.4" y2="167.5"/>
		<line class="st23" x1="624.9" y1="165.8" x2="549.4" y2="130.6"/>
		<line class="st21" x1="547.6" y1="129.8" x2="545.8" y2="129"/>
	</g>
</g>
<g>
	<g>
		<g>
			<polygon class="st1" points="254.8,199 209.8,199 209.8,146 217.7,138.4 246.8,138.4 254.8,146 			"/>
		</g>
		<g>
			<rect x="216.9" y="153.5" class="st24" width="29.9" height="3.7"/>
			<rect x="216.9" y="161.1" class="st24" width="29.9" height="3.7"/>
			<rect x="216.9" y="183.7" class="st24" width="15" height="3.7"/>
		</g>
		<g>
			<g>
				<polygon class="st25" points="246.8,138.4 217.7,138.4 209.8,145.9 254.7,145.9 				"/>
			</g>
		</g>
	</g>
	<g>
		<g>
			<polygon class="st1" points="162.3,199 117.3,199 117.3,146 125.2,138.4 154.3,138.4 162.3,146 			"/>
		</g>
		<g>
			<rect x="124.4" y="153.5" class="st24" width="29.9" height="3.7"/>
			<rect x="124.4" y="161.1" class="st24" width="29.9" height="3.7"/>
		</g>
		<g>
			<g>
				<polygon class="st25" points="154.3,138.4 125.2,138.4 117.3,145.9 162.2,145.9 				"/>
			</g>
		</g>
	</g>
	<g>
		<g>
			<polygon class="st1" points="73.8,199 28.8,199 28.8,146 36.7,138.4 65.8,138.4 73.8,146 			"/>
		</g>
		<g>
			<rect x="35.9" y="153.5" class="st24" width="29.9" height="3.7"/>
			<rect x="35.9" y="161.1" class="st24" width="29.9" height="3.7"/>
			<rect x="35.9" y="183.7" class="st24" width="15" height="3.7"/>
		</g>
		<g>
			<g>
				<polygon class="st25" points="65.8,138.4 36.7,138.4 28.8,145.9 73.7,145.9 				"/>
			</g>
		</g>
	</g>
	<g>
		<rect x="295.5" y="146.8" class="st13" width="73" height="40"/>
	</g>
	<path class="st2" d="M315,164.6c-6.8,0-13.4-3.5-15.9-4.9c-0.6-0.3-0.7-1-0.4-1.5c0.3-0.6,1-0.7,1.5-0.4c2.3,1.5,8.4,4.7,14.7,4.7
		c3.9,0,9.2-1,14.7-2.2c5.5-1.2,12.5-2.6,18.3-2.6c8.4,0,14.5,3.1,16.7,4.4c0.6,0.3,0.7,1,0.4,1.5c-0.3,0.6-1,0.7-1.5,0.4
		c-1.9-1.2-7.6-4.1-15.6-4.1c-5.5,0-12.4,1.5-17.9,2.6S319.2,164.6,315,164.6z"/>
	<path class="st2" d="M315,176.8c-6.8,0-13.4-3.5-15.9-4.9c-0.6-0.3-0.7-1-0.4-1.5c0.3-0.6,1-0.7,1.5-0.4c2.3,1.5,8.4,4.7,14.7,4.7
		c3.9,0,9.2-1,14.7-2.2c5.5-1.2,12.5-2.6,18.3-2.6c8.4,0,14.5,3.1,16.7,4.4c0.6,0.3,0.7,1,0.4,1.5c-0.3,0.6-1,0.7-1.5,0.4
		c-2-1.2-7.7-4.1-15.7-4.1c-5.5,0-12.4,1.5-17.9,2.6C324.6,175.8,319.2,176.8,315,176.8z"/>
	<g>
		<circle class="st26" cx="359.3" cy="184.5" r="21.5"/>
		<g>
			<g>
				<g>
					<polyline class="st2" points="371.1,198.4 371.1,176.9 365.1,171 350.6,171 350.6,198.4 371.3,198.4 					"/>
					<path class="st13" d="M371.3,198.6h-20.9v-27.9h14.8l6.1,6.1L371.3,198.6z M350.8,198.2h20.1v-21.1l-5.9-5.9h-14.2V198.2z"/>
				</g>
				<path class="st27" d="M363.3,188.6"/>
				<polygon class="st13" points="365,177 371,177 365,171 				"/>
			</g>
			<rect x="353.2" y="180.2" class="st13" width="14.5" height="0.9"/>
			<rect x="353.2" y="175.9" class="st13" width="9.4" height="0.9"/>
			<rect x="353.2" y="184.5" class="st13" width="14.5" height="0.9"/>
			<rect x="353.2" y="188.9" class="st13" width="14.5" height="0.9"/>
			<rect x="353.2" y="193.4" class="st13" width="14.5" height="0.9"/>
		</g>
	</g>
	<line class="st28" x1="198.9" y1="74" x2="50.9" y2="74"/>
	<line class="st28" x1="330.9" y1="74" x2="202.9" y2="74"/>
	<line class="st28" x1="50.9" y1="74" x2="50.9" y2="137"/>
	<line class="st28" x1="231.9" y1="74" x2="231.9" y2="137"/>
	<line class="st28" x1="330.9" y1="74" x2="330.9" y2="145"/>
	<line class="st28" x1="140.9" y1="74" x2="140.9" y2="137"/>
	<path class="st29" d="M160.9,207.5c0,0,93.7,54,200-1"/>
	<polyline class="st30" points="265.9,226.4 272.2,231.3 266,235.7 	"/>
	<g>
		<circle class="st4" cx="161.3" cy="184.5" r="21.5"/>
		<g>
			<g>
				<g>
					<polyline class="st2" points="173.1,198.4 173.1,176.9 167.1,171 152.6,171 152.6,198.4 173.3,198.4 					"/>
					<path class="st31" d="M173.3,198.6h-20.9v-27.9h14.8l6.1,6.1L173.3,198.6z M152.8,198.2h20.1v-21.1l-5.9-5.9h-14.2V198.2z"/>
				</g>
				<path class="st27" d="M165.3,188.6"/>
				<polygon class="st31" points="167,177 173,177 167,171 				"/>
			</g>
			<rect x="155.2" y="180.2" class="st31" width="14.5" height="0.9"/>
			<rect x="155.2" y="175.9" class="st31" width="9.4" height="0.9"/>
			<rect x="155.2" y="184.5" class="st31" width="14.5" height="0.9"/>
			<rect x="155.2" y="188.9" class="st31" width="14.5" height="0.9"/>
			<rect x="155.2" y="193.4" class="st31" width="14.5" height="0.9"/>
		</g>
	</g>
	<g>
		<g>
			<g>
				<polygon class="st1" points="213.4,75 168.4,75 168.4,22.1 176.2,14.5 205.4,14.5 213.4,22.1 				"/>
			</g>
			<g>
				<rect x="175.4" y="29.6" class="st24" width="29.9" height="3.7"/>
				<rect x="175.4" y="37.2" class="st24" width="29.9" height="3.7"/>
			</g>
			<g>
				<g>
					<polygon class="st25" points="205.4,14.5 176.2,14.5 168.4,21.9 213.3,21.9 					"/>
				</g>
			</g>
		</g>
		<g>
			<circle class="st32" cx="190.9" cy="58.7" r="12.4"/>
			<path class="st33" d="M195.6,62.4h-8.1c-0.5,0-0.9-0.4-0.9-0.9c0-0.5,0.4-0.9,0.9-0.9h3.3h3.3c0.5,0,0.9-0.4,0.9-0.9
				c0-0.5-0.4-0.9-0.9-0.9h-6.6c-0.5,0-0.9-0.4-0.9-0.9c0-0.5,0.4-0.9,0.9-0.9h3.3h3.3c0.5,0,0.9-0.4,0.9-0.9c0-0.5-0.4-0.9-0.9-0.9
				h-10.7c-0.6,0-0.9,0.5-1,0.7c-0.4,0.9-0.5,2-0.5,3.1c0,4.9,4,8.9,8.9,8.9c4.9,0,8.9-4,8.9-8.9c0-4.9-4-8.9-8.9-8.9
				c-2.7,0-5.1,1.2-6.8,3.1"/>
			<path class="st34" d="M196.4,62.4c0,0.6-0.5,1-1,1c-0.6,0-1-0.5-1-1c0-0.6,0.5-1,1-1C195.9,61.4,196.4,61.9,196.4,62.4z"/>
			<polyline class="st33" points="183.8,51.1 183.8,53.2 186,53.2 			"/>
		</g>
	</g>
</g>
</svg>
