<?xml version="1.0" encoding="utf-8"?>
<!-- Generator: Adobe Illustrator 19.1.0, SVG Export Plug-In . SVG Version: 6.00 Build 0)  -->
<svg version="1.1" id="Layer_1" xmlns="http://www.w3.org/2000/svg" xmlns:xlink="http://www.w3.org/1999/xlink" x="0px" y="0px"
	 viewBox="0 0 64 64" style="enable-background:new 0 0 64 64;" xml:space="preserve">
<style type="text/css">
	.st0{fill:#333333;}
</style>
<path class="st0" d="M32,1C14.9,1,1,14.9,1,32c0,17.1,13.9,31,31,31s31-13.9,31-31C63,14.9,49.1,1,32,1z M50.5,32.7L20.3,49.5
	c-0.3,0.2-0.6,0.2-0.9,0.1S19,49.1,19,48.7V15.3c0-0.4,0.1-0.7,0.4-0.8s0.5-0.1,0.9,0.1l30.2,16.8c0.3,0.2,0.5,0.4,0.5,0.7
	C51,32.3,50.8,32.5,50.5,32.7z"/>
</svg>
