<?xml version="1.0" encoding="utf-8"?>
<!-- Generator: Adobe Illustrator 19.1.0, SVG Export Plug-In . SVG Version: 6.00 Build 0)  -->
<svg version="1.1" xmlns="http://www.w3.org/2000/svg" xmlns:xlink="http://www.w3.org/1999/xlink" x="0px" y="0px"
	 viewBox="0 0 64 64" style="enable-background:new 0 0 64 64;" xml:space="preserve">
<style type="text/css">
	.st0{fill:#FFFFFF;}
	.st1{display:none;}
	.st2{display:inline;}
</style>
<g id="Icon">
	<path class="st0" d="M32,47c0,8.3,6.7,15,15,15s15-6.7,15-15s-6.7-15-15-15S32,38.7,32,47z M36.8,52.9c0-0.1,0-0.2,0-0.3
		c0.1-0.2,0.4-0.4,1.1-0.8c0.2-0.1,0.4-0.3,0.8-0.4s0.6-0.4,0.9-0.5c0.3-0.2,0.5-0.3,0.8-0.4c0,0,0.2-0.1,0.4-0.3s0.4-0.2,0.5-0.3
		s0.3-0.1,0.4-0.1c0.2,0,0.4,0.1,0.7,0.4c0.3,0.3,0.6,0.6,0.8,0.9c0.2,0.3,0.5,0.6,0.8,0.9c0.3,0.3,0.5,0.4,0.7,0.4
		c0.1,0,0.2,0,0.3-0.1c0.1,0,0.2-0.1,0.3-0.1s0.2-0.1,0.3-0.2c0.2-0.1,0.3-0.2,0.3-0.2c1.3-0.7,2.5-1.6,3.4-2.5s1.8-2.1,2.5-3.4
		c0,0,0.1-0.1,0.2-0.3c0.1-0.2,0.2-0.3,0.2-0.3c0-0.1,0.1-0.2,0.1-0.3c0-0.1,0.1-0.2,0.1-0.3c0-0.2-0.1-0.4-0.4-0.7
		c-0.3-0.3-0.6-0.5-0.9-0.8c-0.3-0.2-0.6-0.5-0.9-0.8c-0.3-0.3-0.4-0.5-0.4-0.7c0-0.1,0-0.3,0.1-0.4c0.1-0.1,0.2-0.3,0.3-0.5
		c0.1-0.2,0.2-0.3,0.3-0.4c0.1-0.2,0.3-0.5,0.4-0.8c0.2-0.3,0.3-0.6,0.5-0.9c0.2-0.3,0.3-0.6,0.4-0.8c0.3-0.7,0.6-1,0.8-1.1
		c0.1,0,0.2,0,0.3,0c0.3,0,0.6,0,1,0.1c0.4,0.1,0.8,0.2,1,0.3c0.5,0.2,1,0.8,1.5,1.8c0.5,0.9,0.7,1.8,0.7,2.7c0,0.3,0,0.5-0.1,0.8
		S57.1,43,57,43.3c-0.1,0.3-0.2,0.5-0.2,0.7c-0.1,0.1-0.2,0.4-0.3,0.8c-0.1,0.4-0.2,0.6-0.3,0.7c-0.3,0.9-0.7,1.8-1.2,2.5
		c-0.8,1.2-1.8,2.5-3.1,3.8c-1.3,1.3-2.6,2.4-3.8,3.1c-0.7,0.5-1.6,0.9-2.5,1.2c-0.1,0-0.3,0.1-0.7,0.3c-0.4,0.1-0.7,0.2-0.8,0.3
		c-0.1,0.1-0.4,0.1-0.7,0.2c-0.3,0.1-0.6,0.1-0.8,0.2s-0.5,0.1-0.8,0.1c-0.9,0-1.8-0.2-2.7-0.7c-1-0.5-1.6-1.1-1.8-1.5
		c-0.1-0.2-0.2-0.6-0.3-1S36.8,53.2,36.8,52.9z"/>
	<g>
		<path class="st0" d="M32,0L0,32h8v32h16V36h9.9c3.1-3.7,7.8-6.1,13.1-6.1c3.3,0,6.4,1,9,2.6V32h8L32,0z"/>
		<path class="st0" d="M56,64v-2.7c-2.6,1.6-5.7,2.6-9,2.6c-2.5,0-4.9-0.6-7-1.5V64H56z"/>
	</g>
</g>
<g id="Guide" class="st1">
	<g class="st2">
		<g>
		</g>
	</g>
</g>
</svg>
